<?xml version="1.0" encoding="UTF-8" standalone="no"?>
<!-- Created with Inkscape (http://www.inkscape.org/) -->

<svg
   version="1.1"
   id="svg2"
   width="1456"
   height="816"
   viewBox="0 0 1456 816"
   sodipodi:docname="question.svg"
   inkscape:version="1.1.2 (b8e25be833, 2022-02-05)"
   xmlns:inkscape="http://www.inkscape.org/namespaces/inkscape"
   xmlns:sodipodi="http://sodipodi.sourceforge.net/DTD/sodipodi-0.dtd"
   xmlns="http://www.w3.org/2000/svg"
   xmlns:svg="http://www.w3.org/2000/svg">
  <defs
     id="defs6" />
  <sodipodi:namedview
     id="namedview4"
     pagecolor="#ffffff"
     bordercolor="#666666"
     borderopacity="1.0"
     inkscape:pageshadow="2"
     inkscape:pageopacity="0.0"
     inkscape:pagecheckerboard="0"
     showgrid="false"
     inkscape:zoom="0.46222527"
     inkscape:cx="772.35067"
     inkscape:cy="381.84844"
     inkscape:window-width="1920"
     inkscape:window-height="991"
     inkscape:window-x="-9"
     inkscape:window-y="-9"
     inkscape:window-maximized="1"
     inkscape:current-layer="g27886" />
  <g
     inkscape:groupmode="layer"
     inkscape:label="Image"
     id="g8">
    <g
       id="g27886"
       transform="translate(-71.393755,-17.307577)">
      <g
         id="g28319"
         transform="matrix(1.4312544,0,0,1.4312544,-199.51689,-216.31455)">
        <path
           style="fill:#192378;fill-opacity:1;stroke-width:1.18269"
           d="m 669.96664,848.96677 -6.5048,-0.43934 -13.60095,-1.26398 -13.60095,-1.26396 -10.64422,-1.77678 -10.64422,-1.77677 -13.0096,-2.94627 -13.0096,-2.94626 -13.60095,-4.18288 -13.60095,-4.18287 -15.07625,-5.90414 -15.07626,-5.90415 -18.03909,-9.12261 -18.0391,-9.1226 -12.19851,-7.63879 -12.19851,-7.6388 -12.63801,-9.35873 -12.638,-9.35874 -7.68749,-6.40423 -7.68749,-6.40424 -15.83335,-15.57834 -15.83335,-15.57835 -8.49565,-10.05288 -8.49565,-10.05287 -7.34686,-9.68209 -7.34687,-9.68208 -10.05353,-15.74578 -10.05354,-15.74577 -7.52844,-14.78364 -7.52844,-14.78364 -5.286,-12.41825 -5.286,-12.41826 -5.39342,-16.55768 -5.39341,-16.55767 -3.06005,-12.11619 -3.06005,-12.11619 -2.27384,-13.31167 -2.27385,-13.31167 -1.84657,-17.5976 -1.84657,-17.59761 0.0127,-23.79658 0.0127,-23.79659 1.72718,-16.27458 1.72717,-16.27459 1.87669,-10.81649 1.87669,-10.8165 2.94044,-12.52907 2.94043,-12.52907 4.17112,-14.15238 4.17111,-14.15239 6.57955,-16.59758 6.57955,-16.59759 6.87758,-13.75883 6.87758,-13.75882 6.17045,-10.48634 6.17045,-10.48635 8.1399,-12.16973 8.13988,-12.16974 12.05787,-15.03216 12.05787,-15.03216 15.38161,-15.38162 15.38161,-15.38161 15.37499,-12.34216 15.37498,-12.34215 16.60228,-10.90472 16.60226,-10.90472 15.92174,-8.315724 15.92174,-8.315738 13.69538,-5.850122 13.69539,-5.850134 16.46323,-5.368874 16.46324,-5.368862 11.82691,-2.962736 11.82692,-2.962736 9.9021,-1.855051 9.90212,-1.855051 14.34305,-1.824987 14.34306,-1.824998 21.87979,-0.677115 21.87978,-0.677114 20.62272,1.979068 20.62271,1.979068 10.12726,1.75334 10.12725,1.753327 13.60095,3.017767 13.60095,3.017778 18.92305,6.233173 18.92306,6.233172 13.0096,5.552971 13.00961,5.552972 15.67316,8.188243 15.67317,8.188253 11.52873,7.33037 11.52873,7.33037 8.27884,5.92853 8.27883,5.92854 13.00961,10.94249 13.0096,10.9425 6.52916,6.2783 6.52918,6.27832 10.0285,10.69221 10.02851,10.69223 8.92342,11.18756 8.92346,11.18757 5.9011,8.27884 5.9012,8.27883 6.0905,9.57072 6.0906,9.5707 7.166,13.13037 7.166,13.13036 6.0886,13.96236 6.0885,13.96234 4.5594,12.75606 4.5594,12.75606 4.0748,14.02216 4.075,14.02216 3.5886,18.28516 3.5886,18.28517 1.7104,15.84521 1.7102,15.84521 0.7765,17.14902 0.7764,17.14902 -1.2947,17.73859 -1.2948,17.7386 -2.3139,15.56996 -2.3139,15.56997 -3.1158,13.99908 -3.1158,13.99909 -5.2182,16.89006 -5.2181,16.89006 -5.9974,15.03268 -5.9973,15.03269 -8.6927,17.15893 -8.6927,17.15894 -7.3969,11.82691 -7.3969,11.82691 -7.635,10.64422 -7.63499,10.64422 -10.88867,13.00961 -10.88867,13.0096 -12.29246,12.3313 -12.29244,12.33131 -14.32863,11.91386 -14.32864,11.91387 -9.32519,6.69827 -9.32518,6.69827 -11.23557,7.04605 -11.23556,7.04604 -13.60095,7.19068 -13.60095,7.19069 -14.19229,6.11015 -14.1923,6.11016 -15.90266,5.25731 -15.90267,5.25733 -14.25596,3.48887 -14.25595,3.48887 -13.60095,2.31311 -13.60095,2.3131 -12.41826,1.16056 -12.41825,1.16056 -18.33172,0.51457 -18.33171,0.51455 z"
           id="path28323" />
        <path
           style="fill:#ffffff;fill-opacity:1;stroke-width:0.685018"
           d="m 648.16318,596.28795 0.19156,-30.65456 1.64478,-2.30613 1.64478,-2.30614 2.80784,-1.27517 2.80784,-1.27516 h 25.68817 25.68818 l 2.84557,1.29206 2.84556,1.29206 1.77831,3.03444 1.7783,3.03445 v 29.90935 29.90935 h -34.95622 -34.95623 z m -0.87714,-63.36417 -0.0412,-0.17126 -0.1536,-3.7676 -0.1536,-3.76759 0.49109,-10.6442 0.49109,-10.64421 1.09311,-6.30024 1.09311,-6.30025 1.72519,-6.00366 1.72519,-6.00365 3.01105,-6.22383 3.01106,-6.22383 4.24838,-5.76398 4.24838,-5.76399 4.51291,-5.13764 4.51292,-5.13763 17.48014,-17.81766 17.48014,-17.81767 4.21494,-5.59821 4.21493,-5.59821 1.59031,-3.98484 1.59031,-3.98485 0.0174,-7.87771 0.0174,-7.87771 -1.19248,-3.85136 -1.19249,-3.85136 -2.85971,-4.28246 -2.85972,-4.28245 -4.01404,-2.95497 -4.01406,-2.95498 -3.92156,-1.51277 -3.92157,-1.51277 -7.89538,-0.32148 -7.89537,-0.32148 -4.43495,1.13547 -4.43495,1.13547 -3.42509,1.58439 -3.42509,1.58439 -3.7676,2.83777 -3.7676,2.83776 -3.21642,4.2487 -3.21642,4.24871 -2.15396,5.13138 -2.15397,5.13139 -1.32795,5.17801 -1.32793,5.17802 -1.03482,9.24774 -1.03482,9.24775 -0.35779,2.91132 -0.35779,2.91133 h -36.0033 -36.0033 l 0.4708,-7.36394 0.4708,-7.36395 0.94842,-9.24774 0.94842,-9.24774 1.40715,-7.259 1.40714,-7.25899 2.101,-6.32049 2.101,-6.32049 1.83395,-4.23098 1.83395,-4.23099 3.07502,-5.71206 3.07503,-5.71207 5.28441,-7.03802 5.2844,-7.03803 6.3594,-5.98647 6.3594,-5.98647 6.85868,-4.57738 6.85867,-4.57737 5.82265,-2.83308 5.82266,-2.83307 4.79512,-1.81278 4.79513,-1.81278 7.83626,-2.03129 7.83627,-2.03127 8.59997,-1.006 8.59997,-1.00599 h 5.92553 5.92552 l 7.09402,0.72383 7.09401,0.72384 6.50767,1.39739 6.50767,1.39739 6.40406,2.04271 6.40405,2.04271 6.50889,3.02099 6.50889,3.02097 4.2125,2.53387 4.21251,2.53387 5.13764,3.89204 5.13763,3.89203 5.98453,6.2212 5.98453,6.22119 4.13524,6.29763 4.13524,6.29763 2.376,5.00693 2.376,5.00694 1.67402,4.99812 1.67404,4.99812 1.55818,7.19269 1.55819,7.19269 0.01,14.04287 0.01,14.04287 -1.47497,5.82265 -1.47497,5.82265 -2.51423,5.99297 -2.51423,5.99295 -3.37306,5.55353 -3.37306,5.55353 -3.77685,5.01826 -3.77685,5.01826 -6.24724,6.94326 -6.24724,6.94326 -15.13424,14.21309 -15.13423,14.21308 -3.30177,4.065 -3.30176,4.06501 -2.62973,5.48015 -2.62972,5.48014 -1.08832,4.79513 -1.08833,4.79512 -0.83291,10.10402 -0.83291,10.10401 h -35.13216 -35.13215 z"
           id="path28321" />
      </g>
    </g>
  </g>
</svg>
