<?xml version="1.0" encoding="UTF-8" standalone="no"?>
<svg
   version="1.1"
   width="2048px"
   height="2048px"
   style="shape-rendering:geometricPrecision; text-rendering:geometricPrecision; image-rendering:optimizeQuality; fill-rule:evenodd; clip-rule:evenodd"
   id="svg98"
   sodipodi:docname="sheep_logo.svg"
   inkscape:version="1.1.2 (b8e25be833, 2022-02-05)"
   xmlns:inkscape="http://www.inkscape.org/namespaces/inkscape"
   xmlns:sodipodi="http://sodipodi.sourceforge.net/DTD/sodipodi-0.dtd"
   xmlns="http://www.w3.org/2000/svg"
   xmlns:svg="http://www.w3.org/2000/svg">
  <defs
     id="defs102" />
  <sodipodi:namedview
     id="namedview100"
     pagecolor="#ffffff"
     bordercolor="#666666"
     borderopacity="1.0"
     inkscape:pageshadow="2"
     inkscape:pageopacity="0.0"
     inkscape:pagecheckerboard="0"
     showgrid="false"
     inkscape:zoom="0.5510461"
     inkscape:cx="1353.7887"
     inkscape:cy="911.90192"
     inkscape:window-width="1920"
     inkscape:window-height="991"
     inkscape:window-x="-9"
     inkscape:window-y="-9"
     inkscape:window-maximized="1"
     inkscape:current-layer="svg98" />
  <g
     id="g4">
    <path
       style="opacity:1"
       fill="#fefefe"
       d="M -0.5,-0.5 C 682.167,-0.5 1364.83,-0.5 2047.5,-0.5C 2047.5,682.167 2047.5,1364.83 2047.5,2047.5C 1364.83,2047.5 682.167,2047.5 -0.5,2047.5C -0.5,1364.83 -0.5,682.167 -0.5,-0.5 Z"
       id="path2" />
  </g>
  <g
     id="g8">
    <path
       style="opacity:1"
       fill="#040503"
       d="M 903.5,583.5 C 908.338,588.176 911.338,593.842 912.5,600.5C 937.717,590.863 955.217,598.53 965,623.5C 965.79,629.552 965.624,635.552 964.5,641.5C 1007.13,664.975 1034.63,700.309 1047,747.5C 1047.67,752.833 1047.67,758.167 1047,763.5C 1046.33,764.833 1045.67,766.167 1045,767.5C 1026.86,771.227 1009.7,768.394 993.5,759C 990.215,752.981 987.215,746.814 984.5,740.5C 980.978,743.75 977.311,746.75 973.5,749.5C 985.325,768.893 982.991,786.393 966.5,802C 961.923,804.747 957.09,806.914 952,808.5C 954.438,823.517 950.272,836.351 939.5,847C 933.54,851.326 926.873,853.826 919.5,854.5C 924.475,861.31 929.642,867.976 935,874.5C 954.333,896.5 973.667,918.5 993,940.5C 1004.05,952.047 1015.55,963.047 1027.5,973.5C 1032.08,965.334 1036.92,957.334 1042,949.5C 1053.62,934.874 1065.62,920.541 1078,906.5C 1096.75,882.006 1111.08,855.006 1121,825.5C 1121.5,823.527 1121.66,821.527 1121.5,819.5C 1111.25,820.856 1101.75,818.856 1093,813.5C 1080.91,820.991 1067.74,823.824 1053.5,822C 1042.65,818.489 1037.65,810.989 1038.5,799.5C 1040.31,778.555 1048.14,760.221 1062,744.5C 1066.68,739.748 1071.35,735.081 1076,730.5C 1076.33,725.5 1076.67,720.5 1077,715.5C 1077.81,712.554 1079.14,709.888 1081,707.5C 1085.23,702.654 1090.06,698.654 1095.5,695.5C 1087.83,678.31 1092.5,665.477 1109.5,657C 1114.36,655.327 1119.36,654.494 1124.5,654.5C 1124.42,635.653 1133.75,625.32 1152.5,623.5C 1159.16,623.463 1165.32,625.13 1171,628.5C 1180.39,612.063 1194.22,606.563 1212.5,612C 1219.25,615.58 1224.91,620.414 1229.5,626.5C 1246.68,621.609 1259.51,626.943 1268,642.5C 1270.31,650.173 1269.48,657.506 1265.5,664.5C 1305.46,682.762 1337.96,710.095 1363,746.5C 1366.77,752.603 1370.1,758.937 1373,765.5C 1377.91,782.423 1373.41,796.256 1359.5,807C 1338.68,820.793 1315.68,827.626 1290.5,827.5C 1270.13,826.825 1250.46,822.825 1231.5,815.5C 1230.66,835.649 1220.66,848.315 1201.5,853.5C 1198.15,853.335 1194.82,853.502 1191.5,854C 1192.04,854.717 1192.71,855.217 1193.5,855.5C 1239.5,883.833 1285.5,912.167 1331.5,940.5C 1339.54,945.846 1347.54,951.18 1355.5,956.5C 1320.51,967.264 1285.51,967.097 1250.5,956C 1218.75,946.63 1190.41,931.297 1165.5,910C 1158.26,903.431 1151.76,896.265 1146,888.5C 1148.61,901.05 1153.94,912.383 1162,922.5C 1177.02,940.773 1196.18,952.606 1219.5,958C 1240.8,963.027 1262.13,967.86 1283.5,972.5C 1308.4,979.44 1332.4,988.94 1355.5,1001C 1378.74,1015.58 1398.08,1034.24 1413.5,1057C 1408.63,1065.25 1403.63,1073.42 1398.5,1081.5C 1441.44,1111.98 1485.44,1140.98 1530.5,1168.5C 1530.83,1167.5 1531.17,1166.5 1531.5,1165.5C 1530.04,1152.21 1529.04,1138.87 1528.5,1125.5C 1526.49,1102.33 1536.49,1094.17 1558.5,1101C 1566.14,1104 1568.64,1109.5 1566,1117.5C 1558.34,1141.66 1547.84,1164.49 1534.5,1186C 1490.51,1174.5 1446.51,1162.67 1402.5,1150.5C 1399.04,1159.24 1392.71,1164.74 1383.5,1167C 1390.32,1177.39 1391.16,1188.22 1386,1199.5C 1381.11,1206.88 1374.28,1211.22 1365.5,1212.5C 1367.19,1230.3 1359.52,1241.8 1342.5,1247C 1338.83,1247.33 1335.17,1247.67 1331.5,1248C 1329.51,1262.32 1321.51,1271.32 1307.5,1275C 1300.78,1275.54 1294.11,1275.54 1287.5,1275C 1278.11,1291.8 1264.11,1297.47 1245.5,1292C 1242.71,1290.7 1240.04,1289.2 1237.5,1287.5C 1222.5,1299.85 1206.83,1300.68 1190.5,1290C 1189,1288.5 1187.5,1287 1186,1285.5C 1182.46,1288.6 1178.46,1290.94 1174,1292.5C 1176.9,1328.16 1180.07,1363.83 1183.5,1399.5C 1200.52,1406.18 1217.19,1413.68 1233.5,1422C 1240.51,1425.51 1245.18,1431.01 1247.5,1438.5C 1322.51,1439.85 1397.51,1441.51 1472.5,1443.5C 1468.5,1444.17 1464.5,1444.83 1460.5,1445.5C 1172.51,1451.48 884.506,1451.48 596.5,1445.5C 590.5,1444.83 584.5,1444.17 578.5,1443.5C 664.829,1441.41 751.162,1439.74 837.5,1438.5C 857.997,1439.14 878.663,1439.14 899.5,1438.5C 901.833,1425.83 904.166,1413.17 906.5,1400.5C 917.435,1360.51 928.102,1320.34 938.5,1280C 845.35,1265.43 765.35,1225.43 698.5,1160C 696.833,1159.33 695.167,1159.33 693.5,1160C 638.398,1175.73 583.231,1191.23 528,1206.5C 525.497,1206.01 523.497,1204.68 522,1202.5C 520.71,1200.21 519.043,1198.21 517,1196.5C 516.517,1195.55 516.351,1194.55 516.5,1193.5C 519.912,1192.96 522.912,1191.62 525.5,1189.5C 530.891,1187.31 536.224,1184.81 541.5,1182C 579.918,1159.71 618.418,1137.54 657,1115.5C 657.315,1114.09 656.982,1112.76 656,1111.5C 643.839,1095.18 632.672,1078.18 622.5,1060.5C 682.862,1028.15 744.528,998.817 807.5,972.5C 825.004,966.838 840.171,957.504 853,944.5C 861.339,933.83 866.339,921.83 868,908.5C 837.128,939.354 799.962,958.187 756.5,965C 730.25,968.343 704.584,965.843 679.5,957.5C 679.414,956.504 679.748,955.671 680.5,955C 687.987,950.337 695.32,945.504 702.5,940.5C 745.975,912.927 789.308,885.093 832.5,857C 810.793,851.623 798.626,837.79 796,815.5C 763.911,819.852 734.744,812.686 708.5,794C 693.359,781.546 684.026,765.713 680.5,746.5C 681.69,734.123 686.19,723.123 694,713.5C 722.328,680.741 756.494,655.908 796.5,639C 793.9,625.132 797.566,613.132 807.5,603C 819.89,593.518 833.223,592.018 847.5,598.5C 850.044,592.959 853.378,587.959 857.5,583.5C 872.872,572.84 888.205,572.84 903.5,583.5 Z"
       id="path6" />
  </g>
  <g
     id="g12">
    <path
       style="opacity:1"
       fill="#fcfcfc"
       d="M 873.5,581.5 C 894.286,578.974 905.953,587.974 908.5,608.5C 915.821,605.357 923.488,603.024 931.5,601.5C 949.041,604.377 958.708,614.71 960.5,632.5C 960.095,638.455 958.595,644.122 956,649.5C 956.076,660.481 958.076,671.147 962,681.5C 968.225,698.948 974.725,716.281 981.5,733.5C 980.103,736.406 978.103,738.906 975.5,741C 971.172,742.829 967.172,745.162 963.5,748C 976.843,760.421 979.01,774.588 970,790.5C 963.118,799.107 954.118,803.44 943,803.5C 949.496,818.273 946.996,831.44 935.5,843C 927.014,848.853 918.014,849.853 908.5,846C 904.613,843.615 901.613,840.448 899.5,836.5C 895.77,841.066 891.103,844.233 885.5,846C 881.025,846.467 876.691,845.801 872.5,844C 869.462,842.151 866.462,840.318 863.5,838.5C 846.012,854.468 828.512,854.468 811,838.5C 805.831,831.334 803.331,823.501 803.5,815C 848.873,805.422 881.039,779.588 900,737.5C 905.865,724.573 909.698,711.073 911.5,697C 911.506,694.7 911.006,692.534 910,690.5C 907.094,687.963 903.927,685.796 900.5,684C 883.5,676.5 866.5,669 849.5,661.5C 830.393,668.706 815.226,663.706 804,646.5C 796.847,627.291 802.013,612.458 819.5,602C 829.944,598.025 839.611,599.358 848.5,606C 850.134,606.494 851.801,606.66 853.5,606.5C 854.232,593.433 860.899,585.1 873.5,581.5 Z"
       id="path10" />
  </g>
  <g
     id="g20" />
  <g
     id="g24">
    <path
       style="opacity:1"
       fill="#fcfbfb"
       d="M 1194.5,615.5 C 1206.02,613.655 1215.19,617.322 1222,626.5C 1223.25,629.014 1223.75,631.68 1223.5,634.5C 1226.87,633.677 1230.2,632.511 1233.5,631C 1246.9,628.124 1256.74,632.624 1263,644.5C 1265.05,658.794 1259.22,668.294 1245.5,673C 1215.49,684.505 1185.82,696.838 1156.5,710C 1161.04,742.088 1174.71,769.755 1197.5,793C 1205.81,800.143 1214.81,806.31 1224.5,811.5C 1226.81,830.066 1219.14,842.232 1201.5,848C 1188.12,849.643 1178.45,844.476 1172.5,832.5C 1160.78,842.144 1148.12,843.644 1134.5,837C 1130.4,834.228 1127.9,830.395 1127,825.5C 1126.72,820.216 1126.55,815.05 1126.5,810C 1122.14,812.395 1117.31,813.895 1112,814.5C 1106.84,814.224 1102.17,812.557 1098,809.5C 1110.11,775.922 1122.28,742.256 1134.5,708.5C 1133.39,700.215 1128.72,696.715 1120.5,698C 1106.66,704.753 1093.99,713.253 1082.5,723.5C 1082.31,715.056 1085.98,708.556 1093.5,704C 1097.19,701.715 1101.19,700.548 1105.5,700.5C 1105.76,699.022 1105.43,697.689 1104.5,696.5C 1097.68,690.94 1095.52,683.94 1098,675.5C 1100.5,669 1105,664.5 1111.5,662C 1118.03,660.544 1124.53,660.044 1131,660.5C 1128.21,650.498 1130.38,641.665 1137.5,634C 1145.97,628.311 1154.97,627.311 1164.5,631C 1167.86,633.546 1171.53,635.379 1175.5,636.5C 1175.47,629.389 1178.47,623.889 1184.5,620C 1187.82,618.17 1191.15,616.67 1194.5,615.5 Z"
       id="path22" />
  </g>
  <g
     id="g28">
    <path
       style="opacity:1"
       fill="#e4dcda"
       d="M 797.5,665.5 C 809.177,667.557 819.677,672.224 829,679.5C 829.783,681.319 829.283,682.652 827.5,683.5C 818.381,677.108 808.381,672.608 797.5,670C 796.272,668.51 796.272,667.01 797.5,665.5 Z"
       id="path26" />
  </g>
  <g
     id="g32">
    <path
       style="opacity:1"
       fill="#e5dcdb"
       d="M 1259.5,688.5 C 1266.24,688.171 1272.91,688.671 1279.5,690C 1281.59,690.953 1281.93,692.286 1280.5,694C 1268.42,691.582 1257.42,693.915 1247.5,701C 1245.09,703.285 1242.59,705.451 1240,707.5C 1238.32,706.534 1237.66,705.201 1238,703.5C 1243.83,696.355 1251,691.355 1259.5,688.5 Z"
       id="path30" />
  </g>
  <g
     id="g36">
    <path
       style="opacity:1"
       fill="#e4dddc"
       d="M 848.5,695.5 C 860.361,698.518 870.527,704.518 879,713.5C 879.483,714.448 879.649,715.448 879.5,716.5C 878.127,716.657 876.793,716.49 875.5,716C 867.546,708.721 858.546,703.054 848.5,699C 847.316,697.855 847.316,696.688 848.5,695.5 Z"
       id="path34" />
  </g>
  <g
     id="g40">
    <path
       style="opacity:1"
       fill="#e6dfde"
       d="M 1201.5,705.5 C 1207.91,705.183 1214.24,705.683 1220.5,707C 1223.12,707.576 1223.79,708.91 1222.5,711C 1216.22,710.465 1209.89,710.465 1203.5,711C 1200.55,711.806 1197.89,713.139 1195.5,715C 1191.47,719.368 1187.13,723.368 1182.5,727C 1180.92,727.388 1179.59,726.888 1178.5,725.5C 1184.36,716.632 1192.03,709.965 1201.5,705.5 Z"
       id="path38" />
  </g>
  <g
     id="g44">
    <path
       style="opacity:1"
       fill="#e2dbda"
       d="M 698.5,743.5 C 702.199,749.058 705.533,754.892 708.5,761C 716.584,764.473 724.584,768.14 732.5,772C 733.821,773.545 733.488,774.711 731.5,775.5C 724.485,772.409 717.319,769.742 710,767.5C 706.133,769.353 702.799,772.02 700,775.5C 699.626,774.584 699.126,773.75 698.5,773C 700.996,770.344 702.996,767.344 704.5,764C 701.98,757.79 699.313,751.624 696.5,745.5C 697.243,744.818 697.909,744.151 698.5,743.5 Z"
       id="path42" />
  </g>
  <g
     id="g48">
    <path
       style="opacity:1"
       fill="#e1d9d8"
       d="M 1355.5,776.5 C 1358.08,776.722 1358.91,778.055 1358,780.5C 1353.36,783.641 1348.86,786.974 1344.5,790.5C 1344.17,791.5 1343.83,792.5 1343.5,793.5C 1344.35,798.475 1345.02,803.475 1345.5,808.5C 1345.59,810.712 1345.09,812.712 1344,814.5C 1341.6,807.368 1339.77,800.035 1338.5,792.5C 1332.06,792.537 1325.72,791.704 1319.5,790C 1318.17,789 1318.17,788 1319.5,787C 1326.48,787.331 1333.48,787.331 1340.5,787C 1345.4,783.248 1350.4,779.748 1355.5,776.5 Z"
       id="path46" />
  </g>
  <g
     id="g52">
    <path
       style="opacity:1"
       fill="#f1b7ac"
       d="M 1123.5,835.5 C 1126.56,837.051 1129.23,839.218 1131.5,842C 1135.58,843.744 1139.58,845.577 1143.5,847.5C 1134.63,870.828 1136.79,893.161 1150,914.5C 1166.93,940.735 1190.76,957.235 1221.5,964C 1244.24,969.019 1266.91,974.353 1289.5,980C 1320.21,987.994 1348.21,1001.33 1373.5,1020C 1385.94,1031.1 1396.94,1043.44 1406.5,1057C 1379.36,1105.53 1345.03,1148.53 1303.5,1186C 1265.73,1218.73 1222.73,1242.39 1174.5,1257C 1142.69,1265.46 1110.36,1268.46 1077.5,1266C 1075.32,1265.84 1073.49,1265 1072,1263.5C 1032,1193.49 1013.33,1118.16 1016,1037.5C 1019.49,1002.54 1031.83,971.206 1053,943.5C 1074.08,921.763 1092.08,897.763 1107,871.5C 1113.33,859.837 1118.83,847.837 1123.5,835.5 Z"
       id="path50" />
  </g>
  <g
     id="g56">
    <path
       style="opacity:1"
       fill="#e47d19"
       d="M 897.5,847.5 C 901.771,849.297 906.104,851.13 910.5,853C 934.667,881.167 958.833,909.333 983,937.5C 996,951.833 1009.67,965.5 1024,978.5C 1024.17,979.167 1024.33,979.833 1024.5,980.5C 1010.8,1016.34 1006.3,1053.34 1011,1091.5C 1014.24,1121.94 1020.4,1151.78 1029.5,1181C 1017.62,1213.97 1004.95,1246.64 991.5,1279C 849.746,1271.89 736.913,1211.72 653,1098.5C 644.906,1086.9 637.406,1074.9 630.5,1062.5C 691.11,1030.36 753.11,1001.19 816.5,975C 828.821,969.846 840.154,963.179 850.5,955C 865.944,938.267 875.111,918.434 878,895.5C 886.272,882.015 890.939,867.348 892,851.5C 894.167,850.512 896,849.179 897.5,847.5 Z"
       id="path54" />
  </g>
  <g
     id="g60">
    <path
       style="opacity:1"
       fill="#7f7f7f"
       d="M 1201.5,853.5 C 1198.83,854.167 1196.17,854.833 1193.5,855.5C 1192.71,855.217 1192.04,854.717 1191.5,854C 1194.82,853.502 1198.15,853.335 1201.5,853.5 Z"
       id="path58" />
  </g>
  <g
     id="g64">
    <path
       style="opacity:1"
       fill="#bd8645"
       d="M 702.5,940.5 C 695.32,945.504 687.987,950.337 680.5,955C 679.748,955.671 679.414,956.504 679.5,957.5C 669.624,951.77 664.291,943.103 663.5,931.5C 676.382,931.709 688.882,934.043 701,938.5C 702.03,938.836 702.53,939.503 702.5,940.5 Z"
       id="path62" />
  </g>
  <g
     id="g68">
    <path
       style="opacity:1"
       fill="#bd8645"
       d="M 1355.5,956.5 C 1347.54,951.18 1339.54,945.846 1331.5,940.5C 1332.35,939.034 1333.68,938.2 1335.5,938C 1347.17,933.915 1359.17,931.748 1371.5,931.5C 1371.58,934.271 1371.08,936.937 1370,939.5C 1367.47,947.294 1362.63,952.96 1355.5,956.5 Z"
       id="path66" />
  </g>
  <g
     id="g72">
    <path
       style="opacity:1"
       fill="#fbfafa"
       d="M 1394.5,1086.5 C 1397.49,1088.21 1399.33,1090.88 1400,1094.5C 1401.5,1102.37 1400.17,1109.71 1396,1116.5C 1393.78,1118.38 1391.94,1120.55 1390.5,1123C 1397.62,1132.54 1398.79,1142.71 1394,1153.5C 1389.34,1158.57 1383.84,1162.24 1377.5,1164.5C 1382.35,1172.9 1384.18,1181.9 1383,1191.5C 1379.12,1201.87 1371.62,1207.53 1360.5,1208.5C 1361.85,1233.48 1349.85,1245.15 1324.5,1243.5C 1325.9,1257.63 1319.57,1266.47 1305.5,1270C 1298.08,1270.7 1290.75,1270.2 1283.5,1268.5C 1281.29,1277.22 1275.96,1283.38 1267.5,1287C 1256.69,1290.22 1246.86,1288.39 1238,1281.5C 1227.3,1291.19 1215.13,1294.02 1201.5,1290C 1196.34,1286.99 1191.34,1283.83 1186.5,1280.5C 1167.9,1293.04 1151.56,1290.71 1137.5,1273.5C 1129.52,1275.89 1121.52,1276.39 1113.5,1275C 1112.83,1274.33 1112.17,1273.67 1111.5,1273C 1166.12,1269.35 1216.45,1252.68 1262.5,1223C 1316.74,1187.31 1360.74,1141.81 1394.5,1086.5 Z"
       id="path70" />
  </g>
  <g
     id="g76">
    <path
       style="opacity:1"
       fill="#be8744"
       d="M 525.5,1189.5 C 522.912,1191.62 519.912,1192.96 516.5,1193.5C 502.233,1178.66 491.733,1161.33 485,1141.5C 483.282,1135.84 484.782,1131.34 489.5,1128C 497.858,1123.22 506.525,1122.55 515.5,1126C 517.041,1127.58 518.208,1129.41 519,1131.5C 523.323,1150.58 525.49,1169.91 525.5,1189.5 Z"
       id="path74" />
  </g>
  <g
     id="g80">
    <path
       style="opacity:1"
       fill="#fdfcfc"
       d="M 982.5,1286.5 C 986.937,1285.89 991.27,1285.22 995.5,1284.5C 1008.03,1253.59 1020.36,1222.59 1032.5,1191.5C 1042.68,1218.52 1055.01,1244.52 1069.5,1269.5C 1077.06,1271.09 1084.73,1271.93 1092.5,1272C 1120.6,1326.69 1148.93,1381.53 1177.5,1436.5C 1086.5,1437.83 995.5,1437.83 904.5,1436.5C 931.07,1386.69 957.07,1336.69 982.5,1286.5 Z"
       id="path78" />
  </g>
  <g
     id="g84">
    <path
       style="opacity:1"
       fill="#a18f8d"
       d="M 995.5,1284.5 C 991.27,1285.22 986.937,1285.89 982.5,1286.5C 986.373,1284.57 990.706,1283.9 995.5,1284.5 Z"
       id="path82" />
  </g>
  <g
     id="g88">
    <path
       style="opacity:1"
       fill="#bc8646"
       d="M 906.5,1400.5 C 904.166,1413.17 901.833,1425.83 899.5,1438.5C 878.663,1439.14 857.997,1439.14 837.5,1438.5C 840.5,1430.66 845.833,1424.83 853.5,1421C 870.96,1413.46 888.627,1406.63 906.5,1400.5 Z"
       id="path86" />
  </g>
  <g
     id="g92">
    <path
       style="opacity:1"
       fill="#b29894"
       d="M 578.5,1443.5 C 584.5,1444.17 590.5,1444.83 596.5,1445.5C 587.808,1445.83 579.141,1445.5 570.5,1444.5C 573.086,1443.52 575.753,1443.19 578.5,1443.5 Z"
       id="path90" />
  </g>
  <g
     id="g96">
    <path
       style="opacity:1"
       fill="#7e7e81"
       d="M 1472.5,1443.5 C 1475.19,1443.34 1477.85,1443.5 1480.5,1444C 1480,1444.5 1479.5,1445 1479,1445.5C 1473.04,1445.42 1466.88,1445.42 1460.5,1445.5C 1464.5,1444.83 1468.5,1444.17 1472.5,1443.5 Z"
       id="path94" />
  </g>
</svg>
