<?xml version="1.0" encoding="UTF-8" standalone="no"?>
<!-- Created with Inkscape (http://www.inkscape.org/) -->

<svg
   version="1.1"
   id="svg2"
   width="1456"
   height="816"
   viewBox="0 0 1456 816"
   sodipodi:docname="sheep.svg"
   inkscape:version="1.1.2 (b8e25be833, 2022-02-05)"
   xmlns:inkscape="http://www.inkscape.org/namespaces/inkscape"
   xmlns:sodipodi="http://sodipodi.sourceforge.net/DTD/sodipodi-0.dtd"
   xmlns="http://www.w3.org/2000/svg"
   xmlns:svg="http://www.w3.org/2000/svg">
  <defs
     id="defs6" />
  <sodipodi:namedview
     id="namedview4"
     pagecolor="#ffffff"
     bordercolor="#666666"
     borderopacity="1.0"
     inkscape:pageshadow="2"
     inkscape:pageopacity="0.0"
     inkscape:pagecheckerboard="0"
     showgrid="false"
     inkscape:zoom="0.46222527"
     inkscape:cx="408.89153"
     inkscape:cy="364.54086"
     inkscape:window-width="1920"
     inkscape:window-height="991"
     inkscape:window-x="-9"
     inkscape:window-y="-9"
     inkscape:window-maximized="1"
     inkscape:current-layer="g8" />
  <g
     inkscape:groupmode="layer"
     inkscape:label="Image"
     id="g8">
    <path
       style="fill:#000000;stroke-width:2.45229"
       d="m 450.10526,791.08326 c 0,-0.75835 11.05665,-17.03543 24.57035,-36.1713 34.49788,-48.8502 46.81918,-74.56079 58.98122,-123.07497 8.33836,-33.26148 20.19852,-70.96135 31.50883,-100.15696 l 2.70013,-6.96986 -9.63947,7.6346 c -21.51521,17.04034 -28.16882,18.5588 -81.67711,18.63977 -44.93124,0.0679 -48.83372,0.43084 -55.17657,5.13007 -13.12854,9.72653 -17.86092,19.70103 -17.86092,37.64562 0,18.26387 7.69732,64.5805 13.43539,80.8439 5.3537,15.17395 4.756,19.89505 -4.85237,38.32891 -5.09633,9.77741 -8.6049,20.0608 -8.63688,25.31417 -0.0297,4.86613 -2.318,13.81339 -5.08527,19.88281 l -5.03139,11.03532 -5.0812,-6.13073 c -7.88352,-9.5119 -16.44524,-29.80268 -20.3485,-48.22484 -2.72455,-12.85893 -3.56122,-37.63453 -3.59388,-106.42382 l -0.0426,-89.66293 6.7438,-6.45943 c 8.33282,-7.98145 20.12964,-13.03379 47.79441,-20.46931 11.78772,-3.16821 26.6854,-8.4398 33.10594,-11.71462 11.47869,-5.8548 36.4029,-26.27515 25.93556,-21.24899 -8.80616,4.22852 -22.32476,3.0922 -27.7495,-2.33254 -5.87034,-5.87035 -6.08541,-9.59285 -1.22614,-21.22272 4.85343,-11.6159 4.77944,-11.76652 -3.06537,-6.24121 -14.28212,10.05928 -26.11227,9.59476 -30.21123,-1.18625 -3.15597,-8.30091 0.97719,-23.03356 11.22571,-40.01399 9.32671,-15.45307 17.15692,-33.91275 15.21069,-35.85898 -0.72789,-0.72789 -7.53016,3.73202 -15.11615,9.91088 -17.21413,14.02113 -24.66282,14.70657 -29.66692,2.73009 -1.95431,-4.67735 -3.5533,-11.73407 -3.5533,-15.68159 0,-11.40147 8.88169,-37.1035 18.12423,-52.44827 4.67125,-7.75538 7.92328,-14.10068 7.22676,-14.10068 -0.69653,0 -6.93678,6.13475 -13.86718,13.63275 -6.93042,7.49801 -16.24297,15.88377 -20.69454,18.63499 -12.0821,7.46716 -15.31219,3.471 -15.31219,-18.94366 0,-33.40082 -11.73076,-37.64905 -77.72176,-28.14644 l -37.25892,5.36524 -11.25665,-4.97935 c -12.98747,-5.74496 -17.03019,-13.15128 -19.16329,-35.10731 -1.28515,-13.228 -0.87088,-14.64253 7.64828,-26.11543 18.25763,-24.58786 69.83509,-81.69251 82.2548,-91.06947 15.68642,-11.84339 31.81767,-19.182631 46.62238,-21.211854 7.7604,-1.063681 12.28395,-3.206641 14.76643,-6.995358 26.70025,-40.749709 74.95235,-69.911628 115.67771,-69.911628 28.66131,0 50.87184,7.755888 85.11522,29.722096 37.37207,23.973188 57.32922,29.729575 66.79773,19.26697 2.46949,-2.728739 4.57171,-8.794924 4.6716,-13.480395 0.21555,-10.111094 1.16631,-10.3935 7.18448,-2.134009 12.00647,16.478028 6.29885,37.297814 -12.50527,45.615767 -16.0696,7.108361 -34.29359,5.022861 -59.50898,-6.80999 -10.79244,-5.064571 -20.07145,-8.75527 -20.62,-8.201518 -2.01301,2.032067 44.38572,36.986319 58.43478,44.021579 26.34867,13.19441 50.11673,7.73752 66.17848,-15.19381 5.20732,-7.43449 6.76685,-4.88482 3.73298,6.10297 -3.14632,11.39509 -15.60102,25.83725 -26.04482,30.20095 -12.57434,5.25389 -31.16804,4.14212 -45.63634,-2.72871 -6.99746,-3.32303 -25.96503,-17.13828 -42.15016,-30.70061 -31.50148,-26.396615 -49.78057,-37.170465 -71.19467,-41.962734 -18.84581,-4.2175 -42.77763,0.279586 -61.70143,11.594461 -18.0421,10.78768 -32.15616,24.427843 -28.77509,27.808913 1.65696,1.65697 6.87201,-0.85349 15.85814,-7.63393 20.18194,-15.228196 32.43578,-19.817881 56.3044,-21.088904 32.78932,-1.746056 52.58734,7.869944 94.61003,45.952564 32.82993,29.75182 52.83656,39.79037 79.50269,39.89136 18.97409,0.0718 37.48088,-8.02486 47.55153,-20.80382 5.61362,-7.12332 6.34764,-7.44705 6.37169,-2.81023 0.0498,9.57706 -15.05133,28.19782 -29.33924,36.17761 -11.83817,6.61157 -16.23199,7.61137 -37.14072,8.45118 -30.00742,1.20525 -35.66746,-0.69983 -68.3956,-23.02086 -25.95888,-17.70432 -43.31711,-25.10034 -51.11537,-21.77935 -2.21898,0.94499 -21.01109,2.39808 -41.76025,3.22911 l -37.72579,1.51095 17.26958,11.89362 c 15.97266,11.00042 18.38056,11.89361 32.06317,11.89361 8.13646,0 20.35167,-1.84611 27.14489,-4.10244 20.42271,-6.78333 23.15346,-0.10471 7.08492,17.32763 -5.65465,6.13458 -15.2614,14.07238 -21.34833,17.63956 -10.6094,6.21751 -10.81809,6.55524 -5.04564,8.16532 3.31182,0.92375 20.55305,1.78956 38.3138,1.92399 34.06665,0.25789 40.05031,1.22144 40.05031,6.44938 0,4.92609 -11.91154,18.00296 -20.52352,22.53134 l -7.67784,4.03721 6.13073,1.76099 c 15.89789,4.56656 53.805,0.19471 76.63412,-8.83823 7.25023,-2.86877 5.17012,7.46451 -3.48755,17.32505 -4.27849,4.87292 -13.38262,12.07393 -20.2314,16.00221 l -12.45235,7.14235 14.07436,0.0221 c 17.05866,0.028 33.61602,-5.93038 54.75814,-19.705 21.36159,-13.91764 25.67539,-12.195 18.69767,7.46654 -1.47435,4.15433 -3.34591,5.51234 25.08768,-18.20356 9.33813,-7.78875 20.75406,-15.96184 25.36869,-18.16241 7.95938,-3.79556 8.5672,-3.75904 11.83598,0.71127 4.69423,6.41975 4.33328,12.03969 -1.50869,23.49094 -2.72494,5.34131 -4.23869,9.71147 -3.36389,9.71147 4.00006,0 30.1153,-16.7004 46.5999,-29.8001 23.24731,-18.47378 35.55941,-24.81913 48.15747,-24.81913 11.82672,0 19.00948,6.84159 19.00948,18.10652 0,3.89686 0.41608,7.08521 0.92463,7.08521 0.50854,0 13.47503,-6.01709 28.81443,-13.37132 43.33958,-20.77849 65.67882,-24.01181 78.35038,-11.34023 7.91592,7.91587 8.78223,12.97775 3.8416,22.44556 l -3.29653,6.31703 18.87578,-1.09272 c 14.73563,-0.85303 20.90433,-0.13022 28.12413,3.29588 10.5769,5.01908 19.1531,17.12315 17.3802,24.52949 -1.0266,4.28891 1.5988,6.25332 17.7256,13.26244 31.5306,13.70397 52.4002,12.79265 65.5739,-2.8634 7.3809,-8.77167 7.7224,-15.82285 1.1072,-22.86433 -6.5826,-7.00686 -4.0194,-12.88459 6.4777,-14.85385 10.8113,-2.02822 21.1171,2.30471 30.2663,12.72511 12.9766,14.77945 13.471,42.80667 1.0662,60.44365 -8.5998,12.22708 -22.9526,19.75733 -47.1658,24.74563 -9.9044,2.04046 -18.391,4.09285 -18.859,4.5609 -0.468,0.46802 1.2596,7.24843 3.8392,15.06759 10.3738,31.445 12.0667,81.04003 3.4689,101.61763 -3.1068,7.43567 -4.4105,8.32031 -10.865,7.37298 -6.6704,-0.979 -7.4733,-0.33711 -8.8663,7.08816 -1.9261,10.26686 3.7172,19.5442 14.6731,24.12184 4.3542,1.81929 17.7865,5.01511 29.8498,7.10189 18.0665,3.1252 22.8332,4.90767 27.0379,10.11036 2.8076,3.47394 12.0093,28.0501 20.4482,54.61367 25.7327,80.99929 27.9079,86.42899 47.782,119.26961 10.3044,17.02732 10.968,23.96524 3.0497,31.88355 -4.3357,4.33577 -6.1024,9.46241 -7.1172,20.65401 -1.536,16.9396 -8.4146,33.06827 -14.5889,34.20768 -6.5234,1.20383 -17.3968,-23.18149 -31.141,-69.83835 -20.863,-70.82339 -30.6736,-94.63809 -44.8108,-108.77521 -11.0026,-11.00255 -19.0801,-13.86425 -48.169,-17.06511 -27.8594,-3.06558 -39.5014,-6.51892 -58.917,-17.4764 -7.2287,-4.07963 -13.6295,-6.93111 -14.224,-6.3366 -2.76712,2.76709 7.8051,21.69525 16.4547,29.46024 13.0334,11.7003 12.5383,17.10898 -3.5195,38.45439 -15.4335,20.51558 -38.13245,64.725 -55.39568,107.89118 -13.06863,32.67782 -19.94115,41.68896 -31.79484,41.68896 -5.32653,0 -8.37036,2.23055 -13.38564,9.80917 l -6.49141,9.80916 h -23.26198 c -12.79407,8.2e-4 -23.26197,-0.51721 -23.26197,-1.15056 0,-0.63333 10.37452,-16.91042 23.05451,-36.17131 43.51295,-66.09613 77.3918,-129.43439 77.45948,-144.81462 0.0196,-4.46354 -3.18945,-10.35944 -9.34332,-17.16605 -21.66939,-23.96764 -30.26192,-41.18381 -34.1951,-68.51404 l -1.84101,-12.7923 -8.10135,12.62486 c -9.49632,14.79875 -26.57786,32.00697 -37.80225,38.08262 -10.02239,5.42503 -31.47303,5.60655 -46.76581,0.39578 -16.88776,-5.75423 -18.85935,-3.0883 -4.52071,6.11277 16.10175,10.33247 17.28601,18.15763 3.6126,23.87076 -15.63677,6.53345 -42.89144,-0.63983 -62.71408,-16.50601 l -9.19609,-7.36063 v 7.21009 c 0,8.1509 -3.4095,10.21313 -16.75355,10.13323 -13.26724,-0.0795 -26.8739,-7.26807 -44.30725,-23.40825 l -15.51013,-14.35964 -7.695,8.78511 c -30.79254,35.15474 -41.62473,46.43501 -60.10672,62.59306 -11.53433,10.08402 -23.71227,22.36794 -27.06205,27.29759 -9.79347,14.41239 -30.94878,65.70276 -38.82618,94.13284 -7.76933,28.04009 -13.11363,38.7442 -19.34402,38.7442 -2.13452,0 -7.15964,2.75883 -11.16693,6.13073 -6.79854,5.72061 -9.07794,6.13073 -34.07302,6.13073 -14.73288,0 -26.78705,-0.62048 -26.78705,-1.37885 z M 388.30751,169.08953 c 1.61851,-1.61852 2.94275,-5.99382 2.94275,-9.7229 0,-12.27451 -16.27726,-15.32538 -22.24751,-4.16988 -5.63851,10.53566 10.8185,22.37903 19.30476,13.89278 z"
       id="path845" />
  </g>
</svg>
