<?xml version="1.0" encoding="UTF-8" standalone="no"?>
<!-- Created with Inkscape (http://www.inkscape.org/) -->

<svg
   width="210mm"
   height="297mm"
   viewBox="0 0 210 297"
   version="1.1"
   id="svg5"
   inkscape:version="1.1.2 (b8e25be833, 2022-02-05)"
   sodipodi:docname="sheep_wedding2.svg"
   xmlns:inkscape="http://www.inkscape.org/namespaces/inkscape"
   xmlns:sodipodi="http://sodipodi.sourceforge.net/DTD/sodipodi-0.dtd"
   xmlns="http://www.w3.org/2000/svg"
   xmlns:svg="http://www.w3.org/2000/svg">
  <sodipodi:namedview
     id="namedview7"
     pagecolor="#ffffff"
     bordercolor="#666666"
     borderopacity="1.0"
     inkscape:pageshadow="2"
     inkscape:pageopacity="0.0"
     inkscape:pagecheckerboard="0"
     inkscape:document-units="mm"
     showgrid="false"
     inkscape:zoom="0.35545034"
     inkscape:cx="167.03053"
     inkscape:cy="100.0743"
     inkscape:window-width="1920"
     inkscape:window-height="991"
     inkscape:window-x="-9"
     inkscape:window-y="-9"
     inkscape:window-maximized="1"
     inkscape:current-layer="layer1"
     inkscape:rotation="-1" />
  <defs
     id="defs2" />
  <g
     inkscape:label="Warstwa 1"
     inkscape:groupmode="layer"
     id="layer1">
    <g
       style="clip-rule:evenodd;fill-rule:evenodd;image-rendering:optimizeQuality;shape-rendering:geometricPrecision;text-rendering:geometricPrecision"
       id="g14279"
       transform="matrix(0.26458333,0,0,0.26458333,-142.77097,-182.22209)">
      <g
         id="g12847" />
      <g
         id="g12851">
        <path
           style="opacity:1"
           fill="#0b0503"
           d="m 873.5,262.5 c 0.333,-0.667 0.667,-1.333 1,-2 4.623,-7.367 7.123,-15.367 7.5,-24 12.551,-5.218 21.884,-13.885 28,-26 1.275,-3.542 2.775,-6.875 4.5,-10 1.674,-3.054 2.174,-6.388 1.5,-10 -1.267,2.314 -2.434,4.648 -3.5,7 -6.991,13.824 -17.491,24.157 -31.5,31 -0.772,-0.145 -1.439,-0.478 -2,-1 -2.83,-8.665 -8.663,-13.998 -17.5,-16 24.2,-16.377 42.534,-37.877 55,-64.5 3.069,1.139 5.902,2.972 8.5,5.5 6.988,9.301 10.155,19.801 9.5,31.5 -0.346,27.69 -11.346,50.024 -33,67 -8.521,5.759 -17.854,9.592 -28,11.5 z"
           id="path12849" />
      </g>
      <g
         id="g12855">
        <path
           style="opacity:1"
           fill="#f3ebdb"
           d="m 861.5,211.5 c 8.837,2.002 14.67,7.335 17.5,16 0.561,0.522 1.228,0.855 2,1 14.009,-6.843 24.509,-17.176 31.5,-31 0.617,-0.111 1.117,-0.444 1.5,-1 0.49,1.293 0.657,2.627 0.5,4 -1.725,3.125 -3.225,6.458 -4.5,10 -6.116,12.115 -15.449,20.782 -28,26 -0.377,8.633 -2.877,16.633 -7.5,24 -1.975,0.322 -3.642,0.322 -5,0 4.847,-7.199 6.013,-14.865 3.5,-23 -2.526,12.184 -10.026,18.018 -22.5,17.5 -4.778,-2.367 -9.612,-4.534 -14.5,-6.5 0.603,4.879 2.603,9.212 6,13 0.667,3.333 0.667,6.667 0,10 -4.931,1.348 -9.764,1.015 -14.5,-1 1.484,3.973 2.484,8.14 3,12.5 -0.158,5.612 -3.158,8.278 -9,8 -8.719,0.159 -16.719,-2.341 -24,-7.5 0.574,6.349 -1.093,12.349 -5,18 -4.351,2.627 -9.018,3.46 -14,2.5 -3,-1.833 -6,-3.667 -9,-5.5 -0.333,0.333 -0.667,0.667 -1,1 3.318,5.367 3.818,11.034 1.5,17 -1.214,1.549 -2.714,2.715 -4.5,3.5 -7.597,1.892 -14.097,0.059 -19.5,-5.5 -2.911,-3.49 -5.578,-7.156 -8,-11 4.839,13.167 2.673,25.167 -6.5,36 -3.752,-0.525 -7.085,-1.692 -10,-3.5 2.144,3.324 5.144,5.158 9,5.5 1.279,1.468 2.946,2.135 5,2 0.667,0 1,0.333 1,1 -1.31,1.648 -2.643,3.314 -4,5 3.253,16.529 -3.413,25.529 -20,27 0.967,2.29 2.3,4.29 4,6 -0.971,1.462 -0.638,2.795 1,4 -0.739,-0.131 -1.406,0.036 -2,0.5 3.723,10.827 2.39,20.994 -4,30.5 -3.17,0.584 -6.337,1.25 -9.5,2 -1.107,-0.085 -2.107,-0.419 -3,-1 -1.316,6.961 -3.983,13.294 -8,19 -3.873,3.46 -8.206,4.46 -13,3 -2.358,12.353 -9.524,20.187 -21.5,23.5 -0.906,1.699 -1.239,3.533 -1,5.5 48.043,9.34 94.71,23.007 140,41 -1.073,0.751 -1.24,1.751 -0.5,3 9.575,6.031 12.908,14.698 10,26 -1.444,2.555 -2.611,5.221 -3.5,8 16.422,13.008 19.089,28.342 8,46 13.343,5.546 18.843,15.546 16.5,30 -2.067,5.133 -4.9,9.8 -8.5,14 19.018,14.7 21.018,31.533 6,50.5 16.04,7.534 25.373,20.034 28,37.5 0.294,9.534 -1.706,18.534 -6,27 -0.979,1.265 -1.979,2.599 -3,4 15.392,13.14 21.559,29.807 18.5,50 -1.808,6.589 -4.308,12.922 -7.5,19 22.703,21.387 24.703,44.387 6,69 -1.653,0.16 -2.986,0.826 -4,2 -41.113,-2.306 -75.279,-18.972 -102.5,-50 -14.107,-17.211 -25.94,-35.878 -35.5,-56 -4.568,10.795 -10.235,20.795 -17,30 -5.766,7.6 -12.432,14.434 -20,20.5 15.257,25.608 33.924,48.608 56,69 23.505,18.747 50.172,31.08 80,37 13.952,2.612 27.952,4.946 42,7 1.82,0.2 3.153,1.034 4,2.5 14.899,17.657 16.732,36.657 5.5,57 -3.357,3.86 -6.524,7.86 -9.5,12 16.459,16.12 18.959,34.12 7.5,54 -4.421,4.6 -9.254,8.6 -14.5,12 17.905,11.19 24.405,27.19 19.5,48 -4.348,12.87 -12.181,23.03 -23.5,30.5 16.357,18.46 17.191,37.63 2.5,57.5 -5.002,4.57 -10.502,8.24 -16.5,11 11.317,18.23 10.484,35.9 -2.5,53 -6.245,5.37 -13.412,9.04 -21.5,11 -0.333,0.67 -0.667,1.33 -1,2 9.13,30.23 -2.203,46.23 -34,48 2.115,11.29 1.282,22.29 -2.5,33 -6.361,10.02 -15.528,15.68 -27.5,17 -5,0 -10,0 -15,0 0,2.33 0,4.67 0,7 -1.548,15.05 -9.548,24.88 -24,29.5 -5.254,1.27 -10.587,1.77 -16,1.5 -1.871,5.41 -4.038,10.75 -6.5,16 -3.522,4.75 -7.688,8.75 -12.5,12 -12.844,5 -25.011,3.67 -36.5,-4 -12.066,10.54 -25.566,13.04 -40.5,7.5 -3.449,-2.04 -6.449,-4.54 -9,-7.5 -9.261,4.37 -18.261,3.87 -27,-1.5 -5.27,-4.6 -9.77,-9.76 -13.5,-15.5 -1.651,1.24 -3.485,2.08 -5.5,2.5 -5.657,0.5 -11.324,0.67 -17,0.5 -10.707,-5.07 -17.373,-13.4 -20,-25 -17.973,5.02 -29.306,-1.31 -34,-19 0,-4.33 0,-8.67 0,-13 1.121,-1.82 1.621,-3.82 1.5,-6 -27.469,-29.8 -51.469,-62.13 -72,-97 -26.277,-43.54 -50.777,-88.21 -73.5,-134 2.14,-3.31 4.474,-6.47 7,-9.5 -4.47,-3.16 -9.303,-3.99 -14.5,-2.5 -12.856,-13.95 -15.523,-29.61 -8,-47 6.957,-8.74 15.79,-14.91 26.5,-18.5 1.274,-0.98 1.274,-1.81 0,-2.5 -5.445,-7.89 -10.111,-16.22 -14,-25 -0.333,-2.67 -0.667,-5.33 -1,-8 2.562,-17.12 9.895,-31.79 22,-44 -2.712,-0.311 -5.712,-0.311 -9,0 6.624,-3.25 13.624,-5.75 21,-7.5 -11.269,-13.139 -16.102,-28.306 -14.5,-45.5 7.21,-21.681 22.377,-33.014 45.5,-34 -4.752,-29.806 7.581,-48.473 37,-56 -14.938,-34.688 -4.938,-59.188 30,-73.5 1.293,-0.49 2.627,-0.657 4,-0.5 -17.73,-26.514 -14.063,-49.681 11,-69.5 5.805,-3.239 11.805,-5.905 18,-8 -12.836,-18.758 -10.169,-34.758 8,-48 8.692,-4.705 18.025,-6.538 28,-5.5 -0.319,-3.636 -1.485,-6.969 -3.5,-10 -5.513,-31.99 7.987,-47.99 40.5,-48 -4.647,-16.871 1.02,-28.704 17,-35.5 6.547,-1.777 13.214,-2.777 20,-3 -2.979,-17.358 4.021,-28.691 21,-34 -4.098,-19.646 3.569,-31.813 23,-36.5 -5.888,-11.149 -8.555,-23.149 -8,-36 -11.343,0.492 -16.177,-4.841 -14.5,-16 0.849,-3.021 1.683,-6.021 2.5,-9 -0.483,-1.804 0.184,-3.471 2,-5 10.407,5.953 20.24,4.953 29.5,-3 3.263,-5.865 3.763,-11.865 1.5,-18 5.279,-5.479 10.779,-11.479 16.5,-18 2.951,-6.299 4.284,-12.966 4,-20 2.777,-6.443 7.277,-11.277 13.5,-14.5 6.92,-3.793 14.254,-6.46 22,-8 5.991,-2.638 8.658,-7.304 8,-14 -1.678,-2.325 -3.511,-4.158 -5.5,-5.5 -0.576,1.877 -0.409,3.711 0.5,5.5 -0.939,1.944 -2.273,3.611 -4,5 -8.491,4.078 -16.824,8.412 -25,13 -10.061,10.282 -16.894,22.448 -20.5,36.5 -4.228,5.223 -8.728,10.057 -13.5,14.5 5.595,20.228 -1.738,28.395 -22,24.5 2.933,2.238 2.599,3.238 -1,3 0.997,-4.502 2.331,-9.002 4,-13.5 -0.444,-1.762 -0.944,-1.595 -1.5,0.5 -0.29,-1.544 -0.956,-2.877 -2,-4 -6.817,6.315 -11.317,13.981 -13.5,23 -0.333,0.667 -0.667,1.333 -1,2 -1.238,0.912 -2.572,1.079 -4,0.5 -1.748,-2.013 -3.082,-4.18 -4,-6.5 0,-1.333 0,-2.667 0,-4 -7.148,0.009 -12.648,-2.991 -16.5,-9 -0.652,-3.094 -0.318,-6.094 1,-9 2.885,-2.548 5.385,-5.382 7.5,-8.5 -4.862,-3.361 -8.862,-7.528 -12,-12.5 0.667,-2.333 1.333,-4.667 2,-7 4.181,-3.92 9.181,-5.92 15,-6 -0.372,-9.35 -4.705,-16.016 -13,-20 0.739,0.131 1.406,-0.036 2,-0.5 4.428,-6.943 10.428,-11.776 18,-14.5 4,0 8,0 12,0 1.068,0.934 2.401,1.268 4,1 2.371,2.684 5.371,4.018 9,4 0,-1.333 0,-2.667 0,-4 -0.888,-2.554 -1.221,-5.221 -1,-8 0.967,-3.527 2.3,-7.027 4,-10.5 -1.655,-4.328 -3.655,-4.494 -6,-0.5 -1.874,2.415 -3.207,5.081 -4,8 -0.626,2.126 -1.959,3.793 -4,5 -0.676,-1.102 -1.342,-2.102 -2,-3 -0.444,-7.107 1.889,-13.107 7,-18 4.533,-5.522 10.2,-9.522 17,-12 0.739,0.131 1.406,-0.036 2,-0.5 -1.514,-2.587 -2.18,-5.42 -2,-8.5 -0.046,-3.886 0.621,-7.553 2,-11 1.126,-1.358 1.126,-2.692 0,-4 -5.513,-2.085 -9.18,-5.919 -11,-11.5 1.597,-3.931 4.264,-6.931 8,-9 6.888,-2.277 13.888,-4.111 21,-5.5 -3.379,-11.416 0.621,-18.583 12,-21.5 3.317,-0.498 6.65,-0.665 10,-0.5 5.823,-16.633 17.49,-23.466 35,-20.5 0.525,0.692 1.192,1.192 2,1.5 5.246,-15.454 15.912,-21.954 32,-19.5 8.325,-16.329 20.658,-20.662 37,-13 2.261,2.772 3.761,5.938 4.5,9.5 15.757,-7.311 28.757,-3.978 39,10 1.725,3.174 3.058,6.507 4,10 0.277,5.76 0.444,11.427 0.5,17 7.224,-3.937 14.891,-5.27 23,-4 z"
           id="path12853" />
      </g>
      <g
         id="g12859" />
      <g
         id="g12863" />
      <g
         id="g12867" />
      <g
         id="g12871">
        <path
           style="opacity:1"
           fill="#b4958a"
           d="m 914.5,200.5 c 0.157,-1.373 -0.01,-2.707 -0.5,-4 -0.383,0.556 -0.883,0.889 -1.5,1 1.066,-2.352 2.233,-4.686 3.5,-7 0.674,3.612 0.174,6.946 -1.5,10 z"
           id="path12869" />
      </g>
      <g
         id="g12875" />
      <g
         id="g12879">
        <path
           style="opacity:1"
           fill="#261917"
           d="m 846.5,223.5 c -0.667,0 -1,-0.333 -1,-1 4.787,-2.786 9.787,-5.119 15,-7 3.714,0.691 7.048,2.191 10,4.5 -8.085,0.915 -16.085,2.082 -24,3.5 z"
           id="path12877" />
      </g>
      <g
         id="g12883">
        <path
           style="opacity:1"
           fill="#7a4d47"
           d="m 845.5,222.5 c 0,0.667 0.333,1 1,1 -3.03,1.609 -5.863,3.609 -8.5,6 -0.507,-1.496 -0.007,-2.663 1.5,-3.5 1.888,-1.394 3.888,-2.56 6,-3.5 z"
           id="path12881" />
      </g>
      <g
         id="g12887" />
      <g
         id="g12891">
        <path
           style="opacity:1"
           fill="#decaae"
           d="m 786.5,232.5 c 1.294,0.79 2.461,1.79 3.5,3 0.333,-1 0.667,-2 1,-3 0.333,5 0.667,10 1,15 1.113,1.26 1.28,2.427 0.5,3.5 1.785,1.163 3.785,1.83 6,2 -1.63,1.213 -3.464,2.046 -5.5,2.5 -3.815,-1.239 -7.148,-3.239 -10,-6 -0.26,-5.96 0.907,-11.627 3.5,-17 z"
           id="path12889" />
      </g>
      <g
         id="g12895">
        <path
           style="opacity:1"
           fill="#180f0d"
           d="m 869.5,260.5 c -2.694,2.014 -5.694,3.514 -9,4.5 -4.87,0.602 -9.536,0.269 -14,-1 0.906,1.699 1.239,3.533 1,5.5 -0.333,1.333 -0.667,2.667 -1,4 -1.478,1.47 -2.811,3.137 -4,5 -1.333,-2.667 -2.667,-2.667 -4,0 -2.555,-2.751 -3.555,-2.084 -3,2 3.333,1 6.667,2 10,3 -0.667,0.667 -1.333,1.333 -2,2 -0.65,-0.304 -1.317,-0.637 -2,-1 -5.317,11.809 -14.317,16.309 -27,13.5 -4.378,-1.875 -8.378,-4.375 -12,-7.5 -0.827,3.959 -1.327,7.959 -1.5,12 -1.101,6.061 -4.767,8.727 -11,8 -3.409,-0.62 -6.742,-0.62 -10,0 -1.3,-1.207 -2.8,-1.874 -4.5,-2 0.612,3.663 0.779,7.33 0.5,11 -4.424,8.458 -11.258,11.291 -20.5,8.5 -3.079,-1.248 -5.746,-3.081 -8,-5.5 -2.043,4.917 -3.876,9.917 -5.5,15 -2.063,2.234 -4.229,4.234 -6.5,6 -2.054,0.135 -3.721,-0.532 -5,-2 0.333,-0.667 0.667,-1.333 1,-2 9.173,-10.833 11.339,-22.833 6.5,-36 2.422,3.844 5.089,7.51 8,11 5.403,5.559 11.903,7.392 19.5,5.5 1.786,-0.785 3.286,-1.951 4.5,-3.5 2.318,-5.966 1.818,-11.633 -1.5,-17 0.333,-0.333 0.667,-0.667 1,-1 3,1.833 6,3.667 9,5.5 4.982,0.96 9.649,0.127 14,-2.5 3.907,-5.651 5.574,-11.651 5,-18 7.281,5.159 15.281,7.659 24,7.5 5.842,0.278 8.842,-2.388 9,-8 -0.516,-4.36 -1.516,-8.527 -3,-12.5 4.736,2.015 9.569,2.348 14.5,1 0.667,-3.333 0.667,-6.667 0,-10 -3.397,-3.788 -5.397,-8.121 -6,-13 4.888,1.966 9.722,4.133 14.5,6.5 12.474,0.518 19.974,-5.316 22.5,-17.5 2.513,8.135 1.347,15.801 -3.5,23 z"
           id="path12893" />
      </g>
      <g
         id="g12899">
        <path
           style="opacity:1"
           fill="#decaae"
           d="m 743.5,245.5 c 1.614,1.956 3.281,3.956 5,6 1.144,4.932 2.978,9.599 5.5,14 1.572,2.063 3.405,2.729 5.5,2 1.412,1.306 3.079,2.14 5,2.5 -4.725,3.802 -9.891,4.302 -15.5,1.5 -0.95,0.522 -1.784,1.189 -2.5,2 -1.075,-2.402 -2.242,-4.736 -3.5,-7 -2.305,3.11 -4.805,3.443 -7.5,1 1.983,-2.484 4.15,-4.817 6.5,-7 0.411,-5.019 0.911,-10.019 1.5,-15 z"
           id="path12897" />
      </g>
      <g
         id="g12903">
        <path
           style="opacity:1"
           fill="#f2e9d9"
           d="m 1372.5,252.5 c 0.17,0.992 -0.16,1.658 -1,2 0,-0.667 -0.33,-1 -1,-1 -2.46,-2.807 -5.63,-4.141 -9.5,-4 -3.61,-0.073 -6.78,0.927 -9.5,3 -4.93,2.176 -8.26,5.843 -10,11 -2.46,3.778 -2.63,7.778 -0.5,12 3.31,-7.141 8.81,-11.474 16.5,-13 3.11,0.155 6.11,0.822 9,2 2.08,2.089 4.41,3.756 7,5 5.2,-4.176 11.2,-6.176 18,-6 13.88,3.054 21.71,11.72 23.5,26 7.73,-9.285 17.57,-13.118 29.5,-11.5 3.91,2.032 7.07,4.866 9.5,8.5 0.49,1.293 0.66,2.627 0.5,4 0,1.667 0,3.333 0,5 -0.15,1.052 0.02,2.052 0.5,3 5.74,-6.099 12.58,-7.599 20.5,-4.5 3.69,2.879 5.35,6.713 5,11.5 0,0.333 0,0.667 0,1 -0.65,1.935 -0.98,3.935 -1,6 6.26,-0.628 12.26,0.205 18,2.5 1.48,1.812 2.81,3.645 4,5.5 -0.13,0.876 0.2,1.543 1,2 6.92,-3.674 14.25,-4.841 22,-3.5 3.8,1.214 6.14,3.714 7,7.5 0.29,4.067 -1.04,7.4 -4,10 0.93,-2.613 1.1,-5.279 0.5,-8 -8.53,-6.629 -17.03,-6.462 -25.5,0.5 -1.86,4.339 -0.86,5.339 3,3 7.17,-1.83 12.5,0.503 16,7 2,0.613 3.66,0.113 5,-1.5 4,0 8,0 12,0 4.17,0.782 8,2.449 11.5,5 1.63,2.455 1.8,4.955 0.5,7.5 5.32,7.285 4.32,13.785 -3,19.5 -0.33,-0.167 -0.67,-0.333 -1,-0.5 3.05,-3.1 5.05,-6.767 6,-11 -1.07,-4.202 -3.74,-5.869 -8,-5 -1.41,5.755 -4.75,10.088 -10,13 7.59,2.903 14.92,6.403 22,10.5 3.95,2.271 6.28,5.604 7,10 0,1.667 0,3.333 0,5 -1.86,2.522 -3.86,5.022 -6,7.5 -1.33,0.333 -2.67,0.667 -4,1 0.61,0.87 1.44,1.37 2.5,1.5 24.33,-2 48.17,0.5 71.5,7.5 2.22,1.275 4.55,2.275 7,3 2.68,1.789 2.51,2.955 -0.5,3.5 -27.18,-7.867 -55.01,-11.533 -83.5,-11 -1.8,-1.731 -2.97,-3.397 -3.5,-5 -2.97,1.47 -5.47,3.47 -7.5,6 -1.18,-0.219 -2.18,0.114 -3,1 1.87,1.124 3.87,1.957 6,2.5 -0.05,1.351 0.45,2.518 1.5,3.5 15.31,-5.35 27.31,-1.35 36,12 0.5,1.973 0.66,3.973 0.5,6 -0.33,0 -0.67,0 -1,0 -1.32,-0.17 -2.49,0.163 -3.5,1 -0.19,-2.208 -0.69,-4.208 -1.5,-6 -2.18,-5.107 -6.18,-7.774 -12,-8 -4.02,0.146 -8.02,0.479 -12,1 -1.81,-0.009 -3.48,0.491 -5,1.5 2.31,0.497 4.64,0.663 7,0.5 3.98,0.521 7.98,0.854 12,1 2.43,1.553 4.43,3.553 6,6 -0.4,3.728 -2.07,6.728 -5,9 -4.51,0.833 -8.84,2.167 -13,4 6.22,3.223 10.22,8.223 12,15 -0.69,1.018 -1.36,2.018 -2,3 -2.63,1.251 -5.3,2.251 -8,3 -1.93,-0.269 -3.6,0.231 -5,1.5 2.82,3.147 5.98,5.98 9.5,8.5 1.01,1.525 1.51,3.192 1.5,5 0.6,2.627 1.1,5.293 1.5,8 0.38,0.556 0.88,0.889 1.5,1 3.15,7.565 2.48,14.732 -2,21.5 -7.88,1.958 -15.55,1.125 -23,-2.5 -2.76,18.456 -13.43,26.289 -32,23.5 -11.6,-4.093 -17.6,-12.26 -18,-24.5 -2.98,0.396 -5.65,-0.271 -8,-2 -2.06,-4.057 -3.4,-8.39 -4,-13 -6.51,2.354 -13.18,3.02 -20,2 -2.59,-5.336 -4.42,-11.003 -5.5,-17 -0.69,1.238 -1.19,1.238 -1.5,0 0.79,-1.294 1.79,-2.461 3,-3.5 -2.3,-1.124 -4.3,-2.624 -6,-4.5 -2.28,-7.198 -2.61,-14.532 -1,-22 -4.08,-1.202 -8.08,-2.702 -12,-4.5 -2.23,-1.638 -3.57,-3.805 -4,-6.5 -0.16,-1.699 0.01,-3.366 0.5,-5 0.66,2.313 1.16,4.646 1.5,7 1.54,2.592 3.87,3.592 7,3 1.33,0 2.67,0 4,0 0.95,0.652 2.12,0.986 3.5,1 1.68,-0.108 2.85,-0.775 3.5,-2 0,-0.667 0.33,-1 1,-1 1,0 2,0 3,0 -5.41,8.877 -6.24,18.21 -2.5,28 0.69,0.857 1.52,1.523 2.5,2 0.79,-1.27 1.79,-2.27 3,-3 1.71,1.135 2.38,2.802 2,5 -0.17,5.011 0,10.011 0.5,15 0.24,1.619 1.07,2.619 2.5,3 1.12,1.309 2.62,1.975 4.5,2 4.64,-0.985 9.14,-1.319 13.5,-1 1.2,3.234 2.53,6.401 4,9.5 2.64,2.209 5.47,2.709 8.5,1.5 0.39,7.163 2.39,13.829 6,20 2.17,1.433 4.34,2.766 6.5,4 0.11,0.617 0.44,1.117 1,1.5 4.52,0.814 8.85,0.647 13,-0.5 5.42,-1.894 9.92,-5.228 13.5,-10 1.59,-2.15 2.26,-4.483 2,-7 -0.72,-0.951 -1.55,-1.117 -2.5,-0.5 -3.8,3.81 -8.14,6.81 -13,9 -14.46,1.024 -20.46,-5.809 -18,-20.5 1.84,-1.008 3.17,-2.508 4,-4.5 -3.15,-0.589 -5.81,0.245 -8,2.5 -9.66,2.18 -13.83,-1.82 -12.5,-12 -4.22,3.552 -9.06,4.719 -14.5,3.5 -1.14,-1.145 -2.14,-2.312 -3,-3.5 -0.57,-2.469 -0.57,-4.802 0,-7 1.26,-3.587 1.76,-7.254 1.5,-11 -2.38,0.935 -4.88,1.268 -7.5,1 -1.17,-0.845 -2.5,-1.511 -4,-2 -2.89,-4.543 -3.72,-9.543 -2.5,-15 1.39,-5.943 4.22,-11.109 8.5,-15.5 -2.84,0.085 -5.17,1.251 -7,3.5 -1.67,0 -3.33,0 -5,0 -9.03,-0.533 -12.53,-5.2 -10.5,-14 3.84,-6.522 3,-7.356 -2.5,-2.5 -8.92,4.052 -17.92,4.385 -27,1 -6.5,-6.11 -6.5,-12.11 0,-18 -3.2,0.736 -6.54,1.236 -10,1.5 -10.15,0.087 -14.32,-4.913 -12.5,-15 1.69,-1.517 3.19,-3.184 4.5,-5 -0.67,-0.333 -1.33,-0.667 -2,-1 -7.58,3.035 -14.92,2.535 -22,-1.5 -2.57,-2.642 -3.9,-5.808 -4,-9.5 0.38,-3.608 1.22,-6.942 2.5,-10 -9.38,6.864 -18.38,6.53 -27,-1 -0.67,-3.422 -1.84,-6.589 -3.5,-9.5 -3.32,-0.498 -6.65,-0.665 -10,-0.5 -0.67,-3.344 -2.33,-6.011 -5,-8 0.2,-1.89 -0.46,-3.39 -2,-4.5 -9.53,-0.264 -16.86,-4.43 -22,-12.5 -1.49,-4.318 -3.49,-8.318 -6,-12 0,-0.333 0,-0.667 0,-1 0.1,-2.737 -0.23,-5.404 -1,-8 0.32,-14.479 7.32,-23.979 21,-28.5 5.6,-1.347 11.26,-2.18 17,-2.5 3.82,-19.758 15.82,-28.591 36,-26.5 4.3,0.947 6.96,3.447 8,7.5 z"
           id="path12901" />
      </g>
      <g
         id="g12907" />
      <g
         id="g12911">
        <path
           style="opacity:1"
           fill="#efdecc"
           d="m 1503.5,319.5 c -0.54,-0.06 -0.88,-0.393 -1,-1 4.87,-3.829 5.2,-7.995 1,-12.5 -7.79,-3.365 -15.46,-3.198 -23,0.5 0,-0.333 0,-0.667 0,-1 3.63,-3.591 5.96,-7.924 7,-13 -0.24,-3.074 -1.57,-5.574 -4,-7.5 -11.35,-1.159 -21.01,2.341 -29,10.5 0,-1.667 0,-3.333 0,-5 0.62,0.111 1.12,0.444 1.5,1 3.7,-5.384 3.7,-11.051 0,-17 -6.69,-5.422 -14.19,-6.922 -22.5,-4.5 -5.33,2.004 -10.17,4.837 -14.5,8.5 -2.39,-11.311 -8.89,-19.144 -19.5,-23.5 -2.31,-0.497 -4.64,-0.663 -7,-0.5 -5.81,-0.187 -11.48,0.48 -17,2 0,1.667 0,3.333 0,5 -0.62,0.111 -1.12,0.444 -1.5,1 -1.02,-2.635 -1.86,-5.302 -2.5,-8 0.84,-0.342 1.17,-1.008 1,-2 0.72,0.418 1.22,1.084 1.5,2 5.07,-4.473 11.07,-6.807 18,-7 14.24,0.93 23.9,7.93 29,21 13.74,-9.963 26.74,-9.297 39,2 2.05,4.639 2.88,9.306 2.5,14 7.23,-6.46 15.23,-7.627 24,-3.5 4.14,5.306 4.81,10.973 2,17 6.16,-0.361 11.83,0.972 17,4 3.15,4.05 3.82,8.55 2,13.5 -0.89,1.779 -2.23,3.112 -4,4 z"
           id="path12909" />
      </g>
      <g
         id="g12915" />
      <g
         id="g12919" />
      <g
         id="g12923" />
      <g
         id="g12927" />
      <g
         id="g12931" />
      <g
         id="g12935">
        <path
           style="opacity:1"
           fill="#090403"
           d="m 625.5,304.5 c -5.111,4.893 -7.444,10.893 -7,18 -0.397,1.025 -1.063,1.192 -2,0.5 -18.608,-18.134 -40.942,-28.468 -67,-31 -17.362,-0.86 -34.696,-0.526 -52,1 -0.457,0.414 -0.791,0.914 -1,1.5 13.086,3.381 26.42,4.881 40,4.5 16.159,1.165 31.826,4.498 47,10 4.974,2.286 9.974,4.62 15,7 0.333,0.333 0.667,0.667 1,1 -13.347,-0.301 -22.847,5.533 -28.5,17.5 -0.498,3.317 -0.665,6.65 -0.5,10 -34.235,-2.695 -63.401,-17.029 -87.5,-43 -4.169,-5.666 -7.835,-11.666 -11,-18 -0.667,-1.333 -0.667,-2.667 0,-4 18.205,-15.841 39.372,-22.008 63.5,-18.5 33.737,3.87 62.404,17.87 86,42 1.245,0.791 2.578,1.291 4,1.5 z"
           id="path12933" />
      </g>
      <g
         id="g12939">
        <path
           style="opacity:1"
           fill="#0b0503"
           d="m 1288.5,303.5 c 0.27,2.812 1.27,5.145 3,7 0,0.333 0,0.667 0,1 -0.53,5.005 1.47,9.005 6,12 5.14,8.07 12.47,12.236 22,12.5 1.54,1.11 2.2,2.61 2,4.5 -4.05,3.124 -8.72,4.457 -14,4 -36.47,-4.308 -65.3,-21.308 -86.5,-51 -6.21,-9.782 -9.04,-20.449 -8.5,-32 30.5,0.496 55.66,12.496 75.5,36 0.5,1.973 0.66,3.973 0.5,6 z"
           id="path12937" />
      </g>
      <g
         id="g12943">
        <path
           style="opacity:1"
           fill="#e3d2bf"
           d="m 869.5,260.5 c 1.358,0.322 3.025,0.322 5,0 -0.333,0.667 -0.667,1.333 -1,2 -2.828,2.248 -5.828,4.248 -9,6 -5.606,0.907 -11.273,1.24 -17,1 0.239,-1.967 -0.094,-3.801 -1,-5.5 4.464,1.269 9.13,1.602 14,1 3.306,-0.986 6.306,-2.486 9,-4.5 z"
           id="path12941" />
      </g>
      <g
         id="g12947">
        <path
           style="opacity:1"
           fill="#040101"
           d="m 864.5,268.5 c 4.792,6.626 10.459,12.46 17,17.5 35.451,19.453 68.117,42.786 98,70 14.455,13.779 26.62,29.279 36.5,46.5 13.53,23.618 17.19,48.618 11,75 -13.99,40.687 -42.652,61.02 -86,61 -34.07,-1.976 -66.57,-10.142 -97.5,-24.5 -13.519,-6.925 -26.853,-14.091 -40,-21.5 -0.762,-1.762 -2.096,-2.762 -4,-3 -31.578,-21.14 -60.911,-45.14 -88,-72 6.39,-9.506 7.723,-19.673 4,-30.5 0.594,-0.464 1.261,-0.631 2,-0.5 10.323,0.668 17.657,-3.665 22,-13 4.131,-4.851 5.631,-10.518 4.5,-17 -1,-0.667 -2,-1.333 -3,-2 -0.691,4.735 -1.358,9.402 -2,14 1.466,-3.529 2.466,-7.195 3,-11 0.766,4.94 -0.068,9.607 -2.5,14 -0.457,0.798 -1.124,1.131 -2,1 -3.167,2.998 -6.5,5.831 -10,8.5 -3.645,0.719 -7.312,1.219 -11,1.5 -1.7,-1.71 -3.033,-3.71 -4,-6 16.587,-1.471 23.253,-10.471 20,-27 1.357,-1.686 2.69,-3.352 4,-5 2.305,-1.489 4.638,-2.989 7,-4.5 2.167,-2.833 4.333,-5.667 6.5,-8.5 14.794,6.069 25.627,2.069 32.5,-12 0.904,-0.709 1.237,-1.709 1,-3 3.213,0.31 6.213,-0.023 9,-1 3.189,-1.013 6.023,-2.68 8.5,-5 2.233,-3.795 3.9,-7.795 5,-12 0.309,1.266 0.809,2.433 1.5,3.5 9.333,3.333 18.667,3.333 28,0 5.41,-2.731 8.41,-7.064 9,-13 -0.014,-1.385 -0.348,-2.551 -1,-3.5 0.667,-0.667 1.333,-1.333 2,-2 0.914,-3.228 1.247,-6.561 1,-10 0.333,-1.333 0.667,-2.667 1,-4 5.727,0.24 11.394,-0.093 17,-1 z"
           id="path12945" />
      </g>
      <g
         id="g12951" />
      <g
         id="g12955">
        <path
           style="opacity:1"
           fill="#dec2a7"
           d="m 664.5,290.5 c 1.303,-2.855 1.303,-5.855 0,-9 -4.201,1.624 -8.534,2.624 -13,3 -1.733,-4.231 -0.733,-7.731 3,-10.5 4.291,0.483 8.624,1.149 13,2 2.544,1.099 2.544,2.265 0,3.5 -0.667,4 -1.333,8 -2,12 -0.607,-0.124 -0.94,-0.457 -1,-1 z"
           id="path12953" />
      </g>
      <g
         id="g12959">
        <path
           style="opacity:1"
           fill="#dbcbbb"
           d="m 846.5,273.5 c 0.247,3.439 -0.086,6.772 -1,10 -3.333,-1 -6.667,-2 -10,-3 -0.555,-4.084 0.445,-4.751 3,-2 1.333,-2.667 2.667,-2.667 4,0 1.189,-1.863 2.522,-3.53 4,-5 z"
           id="path12957" />
      </g>
      <g
         id="g12963">
        <path
           style="opacity:1"
           fill="#e5d8c9"
           d="m 1225.5,276.5 c 2.03,-0.162 4.03,0.005 6,0.5 19,11.432 36.5,24.932 52.5,40.5 0.67,0.667 0.67,1.333 0,2 -4.55,-4.214 -9.38,-8.047 -14.5,-11.5 -10.76,-6.146 -21.43,-12.479 -32,-19 -3.83,-3.167 -7.67,-6.333 -11.5,-9.5 -0.48,-0.948 -0.65,-1.948 -0.5,-3 z"
           id="path12961" />
      </g>
      <g
         id="g12967">
        <path
           style="opacity:1"
           fill="#d28b72"
           d="m 656.5,277.5 c 1.382,1.301 3.048,2.134 5,2.5 -2.215,1.814 -4.548,2.314 -7,1.5 1.13,-1.122 1.797,-2.456 2,-4 z"
           id="path12965" />
      </g>
      <g
         id="g12971" />
      <g
         id="g12975" />
      <g
         id="g12979" />
      <g
         id="g12983" />
      <g
         id="g12987">
        <path
           style="opacity:1"
           fill="#e7daca"
           d="m 843.5,285.5 c 0.652,0.949 0.986,2.115 1,3.5 -0.59,5.936 -3.59,10.269 -9,13 -9.333,3.333 -18.667,3.333 -28,0 -0.691,-1.067 -1.191,-2.234 -1.5,-3.5 -1.1,4.205 -2.767,8.205 -5,12 -2.477,2.32 -5.311,3.987 -8.5,5 -3.333,0 -6.667,0 -10,0 0,1.333 0,2.667 0,4 -6.873,14.069 -17.706,18.069 -32.5,12 -2.167,2.833 -4.333,5.667 -6.5,8.5 -2.362,1.511 -4.695,3.011 -7,4.5 0,-0.667 -0.333,-1 -1,-1 2.271,-1.766 4.437,-3.766 6.5,-6 1.624,-5.083 3.457,-10.083 5.5,-15 2.254,2.419 4.921,4.252 8,5.5 9.242,2.791 16.076,-0.042 20.5,-8.5 0.279,-3.67 0.112,-7.337 -0.5,-11 1.7,0.126 3.2,0.793 4.5,2 3.258,-0.62 6.591,-0.62 10,0 6.233,0.727 9.899,-1.939 11,-8 0.173,-4.041 0.673,-8.041 1.5,-12 3.622,3.125 7.622,5.625 12,7.5 12.683,2.809 21.683,-1.691 27,-13.5 0.683,0.363 1.35,0.696 2,1 z"
           id="path12985" />
      </g>
      <g
         id="g12991" />
      <g
         id="g12995">
        <path
           style="opacity:1"
           fill="#ecdfce"
           d="m 618.5,322.5 c 0.658,0.898 1.324,1.898 2,3 2.041,-1.207 3.374,-2.874 4,-5 0,2.333 0,4.667 0,7 -1,0 -2,0 -3,0 -1.166,1.113 -2.833,1.113 -5,0 -0.453,-0.958 -1.119,-1.792 -2,-2.5 -16.44,-7.33 -29.273,-3.497 -38.5,11.5 -0.653,2.957 0.181,5.457 2.5,7.5 0.948,0.483 1.948,0.649 3,0.5 1.109,0.057 2.109,0.39 3,1 -1.519,0.91 -3.185,1.743 -5,2.5 1.354,3.875 3.354,7.375 6,10.5 -2.162,2.397 -4.829,4.064 -8,5 -1,-1.333 -2,-1.333 -3,0 -1.517,0.011 -2.684,0.677 -3.5,2 -3.731,5.11 -5.398,10.777 -5,17 1.315,1.816 2.815,3.483 4.5,5 4.572,1.354 8.905,3.188 13,5.5 -14.43,7.77 -15.764,17.437 -4,29 3.423,1.904 7.09,2.737 11,2.5 1.068,0.934 2.401,1.268 4,1 -0.16,1.699 0.006,3.366 0.5,5 2.086,2.903 3.919,5.903 5.5,9 0,0.333 0,0.667 0,1 -4.788,-2.129 -7.788,-5.796 -9,-11 -17.011,0.821 -25.178,-7.179 -24.5,-24 0.791,-4.219 2.625,-7.886 5.5,-11 -8.249,-3.836 -11.083,-10.17 -8.5,-19 2.325,-7.15 6.492,-12.983 12.5,-17.5 -2.171,-3.523 -3.338,-7.357 -3.5,-11.5 -0.708,-0.881 -1.542,-1.547 -2.5,-2 -0.165,-3.35 0.002,-6.683 0.5,-10 5.653,-11.967 15.153,-17.801 28.5,-17.5 -0.333,-0.333 -0.667,-0.667 -1,-1 -5.026,-2.38 -10.026,-4.714 -15,-7 -15.174,-5.502 -30.841,-8.835 -47,-10 -13.58,0.381 -26.914,-1.119 -40,-4.5 0.209,-0.586 0.543,-1.086 1,-1.5 17.304,-1.526 34.638,-1.86 52,-1 26.058,2.532 48.392,12.866 67,31 0.937,0.692 1.603,0.525 2,-0.5 z"
           id="path12993" />
      </g>
      <g
         id="g12999" />
      <g
         id="g13003" />
      <g
         id="g13007">
        <path
           style="opacity:1"
           fill="#daa48a"
           d="m 640.5,303.5 c 0,1.333 0.667,2 2,2 -1.818,2.067 -4.151,3.4 -7,4 -1.083,-0.865 -1.249,-1.865 -0.5,-3 1.741,-1.258 3.574,-2.258 5.5,-3 z"
           id="path13005" />
      </g>
      <g
         id="g13011" />
      <g
         id="g13015" />
      <g
         id="g13019" />
      <g
         id="g13023">
        <path
           style="opacity:1"
           fill="#784a43"
           d="m 792.5,315.5 c -2.787,0.977 -5.787,1.31 -9,1 0.237,1.291 -0.096,2.291 -1,3 0,-1.333 0,-2.667 0,-4 3.333,0 6.667,0 10,0 z"
           id="path13021" />
      </g>
      <g
         id="g13027" />
      <g
         id="g13031">
        <path
           style="opacity:1"
           fill="#dfc9ae"
           d="m 618.5,423.5 c -2.421,0.378 -4.754,1.045 -7,2 2.183,-9.019 6.683,-16.685 13.5,-23 1.044,1.123 1.71,2.456 2,4 0.556,-2.095 1.056,-2.262 1.5,-0.5 -1.669,4.498 -3.003,8.998 -4,13.5 3.599,0.238 3.933,-0.762 1,-3 20.262,3.895 27.595,-4.272 22,-24.5 4.772,-4.443 9.272,-9.277 13.5,-14.5 3.606,-14.052 10.439,-26.218 20.5,-36.5 8.176,-4.588 16.509,-8.922 25,-13 1.727,-1.389 3.061,-3.056 4,-5 -0.909,-1.789 -1.076,-3.623 -0.5,-5.5 1.989,1.342 3.822,3.175 5.5,5.5 0.658,6.696 -2.009,11.362 -8,14 -7.746,1.54 -15.08,4.207 -22,8 -6.223,3.223 -10.723,8.057 -13.5,14.5 0.284,7.034 -1.049,13.701 -4,20 -5.721,6.521 -11.221,12.521 -16.5,18 2.263,6.135 1.763,12.135 -1.5,18 -9.26,7.953 -19.093,8.953 -29.5,3 -1.816,1.529 -2.483,3.196 -2,5 z"
           id="path13029" />
      </g>
      <g
         id="g13035">
        <path
           style="opacity:1"
           fill="#180e0b"
           d="m 616.5,327.5 c -2,-0.333 -4,-0.667 -6,-1 -4.682,-0.162 -9.015,1.005 -13,3.5 -6.047,4.166 -11.38,8.999 -16,14.5 -1.052,0.149 -2.052,-0.017 -3,-0.5 -2.319,-2.043 -3.153,-4.543 -2.5,-7.5 9.227,-14.997 22.06,-18.83 38.5,-11.5 0.881,0.708 1.547,1.542 2,2.5 z"
           id="path13033" />
      </g>
      <g
         id="g13039" />
      <g
         id="g13043" />
      <g
         id="g13047" />
      <g
         id="g13051" />
      <g
         id="g13055">
        <path
           style="opacity:1"
           fill="#170e0b"
           d="m 621.5,327.5 c 1,0 2,0 3,0 0,0.667 0.333,1 1,1 1.681,1.508 3.681,2.508 6,3 0,1.333 0,2.667 0,4 -3.629,0.018 -6.629,-1.316 -9,-4 -0.333,-1.333 -0.667,-2.667 -1,-4 z"
           id="path13053" />
      </g>
      <g
         id="g13059" />
      <g
         id="g13063" />
      <g
         id="g13067" />
      <g
         id="g13071">
        <path
           style="opacity:1"
           fill="#decaae"
           d="m 1384.5,336.5 c 1.83,2.754 4.5,4.254 8,4.5 10.39,0.385 20.72,1.218 31,2.5 0.32,3.398 -0.01,6.732 -1,10 -4.47,-2.323 -9.14,-4.157 -14,-5.5 -7.72,-0.188 -15.38,-0.854 -23,-2 -1.33,-0.667 -2.33,-1.667 -3,-3 0.9,-2.087 1.56,-4.254 2,-6.5 z"
           id="path13069" />
      </g>
      <g
         id="g13075">
        <path
           style="opacity:1"
           fill="#947171"
           d="m 731.5,339.5 c -0.333,0.667 -0.667,1.333 -1,2 -3.856,-0.342 -6.856,-2.176 -9,-5.5 2.915,1.808 6.248,2.975 10,3.5 z"
           id="path13073" />
      </g>
      <g
         id="g13079">
        <path
           style="opacity:1"
           fill="#231410"
           d="m 1336.5,340.5 c 2.34,0.004 4.34,0.837 6,2.5 -2.22,3.144 -4.55,3.31 -7,0.5 0.61,-0.891 0.94,-1.891 1,-3 z"
           id="path13077" />
      </g>
      <g
         id="g13083" />
      <g
         id="g13087" />
      <g
         id="g13091">
        <path
           style="opacity:1"
           fill="#e4d7c8"
           d="m 864.5,344.5 c 1.725,0.343 2.225,1.343 1.5,3 -9.664,18.666 -24.497,31.166 -44.5,37.5 -6.582,0.81 -13.082,0.643 -19.5,-0.5 -0.772,-2.455 0.061,-4.122 2.5,-5 5.351,1.167 10.684,1 16,-0.5 18.345,-6.849 33.012,-18.349 44,-34.5 z"
           id="path13089" />
      </g>
      <g
         id="g13095">
        <path
           style="opacity:1"
           fill="#decaae"
           d="m 1427.5,347.5 c 3.22,4.78 5.72,10.114 7.5,16 10.78,21.642 28.28,31.142 52.5,28.5 8.47,-1.472 14.64,-5.972 18.5,-13.5 0.35,-11.326 -5.32,-17.326 -17,-18 -8.63,0.634 -13.3,5.301 -14,14 -4.82,-5.058 -4.65,-9.891 0.5,-14.5 12.83,-7.99 24.66,-6.823 35.5,3.5 6.73,16.389 1.9,28.222 -14.5,35.5 -25.38,5.898 -45.88,-1.602 -61.5,-22.5 -5.04,-8.964 -7.54,-18.631 -7.5,-29 z"
           id="path13093" />
      </g>
      <g
         id="g13099">
        <path
           style="opacity:1"
           fill="#030101"
           d="m 1317.5,351.5 c 0.67,2 1.33,4 2,6 1.05,3.882 3.38,6.715 7,8.5 4.83,1.958 9.83,3.124 15,3.5 -1.45,0.802 -3.12,1.302 -5,1.5 2.22,0.566 4.22,1.4 6,2.5 -0.3,2.104 0.03,4.104 1,6 2.12,-1.81 4.46,-3.143 7,-4 2,6.175 6,10.675 12,13.5 4.12,1.308 8.12,2.808 12,4.5 2.68,10.341 9.34,16.007 20,17 -0.14,14.775 7.2,21.608 22,20.5 4.35,-0.679 8.35,-2.179 12,-4.5 -0.29,2.235 0.04,4.235 1,6 0.43,2.695 1.77,4.862 4,6.5 3.92,1.798 7.92,3.298 12,4.5 -1.61,7.468 -1.28,14.802 1,22 0.76,4.511 0.76,8.178 0,11 -18.87,25.373 -41.21,47.206 -67,65.5 -8.59,6.116 -17.26,11.949 -26,17.5 -0.67,0 -1,0.333 -1,1 -27.5,14.999 -56.83,24.499 -88,28.5 -22.34,2.499 -44.01,-0.168 -65,-8 -24.36,-12.397 -38.86,-32.23 -43.5,-59.5 -2.01,-24.278 3.65,-46.611 17,-67 17.59,-26.257 39.76,-47.757 66.5,-64.5 25.07,-14.702 51.07,-27.535 78,-38.5 z"
           id="path13097" />
      </g>
      <g
         id="g13103">
        <path
           style="opacity:1"
           fill="#855b57"
           d="m 1317.5,351.5 c 0.34,-0.838 1.01,-1.172 2,-1 0,2.333 0,4.667 0,7 -0.67,-2 -1.33,-4 -2,-6 z"
           id="path13101" />
      </g>
      <g
         id="g13107">
        <path
           style="opacity:1"
           fill="#6a372e"
           d="m 739.5,373.5 c -0.992,0.172 -1.658,-0.162 -2,-1 0.876,0.131 1.543,-0.202 2,-1 2.432,-4.393 3.266,-9.06 2.5,-14 -0.534,3.805 -1.534,7.471 -3,11 0.642,-4.598 1.309,-9.265 2,-14 1,0.667 2,1.333 3,2 1.131,6.482 -0.369,12.149 -4.5,17 z"
           id="path13105" />
      </g>
      <g
         id="g13111">
        <path
           style="opacity:1"
           fill="#150d0b"
           d="m 1325.5,348.5 c 0.33,0 0.67,0 1,0 3.35,-0.165 6.68,0.002 10,0.5 1.66,2.911 2.83,6.078 3.5,9.5 8.62,7.53 17.62,7.864 27,1 -1.28,3.058 -2.12,6.392 -2.5,10 0.1,3.692 1.43,6.858 4,9.5 7.08,4.035 14.42,4.535 22,1.5 0.67,0.333 1.33,0.667 2,1 -1.31,1.816 -2.81,3.483 -4.5,5 -1.82,10.087 2.35,15.087 12.5,15 3.46,-0.264 6.8,-0.764 10,-1.5 -6.5,5.89 -6.5,11.89 0,18 9.08,3.385 18.08,3.052 27,-1 5.5,-4.856 6.34,-4.022 2.5,2.5 -2.03,8.8 1.47,13.467 10.5,14 0,0.667 0,1.333 0,2 -0.67,0 -1,0.333 -1,1 -2.22,0.869 -4.55,1.202 -7,1 -1.33,0 -2.67,0 -4,0 -1.85,-1.19 -3.69,-2.523 -5.5,-4 -0.38,0.556 -0.88,0.889 -1.5,1 -0.34,-2.354 -0.84,-4.687 -1.5,-7 -0.49,1.634 -0.66,3.301 -0.5,5 -0.96,-1.765 -1.29,-3.765 -1,-6 2.67,-1.501 2.51,-2.501 -0.5,-3 -6.66,2.399 -13.49,3.232 -20.5,2.5 -2.46,-1.458 -4.63,-3.291 -6.5,-5.5 -0.5,-4.655 -0.67,-9.321 -0.5,-14 -15.27,1.831 -21.93,-4.836 -20,-20 -6.63,0.642 -12.96,-0.191 -19,-2.5 -5.59,-4.337 -7.26,-9.837 -5,-16.5 -0.5,-0.333 -1,-0.667 -1.5,-1 -3.46,1.05 -6.96,1.217 -10.5,0.5 -5.79,-1.35 -11.46,-3.017 -17,-5 -4.58,-3.839 -5.25,-8.339 -2,-13.5 z"
           id="path13109" />
      </g>
      <g
         id="g13115" />
      <g
         id="g13119" />
      <g
         id="g13123">
        <path
           style="opacity:1"
           fill="#e1d2c3"
           d="m 1325.5,348.5 c -3.25,5.161 -2.58,9.661 2,13.5 5.54,1.983 11.21,3.65 17,5 3.54,0.717 7.04,0.55 10.5,-0.5 0.5,0.333 1,0.667 1.5,1 -2.26,6.663 -0.59,12.163 5,16.5 6.04,2.309 12.37,3.142 19,2.5 -1.93,15.164 4.73,21.831 20,20 -0.17,4.679 0,9.345 0.5,14 1.87,2.209 4.04,4.042 6.5,5.5 7.01,0.732 13.84,-0.101 20.5,-2.5 3.01,0.499 3.17,1.499 0.5,3 -3.65,2.321 -7.65,3.821 -12,4.5 -14.8,1.108 -22.14,-5.725 -22,-20.5 -10.66,-0.993 -17.32,-6.659 -20,-17 -3.88,-1.692 -7.88,-3.192 -12,-4.5 -6,-2.825 -10,-7.325 -12,-13.5 -2.54,0.857 -4.88,2.19 -7,4 -0.97,-1.896 -1.3,-3.896 -1,-6 6.89,-3.22 6.56,-4.553 -1,-4 -5.17,-0.376 -10.17,-1.542 -15,-3.5 -3.62,-1.785 -5.95,-4.618 -7,-8.5 0,-2.333 0,-4.667 0,-7 1.64,-1.581 3.64,-2.247 6,-2 z"
           id="path13121" />
      </g>
      <g
         id="g13127">
        <path
           style="opacity:1"
           fill="#5b2b21"
           d="m 1341.5,369.5 c 7.56,-0.553 7.89,0.78 1,4 -1.78,-1.1 -3.78,-1.934 -6,-2.5 1.88,-0.198 3.55,-0.698 5,-1.5 z"
           id="path13125" />
      </g>
      <g
         id="g13131" />
      <g
         id="g13135">
        <path
           style="opacity:1"
           fill="#8b3b2a"
           d="m 1550.5,380.5 c 2,1.333 3.67,3 5,5 -2.83,-0.569 -4.5,-2.236 -5,-5 z"
           id="path13133" />
      </g>
      <g
         id="g13139">
        <path
           style="opacity:1"
           fill="#d3bdab"
           d="m 737.5,372.5 c 0.342,0.838 1.008,1.172 2,1 -4.343,9.335 -11.677,13.668 -22,13 -1.638,-1.205 -1.971,-2.538 -1,-4 3.688,-0.281 7.355,-0.781 11,-1.5 3.5,-2.669 6.833,-5.502 10,-8.5 z"
           id="path13137" />
      </g>
      <g
         id="g13143" />
      <g
         id="g13147">
        <path
           style="opacity:1"
           fill="#140906"
           d="m 1542.5,385.5 c 1.1,-1.098 2.43,-1.265 4,-0.5 2.96,4.052 6.96,5.552 12,4.5 0.4,2.544 -0.27,4.711 -2,6.5 -2.69,-0.502 -5.36,-0.335 -8,0.5 0.49,-4.679 -1.51,-8.346 -6,-11 z"
           id="path13145" />
      </g>
      <g
         id="g13151">
        <path
           style="opacity:1"
           fill="#0d0705"
           d="m 1580.5,430.5 c 0.16,-2.027 0,-4.027 -0.5,-6 -8.69,-13.35 -20.69,-17.35 -36,-12 -1.05,-0.982 -1.55,-2.149 -1.5,-3.5 -2.13,-0.543 -4.13,-1.376 -6,-2.5 0.82,-0.886 1.82,-1.219 3,-1 3.65,-0.442 7.32,-0.776 11,-1 28.49,-0.533 56.32,3.133 83.5,11 3.01,-0.545 3.18,-1.711 0.5,-3.5 -2.45,-0.725 -4.78,-1.725 -7,-3 -23.33,-7 -47.17,-9.5 -71.5,-7.5 -1.06,-0.13 -1.89,-0.63 -2.5,-1.5 1.33,-0.333 2.67,-0.667 4,-1 2.14,-2.478 4.14,-4.978 6,-7.5 0.9,-0.709 1.24,-1.709 1,-3 1.29,0.237 2.29,-0.096 3,-1 20.42,-3.078 40.75,-2.578 61,1.5 14.98,3.313 26.65,11.313 35,24 -8,8.17 -17.67,13.504 -29,16 -17.95,3.975 -35.95,4.475 -54,1.5 z"
           id="path13149" />
      </g>
      <g
         id="g13155">
        <path
           style="opacity:1"
           fill="#8b5d56"
           d="m 1563.5,386.5 c 1.21,0.734 2.54,1.067 4,1 -0.71,0.904 -1.71,1.237 -3,1 0.24,1.291 -0.1,2.291 -1,3 0,-1.667 0,-3.333 0,-5 z"
           id="path13153" />
      </g>
      <g
         id="g13159">
        <path
           style="opacity:1"
           fill="#decaae"
           d="m 712.5,399.5 c 0.783,1.843 1.45,3.843 2,6 -2.699,3.533 -5.866,6.533 -9.5,9 -4.137,-0.934 -8.137,-2.268 -12,-4 -0.945,0.405 -1.612,1.072 -2,2 -1.776,-3.441 -3.943,-6.608 -6.5,-9.5 0.5,-0.5 1,-1 1.5,-1.5 5.123,1.406 10.289,2.739 15.5,4 3.064,-0.621 6.064,-1.455 9,-2.5 1.323,-0.816 1.989,-1.983 2,-3.5 z"
           id="path13157" />
      </g>
      <g
         id="g13163">
        <path
           style="opacity:1"
           fill="#cab19e"
           d="m 1550.5,404.5 c -3.68,0.224 -7.35,0.558 -11,1 2.03,-2.53 4.53,-4.53 7.5,-6 0.53,1.603 1.7,3.269 3.5,5 z"
           id="path13161" />
      </g>
      <g
         id="g13167">
        <path
           style="opacity:1"
           fill="#dec8ad"
           d="m 642.5,448.5 c 1.291,0.237 2.291,-0.096 3,-1 5.259,2.861 10.925,3.695 17,2.5 8.914,-5.98 10.08,-13.146 3.5,-21.5 -0.781,-1.444 -0.614,-2.777 0.5,-4 12.5,8.111 21.333,5.111 26.5,-9 0.667,1.333 1.667,2.333 3,3 -0.634,5.227 -2.467,10.06 -5.5,14.5 -5.72,1.962 -11.386,1.795 -17,-0.5 1.212,9.199 -1.455,17.032 -8,23.5 -10.363,5.661 -18.029,3.161 -23,-7.5 z"
           id="path13165" />
      </g>
      <g
         id="g13171">
        <path
           style="opacity:1"
           fill="#dec9ae"
           d="m 711.5,417.5 c 27.089,26.86 56.422,50.86 88,72 0.194,2.412 1.527,3.412 4,3 2.283,3.297 4.616,6.631 7,10 -4.574,3.454 -9.574,6.121 -15,8 -45.29,-17.993 -91.957,-31.66 -140,-41 -0.239,-1.967 0.094,-3.801 1,-5.5 11.976,-3.313 19.142,-11.147 21.5,-23.5 4.794,1.46 9.127,0.46 13,-3 4.017,-5.706 6.684,-12.039 8,-19 0.893,0.581 1.893,0.915 3,1 3.163,-0.75 6.33,-1.416 9.5,-2 z"
           id="path13169" />
      </g>
      <g
         id="g13175" />
      <g
         id="g13179">
        <path
           style="opacity:1"
           fill="#9b7e7f"
           d="m 1550.5,418.5 c 0.67,0.667 1.33,1.333 2,2 -2.36,0.163 -4.69,-0.003 -7,-0.5 1.52,-1.009 3.19,-1.509 5,-1.5 z"
           id="path13177" />
      </g>
      <g
         id="g13183">
        <path
           style="opacity:1"
           fill="#2f1e1b"
           d="m 1562.5,417.5 c 5.82,0.226 9.82,2.893 12,8 0,1 0,2 0,3 -1.33,-0.333 -2.67,-0.667 -4,-1 -1.57,-2.447 -3.57,-4.447 -6,-6 -0.23,-1.562 -0.9,-2.895 -2,-4 z"
           id="path13181" />
      </g>
      <g
         id="g13187" />
      <g
         id="g13191">
        <path
           style="opacity:1"
           fill="#e7dacb"
           d="m 1372.5,449.5 c 2.24,-0.295 4.24,0.039 6,1 -20.88,9.665 -39.38,5.998 -55.5,-11 -3.07,-5.464 -5.57,-11.131 -7.5,-17 1.32,-0.17 2.49,0.163 3.5,1 4.47,9.808 11.64,16.975 21.5,21.5 10.14,4.088 20.8,5.588 32,4.5 z"
           id="path13189" />
      </g>
      <g
         id="g13195">
        <path
           style="opacity:1"
           fill="#decaae"
           d="m 1472.5,423.5 c 1.92,3.698 3.92,7.531 6,11.5 8.25,4.193 16.58,8.193 25,12 6.63,8.296 13.63,16.296 21,24 3.51,2.254 7.17,4.254 11,6 8.07,2.006 16.07,4.006 24,6 -3.98,2.436 -8.32,3.102 -13,2 -9.38,-2.024 -18.05,-5.691 -26,-11 -6.04,-6.373 -11.71,-13.04 -17,-20 -7.69,-5.461 -16.03,-9.794 -25,-13 -6.8,-4.151 -8.8,-9.984 -6,-17.5 z"
           id="path13193" />
      </g>
      <g
         id="g13199" />
      <g
         id="g13203">
        <path
           style="opacity:1"
           fill="#e5d7c8"
           d="m 999.5,428.5 c 1,-0.03 1.66,0.47 2,1.5 -3.522,13.105 -8.856,25.272 -16,36.5 2.039,15.933 3.206,31.933 3.5,48 -0.893,1.211 -1.726,1.211 -2.5,0 -2.985,-12.109 -4.818,-24.443 -5.5,-37 -0.661,-3.446 -1.495,-6.779 -2.5,-10 -8.84,-3.056 -17.84,-5.723 -27,-8 -4.205,-2.269 -8.538,-4.269 -13,-6 -0.886,-0.825 -1.219,-1.825 -1,-3 14.472,2.941 28.972,5.941 43.5,9 2.575,-2.819 4.908,-5.819 7,-9 3.224,-7.704 7.057,-15.038 11.5,-22 z"
           id="path13201" />
      </g>
      <g
         id="g13207">
        <path
           style="opacity:1"
           fill="#dbb9a0"
           d="m 1574.5,425.5 c 0.81,1.792 1.31,3.792 1.5,6 1.01,-0.837 2.18,-1.17 3.5,-1 -0.68,6.667 -4.02,11.334 -10,14 -1.54,-0.801 -3.21,-1.134 -5,-1 3.37,-2.374 6.04,-5.374 8,-9 1.57,-1.602 2.24,-3.602 2,-6 0,-1 0,-2 0,-3 z"
           id="path13205" />
      </g>
      <g
         id="g13211" />
      <g
         id="g13215" />
      <g
         id="g13219">
        <path
           style="opacity:1"
           fill="#714139"
           d="m 1438.5,437.5 c -3.13,0.592 -5.46,-0.408 -7,-3 0.62,-0.111 1.12,-0.444 1.5,-1 1.81,1.477 3.65,2.81 5.5,4 z"
           id="path13217" />
      </g>
      <g
         id="g13223">
        <path
           style="opacity:1"
           fill="#87574e"
           d="m 1450.5,433.5 c 1.67,0 3.33,0 5,0 -0.67,0.667 -1.33,1.333 -2,2 -1,0 -2,0 -3,0 0,-0.667 0,-1.333 0,-2 z"
           id="path13221" />
      </g>
      <g
         id="g13227" />
      <g
         id="g13231" />
      <g
         id="g13235">
        <path
           style="opacity:1"
           fill="#835148"
           d="m 1449.5,436.5 c -0.65,1.225 -1.82,1.892 -3.5,2 -1.38,-0.014 -2.55,-0.348 -3.5,-1 2.45,0.202 4.78,-0.131 7,-1 z"
           id="path13233" />
      </g>
      <g
         id="g13239">
        <path
           style="opacity:1"
           fill="#ead5c0"
           d="m 600.5,440.5 c 3.758,-0.105 7.092,0.895 10,3 -0.311,0.978 -0.978,1.645 -2,2 -3.373,-0.679 -6.04,-2.346 -8,-5 z"
           id="path13237" />
      </g>
      <g
         id="g13243">
        <path
           style="opacity:1"
           fill="#daab91"
           d="m 639.5,444.5 c 0.988,1.295 1.988,2.628 3,4 -0.617,1.821 -0.784,3.821 -0.5,6 -2.164,-2.947 -2.998,-6.281 -2.5,-10 z"
           id="path13241" />
      </g>
      <g
         id="g13247">
        <path
           style="opacity:1"
           fill="#845b57"
           d="m 1372.5,449.5 c 2.19,-1.297 4.53,-1.297 7,0 -0.12,0.607 -0.46,0.94 -1,1 -1.76,-0.961 -3.76,-1.295 -6,-1 z"
           id="path13245" />
      </g>
      <g
         id="g13251" />
      <g
         id="g13255" />
      <g
         id="g13259">
        <path
           style="opacity:1"
           fill="#5e2a1e"
           d="m 1456.5,460.5 c 1.5,0.489 2.83,1.155 4,2 -0.54,0.06 -0.88,0.393 -1,1 0.69,1.018 1.36,2.018 2,3 -1.11,0.057 -2.11,0.39 -3,1 0.38,-2.198 -0.29,-3.865 -2,-5 -1.01,-0.896 -1.01,-1.562 0,-2 z"
           id="path13257" />
      </g>
      <g
         id="g13263">
        <path
           style="opacity:1"
           fill="#211512"
           d="m 1466.5,472.5 c -1.62,-1.089 -2.45,-2.756 -2.5,-5 -0.67,-0.752 -1.5,-1.086 -2.5,-1 -0.64,-0.982 -1.31,-1.982 -2,-3 0.12,-0.607 0.46,-0.94 1,-1 2.62,0.268 5.12,-0.065 7.5,-1 0.26,3.746 -0.24,7.413 -1.5,11 z"
           id="path13261" />
      </g>
      <g
         id="g13267" />
      <g
         id="g13271">
        <path
           style="opacity:1"
           fill="#eedfcd"
           d="m 1566.5,466.5 c 2.82,3.86 3.66,8.193 2.5,13 -1.04,1.21 -2.21,2.21 -3.5,3 -0.84,-0.342 -1.17,-1.008 -1,-2 0,-0.333 0,-0.667 0,-1 1.1,-4.386 0.1,-8.386 -3,-12 0,-0.333 0,-0.667 0,-1 -0.03,-0.997 0.47,-1.664 1.5,-2 1.3,0.478 2.47,1.145 3.5,2 z"
           id="path13269" />
      </g>
      <g
         id="g13275">
        <path
           style="opacity:1"
           fill="#e6d8c9"
           d="m 1191.5,466.5 c 1,0 2,0 3,0 1.1,9.147 2.94,18.147 5.5,27 1.37,3.38 3.54,6.213 6.5,8.5 14.09,-3.939 28.43,-7.439 43,-10.5 0.22,1.175 -0.11,2.175 -1,3 -12.26,5.198 -24.6,10.198 -37,15 -1.27,-0.07 -2.44,-0.403 -3.5,-1 -4.71,17.746 -9.21,35.413 -13.5,53 -2.99,0.345 -4.32,-0.988 -4,-4 4.17,-14.859 7.17,-30.026 9,-45.5 -2.74,-7.688 -5.24,-15.521 -7.5,-23.5 -0.92,-4.29 -1.42,-8.623 -1.5,-13 -0.24,-3.109 0.1,-6.109 1,-9 z"
           id="path13273" />
      </g>
      <g
         id="g13279">
        <path
           style="opacity:1"
           fill="#673930"
           d="m 1446.5,465.5 c 1.7,1.876 3.7,3.376 6,4.5 -1.21,1.039 -2.21,2.206 -3,3.5 -1.23,0.806 -2.23,1.806 -3,3 0.76,-2.822 0.76,-6.489 0,-11 z"
           id="path13277" />
      </g>
      <g
         id="g13283" />
      <g
         id="g13287" />
      <g
         id="g13291">
        <path
           style="opacity:1"
           fill="#74453d"
           d="m 1191.5,466.5 c -0.9,2.891 -1.24,5.891 -1,9 -0.66,-1.293 -0.99,-2.793 -1,-4.5 0.07,-1.986 0.74,-3.486 2,-4.5 z"
           id="path13289" />
      </g>
      <g
         id="g13295">
        <path
           style="opacity:1"
           fill="#ddc8ad"
           d="m 1449.5,473.5 c 0.31,1.238 0.81,1.238 1.5,0 1.08,5.997 2.91,11.664 5.5,17 -0.64,0.597 -0.97,1.43 -1,2.5 1.37,11.835 2.7,23.668 4,35.5 -0.72,-0.418 -1.22,-1.084 -1.5,-2 -8.41,6.126 -17.25,11.626 -26.5,16.5 -26.74,12.189 -53.74,23.689 -81,34.5 0.22,-3.679 0.56,-7.346 1,-11 1.42,-2.015 2.09,-4.348 2,-7 8.74,-5.551 17.41,-11.384 26,-17.5 25.79,-18.294 48.13,-40.127 67,-65.5 0.77,-1.194 1.77,-2.194 3,-3 z"
           id="path13293" />
      </g>
      <g
         id="g13299" />
      <g
         id="g13303" />
      <g
         id="g13307">
        <path
           style="opacity:1"
           fill="#af5640"
           d="m 799.5,489.5 c 1.904,0.238 3.238,1.238 4,3 -2.473,0.412 -3.806,-0.588 -4,-3 z"
           id="path13305" />
      </g>
      <g
         id="g13311" />
      <g
         id="g13315" />
      <g
         id="g13319">
        <path
           style="opacity:1"
           fill="#f3ebdb"
           d="m 1459.5,528.5 c 2.47,21.429 5.63,42.762 9.5,64 21.0798,68.61061 30.3504,104.76262 64.5,193 26.6856,68.26972 46.8723,152.03468 62.5,211 9.83,35.33 22.33,69.67 37.5,103 20.31,-4.56 36.98,1.44 50,18 7.11,-9.57 16.45,-13.57 28,-12 1.87,8 2.87,16.17 3,24.5 -0.44,15.35 -1.94,30.52 -4.5,45.5 4.83,-9.32 8.83,-18.99 12,-29 1.36,-8.79 2.53,-17.45 3.5,-26 1.16,3.48 2.49,6.82 4,10 4.76,1.3 9.26,3.3 13.5,6 6.42,16.21 3.26,30.37 -9.5,42.5 -2.17,1.59 -4.5,2.92 -7,4 1.67,0.67 3.33,0.67 5,0 5.82,-3.55 12.15,-5.38 19,-5.5 -0.11,0.62 -0.44,1.12 -1,1.5 6.93,7.87 9.43,17.04 7.5,27.5 -1.89,8.06 -6.73,13.39 -14.5,16 -1.29,-0.6 -2.63,-1.1 -4,-1.5 -8.06,-8.05 -17.22,-14.55 -27.5,-19.5 -0.17,0.33 -0.33,0.67 -0.5,1 5.99,5.16 11.49,10.82 16.5,17 1.29,2.85 1.79,5.85 1.5,9 -0.44,5.21 -2.27,9.87 -5.5,14 -2.03,0.41 -3.53,1.41 -4.5,3 -1.6,1.3 -2.1,2.97 -1.5,5 40.41,41.75 84.74,78.75 133,111 -0.06,1.46 -0.73,2.8 -2,4 -28.2,27.18 -60.03,49.01 -95.5,65.5 -49.24,23.6 -101.24,36.6 -156,39 -42.67,0.33 -85.33,0.67 -128,1 -12.49,0.58 -24.83,2.08 -37,4.5 -25.86,5.09 -51.2,12.09 -76,21 -47.16,13.57 -95.16,16.74 -144,9.5 -5.47,-0.73 -10.8,-1.89 -16,-3.5 -20.74,-4.6 -41.07,-10.27 -61,-17 -86.7,-34.08 -161.702,-85.08 -225,-153 130.37,-89.86 233.87,-203.86 310.5,-342 22.59,-41.971 41.75,-85.305 57.5,-130 7.17,-18.65 12.84,-37.983 17,-58 0.67,-2 1.33,-4 2,-6 8.66,-43.621 19.66,-86.621 33,-129 2.54,-3.098 4.04,-6.765 4.5,-11 6.01,-26.361 11.51,-52.694 16.5,-79 27.26,-10.811 54.26,-22.311 81,-34.5 9.25,-4.874 18.09,-10.374 26.5,-16.5 0.28,0.916 0.78,1.582 1.5,2 z"
           id="path13317"
           sodipodi:nodetypes="ccccccccccccccccccccccccccccccccccccccccccccccccc" />
      </g>
      <g
         id="g13323">
        <path
           style="opacity:1"
           fill="#c4573e"
           d="m 1353.5,559.5 c 0.09,2.652 -0.58,4.985 -2,7 0.02,-2.065 0.35,-4.065 1,-6 0,-0.667 0.33,-1 1,-1 z"
           id="path13321" />
      </g>
      <g
         id="g13327">
        <path
           style="opacity:1"
           fill="#decaae"
           d="m 658.5,605.5 c 1.478,-0.262 2.811,0.071 4,1 7.799,14.78 8.966,30.113 3.5,46 -2,3.333 -4,6.667 -6,10 2.268,-7.757 3.935,-15.757 5,-24 1.212,-8.915 -0.621,-17.082 -5.5,-24.5 -1.667,-0.667 -3.333,-0.667 -5,0 -2.746,1.243 -5.412,2.243 -8,3 3.415,-4.523 7.415,-8.356 12,-11.5 z"
           id="path13325" />
      </g>
      <g
         id="g13331">
        <path
           style="opacity:1"
           fill="#decaae"
           d="m 729.5,626.5 c 0.961,1.765 1.295,3.765 1,6 -7.205,1.457 -14.205,3.623 -21,6.5 -9.859,5.094 -19.526,10.427 -29,16 -10.331,7.527 -18.164,17.027 -23.5,28.5 -3.615,8.257 -2.448,15.757 3.5,22.5 1.587,0.862 3.254,1.529 5,2 11.054,0.596 22.054,0.596 33,0 -8.684,8.339 -19.017,11.672 -31,10 -9.03,-2.876 -14.197,-9.043 -15.5,-18.5 -0.789,-5.737 -0.456,-11.403 1,-17 4.508,-11.174 11.341,-20.674 20.5,-28.5 16.985,-12.659 35.651,-21.826 56,-27.5 z"
           id="path13329" />
      </g>
      <g
         id="g13335">
        <path
           style="opacity:1"
           fill="#decaae"
           d="m 744.5,630.5 c 1.333,0 2.667,0 4,0 -1.659,9.263 -3.159,18.597 -4.5,28 -5.288,16.936 -15.788,29.102 -31.5,36.5 19.994,-15.15 30.66,-35.317 32,-60.5 -15.645,-0.851 -15.645,-2.185 0,-4 z"
           id="path13333" />
      </g>
      <g
         id="g13339">
        <path
           style="opacity:1"
           fill="#decaae"
           d="m 630.5,640.5 c 0.543,0.06 0.876,0.393 1,1 -3.5,6.333 -7,12.667 -10.5,19 -2,2 -4,4 -6,6 0.155,-2.311 0.155,-4.644 0,-7 -17.608,17.727 -38.441,30.227 -62.5,37.5 -13.127,4.109 -25.793,3.109 -38,-3 -1.667,-1.667 -3.333,-3.333 -5,-5 20.502,4.41 40.502,2.41 60,-6 22.998,-10.524 43.332,-24.69 61,-42.5 z"
           id="path13337" />
      </g>
      <g
         id="g13343">
        <path
           style="opacity:1"
           fill="#0a0403"
           d="m 1022.5,662.5 c 0.6792,3.86407 0.8547,4.90083 1,10 48.41,22.278 99.07,37.778 152,46.5 16.91,2.541 33.91,4.041 51,4.5 3.09,12.37 7.09,24.37 12,36 -33,1.405 -65.33,-2.761 -97,-12.5 -46.61,-14.646 -91.78,-32.813 -135.5,-54.5 -5.09,3.029 -10.586,4.862 -16.5,5.5 -7.397,0.321 -14.731,-0.012 -22,-1 -40.6,18.803 -81.267,37.303 -122,55.5 4.294,-8.466 6.294,-17.466 6,-27 0.558,-1.29 1.558,-2.123 3,-2.5 36.062,-13.02 71.729,-27.02 107,-42 2.802,-13.819 9.469,-25.486 20,-35 1.027,-0.513 2.027,-1.013 3,-1.5 6.52939,-3.10659 20.409,-8.84747 33.5,8 2.32,2.98 3.82,6.313 4.5,10 z"
           id="path13341"
           sodipodi:nodetypes="ccccccccccccccccc" />
      </g>
      <g
         id="g13347" />
      <g
         id="g13351" />
      <g
         id="g13355">
        <path
           style="opacity:1"
           fill="#e3d5c5"
           d="m 994.80203,653.14647 c 3.11678,-3.0839 5.03978,-8.03972 7.49467,-5.68729 4.1835,4.00894 -13.41472,17.26355 -15.24067,15.71397 -2.63,-2.23193 3.81425,-6.13645 7.746,-10.02668 z"
           id="path13353"
           sodipodi:nodetypes="ssss" />
      </g>
      <g
         id="g13359">
        <path
           style="opacity:1"
           fill="#dfcfc1"
           d="m 1004.0004,662.83624 c 3.3625,-3.63955 8.5485,-7.0078 7.1596,-2.73666 -0.7719,2.37347 -16.61034,17.27893 -17.93416,14.02208 -1.27769,-3.14337 8.52786,-8.85354 10.77456,-11.28542 z"
           id="path13357"
           sodipodi:nodetypes="ssss" />
      </g>
      <g
         id="g13363" />
      <g
         id="g13367">
        <path
           style="opacity:1"
           fill="#e7daca"
           d="m 1009.6488,671.98999 c 1.964,-2.26494 3.5065,-5.75426 5.5166,-4.495 3.8389,2.40485 -13.0116,18.38513 -15.30749,15.53834 -1.8696,-2.3181 5.70819,-6.33525 9.79089,-11.04334 z"
           id="path13365"
           sodipodi:nodetypes="ssss" />
      </g>
      <g
         id="g13371">
        <path
           style="opacity:1"
           fill="#dec9ae"
           d="m 1329.5,667.5 c -13.34,42.379 -24.34,85.379 -33,129 -3.55,1.223 -6.55,3.223 -9,6 -3,2.667 -6,5.333 -9,8 -7.92,-8.089 -15.75,-16.423 -23.5,-25 -5.42,-8.881 -10.92,-17.547 -16.5,-26 -4.91,-11.63 -8.91,-23.63 -12,-36 -3.52,-12.461 -6.19,-25.128 -8,-38 0.54,-1.771 1.37,-2.104 2.5,-1 36.44,-3.657 72.61,-9.324 108.5,-17 z"
           id="path13369" />
      </g>
      <g
         id="g13375">
        <path
           style="opacity:1"
           fill="#decaae"
           d="m 730.5,690.5 c 0.624,0.417 0.957,1.084 1,2 -0.889,2.779 -2.056,5.445 -3.5,8 -6.302,5.301 -12.302,10.968 -18,17 0.811,-2.641 1.978,-5.308 3.5,-8 6.117,-6.107 11.784,-12.44 17,-19 z"
           id="path13373" />
      </g>
      <g
         id="g13379" />
      <g
         id="g13383">
        <path
           style="opacity:1"
           fill="#decaae"
           d="m 761.5,695.5 c 8.034,-0.198 16.034,0.135 24,1 0.273,1.951 -0.393,3.451 -2,4.5 -19.131,0.029 -38.131,1.029 -57,3 11.451,-4.28 23.117,-7.114 35,-8.5 z"
           id="path13381" />
      </g>
      <g
         id="g13387">
        <path
           style="opacity:1"
           fill="#decaae"
           d="m 795.5,699.5 c 1.195,0.366 1.861,1.199 2,2.5 -4.041,10.717 -11.041,19.05 -21,25 -3.515,1.843 -7.182,2.843 -11,3 13.55,-6.716 23.55,-16.883 30,-30.5 z"
           id="path13385" />
      </g>
      <g
         id="g13391">
        <path
           style="opacity:1"
           fill="#decaae"
           d="m 582.5,712.5 c 0.597,0.235 0.93,0.735 1,1.5 -1.197,2.894 -2.53,5.727 -4,8.5 -17.997,8.656 -26.83,22.99 -26.5,43 1.934,6.267 6.1,10.101 12.5,11.5 5.684,0.919 11.351,1.919 17,3 -3.563,3.884 -2.563,4.551 3,2 14.1,-9.01 22.6,-21.844 25.5,-38.5 -0.748,17 -7.582,31.166 -20.5,42.5 -2.821,2.001 -5.987,3.167 -9.5,3.5 -25.462,-2.892 -35.129,-16.892 -29,-42 3.962,-10.963 11.129,-19.13 21.5,-24.5 3.585,-3.078 6.585,-6.578 9,-10.5 z"
           id="path13389" />
      </g>
      <g
         id="g13395">
        <path
           style="opacity:1"
           fill="#decaae"
           d="m 710.5,727.5 c 0.235,-0.597 0.735,-0.93 1.5,-1 8.869,3.335 18.035,4.669 27.5,4 7.761,-0.049 15.428,-0.549 23,-1.5 -10.025,5.339 -20.692,8.506 -32,9.5 -8.589,-0.273 -15.256,-3.94 -20,-11 z"
           id="path13393" />
      </g>
      <g
         id="g13399">
        <path
           style="opacity:1"
           fill="#decaae"
           d="m 1393.5,735.5 c 6.9,-0.276 12.4,2.391 16.5,8 9.69,12.721 16.69,26.721 21,42 -5.89,-17.549 -16.06,-32.049 -30.5,-43.5 -3.64,-2.115 -7.14,-1.948 -10.5,0.5 -5.27,11.667 -5.94,23.667 -2,36 4.91,15.826 12.91,29.826 24,42 -3.69,-17.412 -8.02,-34.745 -13,-52 -2.22,-7.584 -2.72,-15.251 -1.5,-23 0.67,-0.333 1.33,-0.667 2,-1 1.46,12.125 3.62,24.125 6.5,36 3.34,12.014 6.68,24.014 10,36 6.59,-9.929 15.09,-17.762 25.5,-23.5 3.68,-1.071 7.35,-1.738 11,-2 -14.89,7.887 -26.05,19.387 -33.5,34.5 -6.01,19.35 -13.68,38.017 -23,56 -3.78,4.062 -6.95,8.562 -9.5,13.5 1.63,-0.195 3.29,-0.195 5,0 -5,2.344 -10,4.344 -15,6 7.53,-12.223 14.7,-24.723 21.5,-37.5 4.7,-12.424 9.2,-24.924 13.5,-37.5 -16.35,-13.382 -26.51,-30.548 -30.5,-51.5 -0.86,-8.064 -0.53,-16.064 1,-24 2.23,-6.377 6.06,-11.377 11.5,-15 z"
           id="path13397" />
      </g>
      <g
         id="g13403" />
      <g
         id="g13407">
        <path
           style="opacity:1"
           fill="#decaae"
           d="m 1464.5,781.5 c 12.46,1.283 20.63,7.95 24.5,20 2.86,10.978 4.02,22.144 3.5,33.5 -0.28,12.842 -0.78,25.675 -1.5,38.5 -5.89,26.102 -16.89,49.769 -33,71 -5.72,7.738 -12.56,13.905 -20.5,18.5 11.36,-10.906 19.53,-23.74 24.5,-38.5 -6.01,4.172 -12.34,7.838 -19,11 -0.5,-0.5 -1,-1 -1.5,-1.5 4.13,-1.749 7.29,-4.249 9.5,-7.5 -3.54,2.53 -7.37,4.03 -11.5,4.5 10.67,-5.669 19.84,-13.169 27.5,-22.5 9.54,-22.386 14.21,-45.72 14,-70 -1.22,-7.177 -3.72,-13.844 -7.5,-20 3.32,2.498 6.48,5.832 9.5,10 1.82,-11.248 0.49,-22.248 -4,-33 -2.92,-3.243 -5.42,-6.743 -7.5,-10.5 -3.94,-0.993 -7.94,-1.66 -12,-2 1.88,-0.198 3.55,-0.698 5,-1.5 z"
           id="path13405" />
      </g>
      <g
         id="g13411" />
      <g
         id="g13415">
        <path
           style="opacity:1"
           fill="#decaae"
           d="m 596.5,788.5 c 0.722,0.418 1.222,1.084 1.5,2 1.6,17.6 -2.733,33.6 -13,48 -3.921,5.926 -8.588,11.259 -14,16 -1.367,5.77 -3.7,11.104 -7,16 0.645,-4.581 1.311,-9.248 2,-14 9.235,-13.588 17.235,-27.921 24,-43 1.324,-3.946 1.991,-7.946 2,-12 -2.821,4.163 -6.655,5.663 -11.5,4.5 6.59,-4.753 11.923,-10.587 16,-17.5 z"
           id="path13413" />
      </g>
      <g
         id="g13419">
        <path
           style="opacity:1"
           fill="#090403"
           d="m 855.5,896.5 c 2.235,0.295 4.235,-0.039 6,-1 26.513,-5.115 51.513,-14.281 75,-27.5 4.888,-6.132 10.222,-11.799 16,-17 25.016,-9.225 42.849,-1.725 53.5,22.5 2.32,6.64 4.82,13.14 7.5,19.5 102.49,16.774 190.83,-10.726 265,-82.5 3,-2.667 6,-5.333 9,-8 2.33,0 4.67,0 7,0 -4.16,20.017 -9.83,39.35 -17,58 -49.82,30.238 -103.49,50.404 -161,60.5 -32.04,3.538 -64.04,3.205 -96,-1 -5.77,-0.739 -11.43,-1.905 -17,-3.5 -12.001,3.388 -23.334,1.888 -34,-4.5 -7.564,-6.736 -14.897,-13.569 -22,-20.5 -23.159,8.583 -46.492,16.583 -70,24 -59.373,5.933 -109.873,-12.401 -151.5,-55 -10.391,-12.205 -18.891,-25.538 -25.5,-40 6.765,-9.205 12.432,-19.205 17,-30 9.56,20.122 21.393,38.789 35.5,56 27.221,31.028 61.387,47.694 102.5,50 z"
           id="path13417" />
      </g>
      <g
         id="g13423">
        <path
           style="opacity:1"
           fill="#6f2d20"
           d="m 1296.5,796.5 c -0.67,2 -1.33,4 -2,6 -2.33,0 -4.67,0 -7,0 2.45,-2.777 5.45,-4.777 9,-6 z"
           id="path13421" />
      </g>
      <g
         id="g13427">
        <path
           style="opacity:1"
           fill="#decaae"
           d="m 1341.5,812.5 c 8.12,0.059 15.12,2.892 21,8.5 9.18,8.477 16.68,17.977 22.5,28.5 -9.57,-11.576 -20.41,-21.743 -32.5,-30.5 -2.6,-0.769 -5.1,-0.602 -7.5,0.5 -2.38,3.634 -3.88,7.634 -4.5,12 1.44,9.204 5.27,17.204 11.5,24 6.24,5.571 11.74,11.738 16.5,18.5 -17.42,-7.77 -28.92,-20.937 -34.5,-39.5 -2.59,-9.271 -0.09,-16.604 7.5,-22 z"
           id="path13425" />
      </g>
      <g
         id="g13431">
        <path
           style="opacity:1"
           fill="#decaae"
           d="m 597.5,815.5 c 14.74,9.917 25.24,23.25 31.5,40 1.186,4.692 1.353,9.359 0.5,14 -2.436,-0.183 -4.603,0.484 -6.5,2 0.365,-9.538 -1.635,-18.538 -6,-27 -4.606,-7.539 -9.939,-14.539 -16,-21 -1.454,-2.571 -2.62,-5.238 -3.5,-8 z"
           id="path13429" />
      </g>
      <g
         id="g13435">
        <path
           style="opacity:1"
           fill="#decaae"
           d="m 1462.5,819.5 c -5.64,13.022 -15.81,21.356 -30.5,25 -8,-0.988 -12,-5.322 -12,-13 10.64,9.441 21.14,9.275 31.5,-0.5 3.87,-3.702 7.54,-7.536 11,-11.5 z"
           id="path13433" />
      </g>
      <g
         id="g13439">
        <path
           style="opacity:1"
           fill="#dec8ae"
           d="m 700.5,820.5 c 6.609,14.462 15.109,27.795 25.5,40 41.627,42.599 92.127,60.933 151.5,55 -0.823,15.29 -5.823,28.957 -15,41 -0.847,-1.466 -2.18,-2.3 -4,-2.5 -14.048,-2.054 -28.048,-4.388 -42,-7 -29.828,-5.92 -56.495,-18.253 -80,-37 -22.076,-20.392 -40.743,-43.392 -56,-69 7.568,-6.066 14.234,-12.9 20,-20.5 z"
           id="path13437" />
      </g>
      <g
         id="g13443">
        <path
           style="opacity:1"
           fill="#dfcaaf"
           d="m 1348.5,828.5 c 2.03,-0.772 3.86,-0.106 5.5,2 1.97,3.98 3.97,7.98 6,12 0.67,1.333 0.67,2.667 0,4 -3.42,-5.178 -7.09,-10.178 -11,-15 0.11,-1.269 -0.06,-2.269 -0.5,-3 z"
           id="path13441" />
      </g>
      <g
         id="g13447">
        <path
           style="opacity:1"
           fill="#decaae"
           d="m 1501.5,841.5 c 4.99,-1.112 9.15,0.554 12.5,5 12.81,18.092 18.48,38.092 17,60 -5.48,6.537 -11.98,7.704 -19.5,3.5 -11.03,-8.885 -16.53,-20.385 -16.5,-34.5 3.2,14.182 11.2,24.516 24,31 2.32,-0.434 4.32,-1.434 6,-3 0.51,-19.644 -4.16,-37.978 -14,-55 -2.5,-3.348 -5.67,-5.682 -9.5,-7 z"
           id="path13445" />
      </g>
      <g
         id="g13451">
        <path
           style="opacity:1"
           fill="#decaae"
           d="m 1321.5,856.5 c 13.52,-0.298 22.52,5.869 27,18.5 -0.92,0.374 -1.75,0.874 -2.5,1.5 -3.28,-5.737 -7.78,-10.237 -13.5,-13.5 -10.78,-1.601 -16.78,3.066 -18,14 1.41,8.493 5.41,15.493 12,21 4,3 8,6 12,9 -13.79,-2.669 -23.62,-10.502 -29.5,-23.5 -3.36,-12.611 0.81,-21.611 12.5,-27 z"
           id="path13449" />
      </g>
      <g
         id="g13455">
        <path
           style="opacity:1"
           fill="#e9ddcd"
           d="m 992.59343,878.19044 c -2.45476,1.01139 -4.70991,-1.2659 -6.28793,-3.83147 -3.89461,-6.33192 -3.88323,-7.04831 -8.22386,-11.98864 -2.59664,-2.95539 -3.08531,-6.03586 -0.003,-5.492 7.8518,3.01464 16.68525,20.41786 14.51479,21.31211 z"
           id="path13453"
           sodipodi:nodetypes="ssscs" />
      </g>
      <g
         id="g13459">
        <path
           style="opacity:1"
           fill="#ece1d1"
           d="m 964.70064,865.87834 c 2.45995,-2.54199 19.26726,11.33461 17.11899,22.25933 -0.59519,3.02677 -6.41971,-6.32536 -8.24066,-8.96264 -4.10548,-5.94597 -11.80626,-10.27114 -8.87833,-13.29669 z"
           id="path13457"
           sodipodi:nodetypes="ssss" />
      </g>
      <g
         id="g13463">
        <path
           style="opacity:1"
           fill="#decaae"
           d="m 1430.5,869.5 c 8.71,-0.252 17.38,0.248 26,1.5 4.55,0.81 4.88,2.143 1,4 2.45,0.29 4.79,0.956 7,2 -7.33,-0.162 -14.66,-0.662 -22,-1.5 -13.79,-0.432 -26.29,3.235 -37.5,11 -0.51,1.496 -0.01,2.663 1.5,3.5 -3.41,-0.584 -5.41,-2.75 -6,-6.5 0.38,-3.041 1.71,-5.541 4,-7.5 8.55,-3.138 17.22,-5.304 26,-6.5 z"
           id="path13461" />
      </g>
      <g
         id="g13467">
        <path
           style="opacity:1"
           fill="#e4d7c7"
           d="m 954.96531,876.13767 c 1.87732,-2.36496 8.06971,3.56913 10.86766,7.119 3.19967,4.05955 6.94401,9.48887 4.50534,11.26734 -2.43867,1.77847 -6.86135,-5.62595 -8.77535,-8.14301 -1.86611,-2.45407 -8.50534,-7.84009 -6.59765,-10.24333 z"
           id="path13465"
           sodipodi:nodetypes="sszss" />
      </g>
      <g
         id="g13471">
        <path
           style="opacity:1"
           fill="#dfcaaf"
           d="m 1447.5,882.5 c 0.74,-0.131 1.41,0.036 2,0.5 -1.33,0.667 -1.33,1.333 0,2 -1.33,1 -2.67,2 -4,3 0.67,0.333 1.33,0.667 2,1 -7.07,3.547 -14.57,5.047 -22.5,4.5 -5.22,0.006 -10.39,-0.494 -15.5,-1.5 13.79,0.815 26.45,-2.351 38,-9.5 z"
           id="path13469" />
      </g>
      <g
         id="g13475" />
      <g
         id="g13479">
        <path
           style="opacity:1"
           fill="#78443a"
           d="m 859.5,894.5 c 0.342,0.838 1.008,1.172 2,1 -1.765,0.961 -3.765,1.295 -6,1 1.014,-1.174 2.347,-1.84 4,-2 z"
           id="path13477" />
      </g>
      <g
         id="g13483">
        <path
           style="opacity:1"
           fill="#945648"
           d="m 1853.5,893.5 c 0.28,1.278 0.95,2.278 2,3 -1.51,1.002 -3.18,1.669 -5,2 1.19,-1.613 2.19,-3.28 3,-5 z"
           id="path13481" />
      </g>
      <g
         id="g13487" />
      <g
         id="g13491" />
      <g
         id="g13495">
        <path
           style="opacity:1"
           fill="#decaae"
           d="m 1378.5,904.5 c 0.74,-0.131 1.41,0.036 2,0.5 -5.33,6.667 -11.33,12.667 -18,18 -1.52,1.009 -3.19,1.509 -5,1.5 0.23,-2.749 -0.11,-5.416 -1,-8 7.42,-4.039 14.75,-8.039 22,-12 z"
           id="path13493" />
      </g>
      <g
         id="g13499" />
      <g
         id="g13503">
        <path
           style="opacity:1"
           fill="#decaae"
           d="m 1433.5,939.5 c 0.88,-0.131 1.54,0.202 2,1 -12.12,5.559 -23.45,12.393 -34,20.5 -2.68,0.74 -5.34,1.073 -8,1 4.47,-4.4 9.47,-8.066 15,-11 8.42,-3.882 16.76,-7.716 25,-11.5 z"
           id="path13501" />
      </g>
      <g
         id="g13507">
        <path
           style="opacity:1"
           fill="#dfcaaf"
           d="m 1435.5,950.5 c 1.18,-0.219 2.18,0.114 3,1 -6.14,10.642 -14.48,19.142 -25,25.5 1,0.333 2,0.667 3,1 -2.33,1.167 -4.67,2.333 -7,3.5 0,-1 0,-2 0,-3 -4.09,5.196 -9.42,7.363 -16,6.5 -3.39,-1.006 -4.39,-3.006 -3,-6 18.21,-4.437 33.21,-13.937 45,-28.5 z"
           id="path13505" />
      </g>
      <g
         id="g13511">
        <path
           style="opacity:1"
           fill="#dfcaaf"
           d="m 466.5,964.5 c 0.597,0.235 0.93,0.735 1,1.5 -1.412,7.437 -2.412,14.937 -3,22.5 3.547,8.764 7.38,17.43 11.5,26 3.945,11.5 6.111,23.33 6.5,35.5 0.42,5.5 -1.08,10.33 -4.5,14.5 -0.333,-0.33 -0.667,-0.67 -1,-1 -0.247,-8.7 -0.914,-17.37 -2,-26 -4.002,-14.67 -8.002,-29.34 -12,-44 -4.981,10.63 -10.981,20.63 -18,30 -0.667,2 -1.333,4 -2,6 -0.423,-1.46 -1.256,-1.96 -2.5,-1.5 -7.825,7.49 -16.492,13.83 -26,19 -2.655,1.11 -5.321,1.78 -8,2 19.787,-13.78 35.287,-31.28 46.5,-52.5 4.257,-10.838 8.757,-21.505 13.5,-32 z"
           id="path13509" />
      </g>
      <g
         id="g13515">
        <path
           style="opacity:1"
           fill="#decaae"
           d="m 444.5,966.5 c 3.098,-0.087 3.432,0.413 1,1.5 -11.506,5.043 -23.506,8.21 -36,9.5 -2.212,0.088 -4.212,-0.412 -6,-1.5 13.929,-2.615 27.595,-5.782 41,-9.5 z"
           id="path13513" />
      </g>
      <g
         id="g13519">
        <path
           style="opacity:1"
           fill="#dfc7ac"
           d="m 319.5,1043.5 c -6.866,-15.63 -4.199,-29.47 8,-41.5 1.693,-0.85 3.36,-1.68 5,-2.5 3.288,-0.311 6.288,-0.311 9,0 -12.105,12.21 -19.438,26.88 -22,44 z"
           id="path13517" />
      </g>
      <g
         id="g13523">
        <path
           style="opacity:1"
           fill="#f3ebdb"
           d="m 317.5,1055.5 c 0.213,6.71 -0.12,13.38 -1,20 -6.441,8.63 -12.774,17.46 -19,26.5 -2.874,1.9 -6.041,2.73 -9.5,2.5 -5.818,-1.08 -11.651,-2.08 -17.5,-3 -1.143,2.61 -1.976,5.28 -2.5,8 4.513,3.67 9.68,5.84 15.5,6.5 1.861,1.03 3.195,2.53 4,4.5 -4.94,1.38 -9.94,2.55 -15,3.5 -2.431,1.73 -2.097,3.23 1,4.5 18.107,-3.03 30.607,3.97 37.5,21 6.132,16.11 5.966,32.11 -0.5,48 -5.487,16.46 -15.82,28.96 -31,37.5 -8.71,2.37 -17.043,1.37 -25,-3 -10.717,-6.55 -20.05,-14.71 -28,-24.5 -17.789,9.72 -33.122,6.72 -46,-9 0.929,-0.81 1.929,-1.65 3,-2.5 -2.261,-4.51 -3.594,-9.34 -4,-14.5 0.209,-0.59 0.543,-1.09 1,-1.5 -0.746,-3.28 -1.413,-6.61 -2,-10 0.529,-1.56 1.196,-3.06 2,-4.5 -0.754,-3.28 -1.254,-6.61 -1.5,-10 -0.5,-0.5 -1,-1 -1.5,-1.5 1.333,-4 1.333,-8 0,-12 2.667,-0.67 2.667,-1.33 0,-2 0.771,-5.18 3.771,-9.18 9,-12 -2.26,-0.04 -4.26,0.79 -6,2.5 -0.692,-0.53 -1.192,-1.19 -1.5,-2 -0.762,-19.75 -1.096,-39.41 -1,-59 -0.5,-0.5 -1,-1 -1.5,-1.5 3.993,-0.17 7.993,0 12,0.5 0.164,-4.59 -1.836,-7.59 -6,-9 -2.251,1.61 -3.584,0.95 -4,-2 0.71,-5.98 1.377,-11.98 2,-18 -0.346,-1.35 -0.679,-2.68 -1,-4 10.139,-13.78 23.806,-19.28 41,-16.5 15.988,4.22 27.488,13.72 34.5,28.5 3.409,-20.08 15.243,-29.92 35.5,-29.5 9.85,2.51 17.017,8.35 21.5,17.5 2.15,6.6 3.983,13.27 5.5,20 z"
           id="path13521" />
      </g>
      <g
         id="g13527">
        <path
           style="opacity:1"
           fill="#dec8ad"
           d="m 179.5,1035.5 c 0.321,1.32 0.654,2.65 1,4 -0.623,6.02 -1.29,12.02 -2,18 0.416,2.95 1.749,3.61 4,2 4.164,1.41 6.164,4.41 6,9 -4.007,-0.5 -8.007,-0.67 -12,-0.5 0.5,0.5 1,1 1.5,1.5 -0.096,19.59 0.238,39.25 1,59 0.308,0.81 0.808,1.47 1.5,2 1.74,-1.71 3.74,-2.54 6,-2.5 -5.229,2.82 -8.229,6.82 -9,12 2.667,0.67 2.667,1.33 0,2 1.333,4 1.333,8 0,12 0.5,0.5 1,1 1.5,1.5 0.246,3.39 0.746,6.72 1.5,10 -0.804,1.44 -1.471,2.94 -2,4.5 0.587,3.39 1.254,6.72 2,10 -0.457,0.41 -0.791,0.91 -1,1.5 0.406,5.16 1.739,9.99 4,14.5 -1.071,0.85 -2.071,1.69 -3,2.5 -13.866,-14.15 -18.033,-30.81 -12.5,-50 1.749,-4.5 4.249,-8.5 7.5,-12 -3.285,-2.33 -6.618,-4.66 -10,-7 0.01,-19.61 0.01,-39.27 0,-59 2.015,-1.42 4.348,-2.09 7,-2 -0.895,-10.38 0.605,-20.38 4.5,-30 0.852,-1.07 1.685,-2.07 2.5,-3 z"
           id="path13525" />
      </g>
      <g
         id="g13531">
        <path
           style="opacity:1"
           fill="#decaae"
           d="m 422.5,1047.5 c 4.449,33.36 -3.551,63.53 -24,90.5 -1,0.67 -2,0.67 -3,0 5.321,-6.29 9.655,-13.29 13,-21 2.729,-7.89 5.562,-16.72 8.5,-26.5 2.62,-12.33 2.954,-24.67 1,-37 -2.921,3.59 -6.421,6.42 -10.5,8.5 -15.187,7.43 -30.187,15.09 -45,23 -5.011,1.67 -10.011,3.34 -15,5 -3.533,0.9 -6.867,0.57 -10,-1 11.924,-2.29 23.258,-6.29 34,-12 13.404,-9.79 27.238,-18.95 41.5,-27.5 0.507,1.5 0.007,2.66 -1.5,3.5 4.616,0.25 8.283,-1.58 11,-5.5 z"
           id="path13529" />
      </g>
      <g
         id="g13535" />
      <g
         id="g13539">
        <path
           style="opacity:1"
           fill="#decaae"
           d="m 492.5,1062.5 c 2.17,10.66 -2.164,14.83 -13,12.5 -2.184,-2.02 -4.184,-4.18 -6,-6.5 0.308,-0.81 0.808,-1.47 1.5,-2 3.394,4.58 7.894,6.08 13.5,4.5 2.446,-2.23 3.78,-5.07 4,-8.5 z"
           id="path13537" />
      </g>
      <g
         id="g13543">
        <path
           style="opacity:1"
           fill="#decaae"
           d="m 202.5,1067.5 c 4.349,-1.27 8.682,-0.77 13,1.5 13.666,6.29 23.332,16.29 29,30 -0.333,0.83 -0.667,1.67 -1,2.5 -4.416,-2.25 -8.416,-5.08 -12,-8.5 -7.703,-9.37 -16.37,-17.7 -26,-25 -0.948,-0.48 -1.948,-0.65 -3,-0.5 z"
           id="path13541" />
      </g>
      <g
         id="g13547">
        <path
           style="opacity:1"
           fill="#d28b72"
           d="m 165.5,1070.5 c 0.01,19.73 0.01,39.39 0,59 -3.333,-3 -6.667,-6 -10,-9 -0.717,-14.44 -1.05,-28.77 -1,-43 2.881,-3.54 6.548,-5.88 11,-7 z"
           id="path13545" />
      </g>
      <g
         id="g13551">
        <path
           style="opacity:1"
           fill="#dec8ad"
           d="m 316.5,1075.5 c 6.059,-0.25 12.059,0.09 18,1 1.274,0.69 1.274,1.52 0,2.5 -10.71,3.59 -19.543,9.76 -26.5,18.5 -7.523,17.39 -4.856,33.05 8,47 5.197,-1.49 10.03,-0.66 14.5,2.5 -2.526,3.03 -4.86,6.19 -7,9.5 22.723,45.79 47.223,90.46 73.5,134 20.531,34.87 44.531,67.2 72,97 0.121,2.18 -0.379,4.18 -1.5,6 0,-1 0,-2 0,-3 -2.235,-0.29 -4.235,0.04 -6,1 -23.65,-0.93 -34.65,-13.27 -33,-37 -17.246,0.82 -28.413,-6.85 -33.5,-23 -0.319,-6.76 -0.485,-13.43 -0.5,-20 -18.386,2.21 -30.886,-5.45 -37.5,-23 -1.677,-5.55 -2.51,-11.22 -2.5,-17 1.122,-1.79 1.289,-3.79 0.5,-6 -10.622,-10.61 -19.789,-22.27 -27.5,-35 -1.832,-4.34 -4.165,-8.34 -7,-12 -2.936,-4.87 -5.603,-9.87 -8,-15 0.446,-2.51 -0.22,-4.51 -2,-6 6.466,-15.89 6.632,-31.89 0.5,-48 -6.893,-17.03 -19.393,-24.03 -37.5,-21 -3.097,-1.27 -3.431,-2.77 -1,-4.5 5.06,-0.95 10.06,-2.12 15,-3.5 -0.805,-1.97 -2.139,-3.47 -4,-4.5 -5.82,-0.66 -10.987,-2.83 -15.5,-6.5 0.524,-2.72 1.357,-5.39 2.5,-8 5.849,0.92 11.682,1.92 17.5,3 3.459,0.23 6.626,-0.6 9.5,-2.5 6.226,-9.04 12.559,-17.87 19,-26.5 z"
           id="path13549" />
      </g>
      <g
         id="g13555" />
      <g
         id="g13559">
        <path
           style="opacity:1"
           fill="#dec9ae"
           d="m 1711.5,1105.5 c 7.38,2.38 12.04,7.38 14,15 -0.97,8.55 -2.14,17.21 -3.5,26 -3.17,10.01 -7.17,19.68 -12,29 2.56,-14.98 4.06,-30.15 4.5,-45.5 -0.13,-8.33 -1.13,-16.5 -3,-24.5 z"
           id="path13557" />
      </g>
      <g
         id="g13563">
        <path
           style="opacity:1"
           fill="#decaae"
           d="m 224.5,1115.5 c 2.333,0 4.667,0 7,0 0.655,3.85 -0.679,6.69 -4,8.5 -37.604,8.19 -38.604,5.36 -3,-8.5 z"
           id="path13561" />
      </g>
      <g
         id="g13567">
        <path
           style="opacity:1"
           fill="#decaae"
           d="m 1676.5,1130.5 c 0.4,-1.03 1.06,-1.19 2,-0.5 9.81,8.14 15.81,18.47 18,31 0.15,2.89 -0.85,5.23 -3,7 -1,0.67 -2,0.67 -3,0 -0.96,-1.42 -1.79,-2.92 -2.5,-4.5 -2.78,-11.49 -6.61,-22.49 -11.5,-33 z"
           id="path13565" />
      </g>
      <g
         id="g13571">
        <path
           style="opacity:1"
           fill="#dec7ac"
           d="m 1729.5,1130.5 c 14.71,-3.17 23.54,2.83 26.5,18 1.37,10.04 -0.8,19.2 -6.5,27.5 0.56,0.38 0.89,0.88 1,1.5 -6.85,0.12 -13.18,1.95 -19,5.5 -1.67,0.67 -3.33,0.67 -5,0 2.5,-1.08 4.83,-2.41 7,-4 12.76,-12.13 15.92,-26.29 9.5,-42.5 -4.24,-2.7 -8.74,-4.7 -13.5,-6 z"
           id="path13569" />
      </g>
      <g
         id="g13575">
        <path
           style="opacity:1"
           fill="#decaae"
           d="m 240.5,1139.5 c 0.789,14.11 -4.045,26.11 -14.5,36 3.319,-7.64 6.985,-15.31 11,-23 1.949,-4.13 3.116,-8.46 3.5,-13 z"
           id="path13573" />
      </g>
      <g
         id="g13579">
        <path
           style="opacity:1"
           fill="#dfcaaf"
           d="m 261.5,1139.5 c 3.507,-0.51 6.674,0.16 9.5,2 4.072,8.95 6.905,18.29 8.5,28 0.003,3.1 -0.497,3.44 -1.5,1 -0.216,1.88 -0.883,3.55 -2,5 -4.158,-8.99 -8.825,-17.65 -14,-26 -1.616,-3.32 -1.783,-6.66 -0.5,-10 z"
           id="path13577" />
      </g>
      <g
         id="g13583">
        <path
           style="opacity:1"
           fill="#dfcaaf"
           d="m 583.5,1151.5 c 6.343,-0.74 10.51,1.92 12.5,8 3.313,14.04 2.979,28.04 -1,42 -4.003,16.83 -10.836,32.33 -20.5,46.5 -5.847,1.25 -7.013,-0.25 -3.5,-4.5 0.711,-2.4 0.544,-4.73 -0.5,-7 15.764,-21.12 22.264,-44.79 19.5,-71 -0.75,-5.09 -3.583,-7.59 -8.5,-7.5 -2.841,1.59 -5.507,3.42 -8,5.5 -1.333,-1 -2.667,-2 -4,-3 4.168,-3.85 8.835,-6.85 14,-9 z"
           id="path13581" />
      </g>
      <g
         id="g13587">
        <path
           style="opacity:1"
           fill="#decaae"
           d="m 565.5,1162.5 c 1.844,0.7 2.344,2.04 1.5,4 -17.271,21.63 -19.937,44.97 -8,70 2.261,1.18 4.095,2.85 5.5,5 -1.525,3.06 -3.525,5.73 -6,8 -13.899,-19.73 -16.732,-41.06 -8.5,-64 1.667,-3.33 3.333,-6.67 5,-10 3.737,-4.23 7.237,-8.56 10.5,-13 z"
           id="path13585" />
      </g>
      <g
         id="g13591">
        <path
           style="opacity:1"
           fill="#dec7ac"
           d="m 1750.5,1177.5 c 9.6,4.68 14.27,12.52 14,23.5 -0.23,10.14 -4.56,17.81 -13,23 -1.29,0.49 -2.63,0.66 -4,0.5 -6.05,0.2 -12.05,-0.14 -18,-1 0.28,1.91 -0.05,3.58 -1,5 0.29,-3.15 -0.21,-6.15 -1.5,-9 -5.01,-6.18 -10.51,-11.84 -16.5,-17 0.17,-0.33 0.33,-0.67 0.5,-1 10.28,4.95 19.44,11.45 27.5,19.5 1.37,0.4 2.71,0.9 4,1.5 7.77,-2.61 12.61,-7.94 14.5,-16 1.93,-10.46 -0.57,-19.63 -7.5,-27.5 0.56,-0.38 0.89,-0.88 1,-1.5 z"
           id="path13589" />
      </g>
      <g
         id="g13595">
        <path
           style="opacity:1"
           fill="#decaae"
           d="m 490.5,1197.5 c 9.167,-0.44 17.167,2.39 24,8.5 8.413,8 14.413,17.5 18,28.5 -2.186,0.72 -4.353,1.39 -6.5,2 -0.309,-1.89 0.525,-3.22 2.5,-4 -1.69,-2.52 -3.857,-4.52 -6.5,-6 -8.119,-13.78 -19.953,-22.62 -35.5,-26.5 1.358,-0.93 2.692,-1.77 4,-2.5 z"
           id="path13593" />
      </g>
      <g
         id="g13599">
        <path
           style="opacity:1"
           fill="#dec9ae"
           d="m 1705.5,1223.5 c -0.08,2.77 0.42,5.44 1.5,8 1.82,2.81 3.16,5.81 4,9 0.95,1.59 2.12,2.93 3.5,4 -1.25,1.84 -1.25,3.67 0,5.5 -1.78,4.47 -3.95,4.63 -6.5,0.5 -10.24,-14.68 -13.07,-30.68 -8.5,-48 1.37,1.21 2.87,2.21 4.5,3 0.77,-0.14 1.44,-0.48 2,-1 -0.37,6.27 -0.54,12.61 -0.5,19 z"
           id="path13597" />
      </g>
      <g
         id="g13603" />
      <g
         id="g13607">
        <path
           style="opacity:1"
           fill="#decaae"
           d="m 477.5,1212.5 c 1.808,-0.01 3.475,0.49 5,1.5 3.367,3.7 7.034,7.04 11,10 15.935,9.61 31.601,19.61 47,30 -0.5,0.5 -1,1 -1.5,1.5 -16.645,-6.44 -33.145,-13.27 -49.5,-20.5 -7.343,-3.84 -12.343,-9.68 -15,-17.5 0.76,-1.86 1.76,-3.53 3,-5 z"
           id="path13605" />
      </g>
      <g
         id="g13611" />
      <g
         id="g13615">
        <path
           style="opacity:1"
           fill="#d28971"
           d="m 1747.5,1224.5 c -0.9,2.89 -1.24,5.89 -1,9 -3.2,-3.66 -6.87,-3.99 -11,-1 -4.34,4.03 -7.67,8.7 -10,14 -2.19,-1.85 -4.52,-2.19 -7,-1 0.97,-1.59 2.47,-2.59 4.5,-3 3.23,-4.13 5.06,-8.79 5.5,-14 0.95,-1.42 1.28,-3.09 1,-5 5.95,0.86 11.95,1.2 18,1 z"
           id="path13613" />
      </g>
      <g
         id="g13619" />
      <g
         id="g13623" />
      <g
         id="g13627">
        <path
           style="opacity:1"
           fill="#d08168"
           d="m 1705.5,1223.5 c 2.09,6.18 5.26,11.84 9.5,17 0.58,1.43 0.41,2.76 -0.5,4 -1.38,-1.07 -2.55,-2.41 -3.5,-4 -0.84,-3.19 -2.18,-6.19 -4,-9 -1.08,-2.56 -1.58,-5.23 -1.5,-8 z"
           id="path13625" />
      </g>
      <g
         id="g13631">
        <path
           style="opacity:1"
           fill="#decaae"
           d="m 748.5,1240.5 c 4.748,-0.23 9.415,0.27 14,1.5 2.58,1.48 3.413,3.65 2.5,6.5 -10.019,19.61 -23.852,35.77 -41.5,48.5 10.665,-9.95 18.831,-21.45 24.5,-34.5 -24.182,13.06 -50.015,20.23 -77.5,21.5 14.284,-5.15 28.617,-10.15 43,-15 14.007,-6.59 28.173,-12.75 42.5,-18.5 0.483,-0.95 0.649,-1.95 0.5,-3 -7.539,0.71 -15.039,1.71 -22.5,3 -2.406,-1.17 -5.573,-1.84 -9.5,-2 -9.345,0.83 -18.678,1.33 -28,1.5 17.378,-3.73 34.712,-6.89 52,-9.5 z"
           id="path13629" />
      </g>
      <g
         id="g13635">
        <path
           style="opacity:1"
           fill="#decaae"
           d="m 566.5,1251.5 c 18.894,-1.94 27.06,6.39 24.5,25 -8.466,20.63 -10.632,19.96 -6.5,-2 -1.891,-12.28 -8.891,-17.11 -21,-14.5 -2.167,1.5 -4,3.33 -5.5,5.5 -2.555,8.67 -5.888,17 -10,25 -1.011,0.84 -2.178,1.17 -3.5,1 2.104,-8.98 -1.23,-14.48 -10,-16.5 -4.432,-1.02 -8.932,-1.52 -13.5,-1.5 -9.565,0.63 -19.065,1.47 -28.5,2.5 3.863,-1.73 7.863,-3.07 12,-4 11.629,-1.57 23.295,-2.24 35,-2 2.019,0.45 3.852,1.28 5.5,2.5 1.136,3.74 2.47,7.41 4,11 -1.073,-4.57 -1.739,-9.24 -2,-14 2.658,-3.99 5.325,-7.99 8,-12 0.49,-1.29 0.657,-2.63 0.5,-4 3.958,0.25 7.624,-0.42 11,-2 z"
           id="path13633" />
      </g>
      <g
         id="g13639">
        <path
           style="opacity:1"
           fill="#decaae"
           d="m 524.5,1258.5 c 5.413,-0.27 10.746,0.23 16,1.5 -13.516,1.35 -26.85,3.35 -40,6 7.901,-3.25 15.901,-5.75 24,-7.5 z"
           id="path13637" />
      </g>
      <g
         id="g13643">
        <path
           style="opacity:1"
           fill="#decaae"
           d="m 495.5,1267.5 c 1.052,-0.15 2.052,0.02 3,0.5 -10.79,5.11 -17.456,13.45 -20,25 2.041,9.04 7.708,14.37 17,16 3.779,0.91 7.612,1.41 11.5,1.5 5.543,-0.57 11.043,-1.07 16.5,-1.5 -13.651,7.75 -27.651,8.42 -42,2 -13.394,-13.15 -12.727,-25.82 2,-38 3.854,-2.38 7.854,-4.22 12,-5.5 z"
           id="path13641" />
      </g>
      <g
         id="g13647">
        <path
           style="opacity:1"
           fill="#decaae"
           d="m 550.5,1290.5 c 2.05,14.08 9.55,18.08 22.5,12 0.604,-3.1 1.937,-5.77 4,-8 1.018,3.14 1.851,6.31 2.5,9.5 -2.666,2.34 -5.666,4.17 -9,5.5 -0.464,7.81 -1.631,15.48 -3.5,23 -0.889,1.39 -1.389,1.22 -1.5,-0.5 0.617,-6.76 1.617,-13.43 3,-20 -0.333,-0.17 -0.667,-0.33 -1,-0.5 -11.985,8.99 -24.319,17.49 -37,25.5 -7.116,5.44 -12.283,12.27 -15.5,20.5 -0.5,-0.5 -1,-1 -1.5,-1.5 0.749,-1.73 1.249,-3.57 1.5,-5.5 2.615,-4.28 5.615,-8.28 9,-12 11.517,-9.09 22.851,-18.43 34,-28 0.667,-0.67 0.667,-1.33 0,-2 -3.667,-2.33 -6.667,-5.33 -9,-9 -0.597,-3.18 -0.097,-6.18 1.5,-9 z"
           id="path13645" />
      </g>
      <g
         id="g13651">
        <path
           style="opacity:1"
           fill="#decaae"
           d="m 543.5,1296.5 c 1.528,0.02 2.028,0.68 1.5,2 -10.037,8.37 -19.037,17.7 -27,28 -5.185,8.72 -8.685,18.06 -10.5,28 2.294,14.82 10.627,19.98 25,15.5 13.143,-5.5 23.977,-14 32.5,-25.5 -4.332,13.02 -12.498,23.19 -24.5,30.5 -8.651,4.36 -17.651,5.36 -27,3 -13.054,-7.88 -16.887,-19.04 -11.5,-33.5 8.54,-20.86 22.373,-36.86 41.5,-48 z"
           id="path13649" />
      </g>
      <g
         id="g13655">
        <path
           style="opacity:1"
           fill="#decaae"
           d="m 673.5,1307.5 c 8.435,-0.07 13.935,3.93 16.5,12 2.882,-2.2 6.049,-3.37 9.5,-3.5 -3.412,1.45 -6.579,3.29 -9.5,5.5 -5.45,13.77 -14.617,23.94 -27.5,30.5 5.903,-4.03 10.237,-8.87 13,-14.5 -10.749,4.31 -21.749,7.48 -33,9.5 4,-1.33 8,-2.67 12,-4 -1.439,-0.99 -2.439,-2.32 -3,-4 9.868,-4.52 19.368,-9.68 28.5,-15.5 1.357,-3.64 0.19,-5.81 -3.5,-6.5 -3.977,-0.53 -7.81,-0.03 -11.5,1.5 -3.076,-0.79 -6.242,-1.29 -9.5,-1.5 4.019,-1.88 8.185,-3.38 12.5,-4.5 1.709,-1.88 3.542,-3.55 5.5,-5 z"
           id="path13653" />
      </g>
      <g
         id="g13659">
        <path
           style="opacity:1"
           fill="#decaae"
           d="m 580.5,1314.5 c 2.006,3.36 3.506,7.03 4.5,11 4.227,20.81 5.894,41.81 5,63 -0.346,-3.08 -1.012,-6.08 -2,-9 -0.346,3.08 -1.012,6.08 -2,9 -1.085,0.79 -2.252,1.46 -3.5,2 -2.321,-9.89 -4.154,-19.89 -5.5,-30 -6.009,14.37 -9.676,29.37 -11,45 -0.626,-2.49 -1.459,-2.49 -2.5,0 -0.586,-0.21 -1.086,-0.54 -1.5,-1 -0.711,-6.72 -0.378,-13.38 1,-20 4.537,-16.61 8.87,-33.28 13,-50 3.696,-6.12 5.196,-12.79 4.5,-20 z"
           id="path13657" />
      </g>
      <g
         id="g13663">
        <path
           style="opacity:1"
           fill="#dfcaaf"
           d="m 603.5,1346.5 c 3.181,2.34 6.514,4.5 10,6.5 -1,0.33 -2,0.67 -3,1 5.448,0.4 10.115,2.4 14,6 5.125,1.25 10.125,1.92 15,2 -16.242,5.14 -29.909,1.14 -41,-12 2.626,1.8 5.626,2.8 9,3 -1.732,-1.97 -3.065,-4.14 -4,-6.5 z"
           id="path13661" />
      </g>
      <g
         id="g13667">
        <path
           style="opacity:1"
           fill="#c3533b"
           d="m 461.5,1391.5 c 1.765,-0.96 3.765,-1.29 6,-1 0,1 0,2 0,3 0,4.33 0,8.67 0,13 -0.987,-4.81 -1.321,-9.81 -1,-15 -1.667,0 -3.333,0 -5,0 z"
           id="path13665" />
      </g>
      <g
         id="g13671">
        <path
           style="opacity:1"
           fill="#dbae94"
           d="m 744.5,1402.5 c -4.47,0.99 -9.137,1.32 -14,1 0.295,2.24 -0.039,4.24 -1,6 0,-2.33 0,-4.67 0,-7 5,0 10,0 15,0 z"
           id="path13669" />
      </g>
      <g
         id="g13675">
        <path
           style="opacity:1"
           fill="#080302"
           d="m 670.5,1468.5 c 23.804,30.99 46.304,62.99 67.5,96 50.103,78.18 95.103,159.51 135,244 2.398,11.27 2.898,22.6 1.5,34 -0.656,-0.78 -1.489,-1.44 -2.5,-2 -0.765,0.07 -1.265,0.4 -1.5,1 -8.548,6.41 -18.215,8.74 -29,7 -0.079,1.43 0.254,2.76 1,4 8.389,2.78 16.723,2.62 25,-0.5 2.579,-1.08 4.246,-2.91 5,-5.5 0.838,0.34 1.172,1.01 1,2 -0.391,13.57 -3.891,26.23 -10.5,38 -1.815,1.9 -3.815,3.57 -6,5 -1.691,-2.44 -1.525,-4.77 0.5,-7 -0.131,0.88 0.202,1.54 1,2 0.922,-4.99 0.755,-9.99 -0.5,-15 -0.417,-1.26 -1.25,-1.92 -2.5,-2 -0.667,2 -1.333,4 -2,6 -1.553,-3.43 -3.386,-6.77 -5.5,-10 -0.718,-0.95 -1.551,-1.12 -2.5,-0.5 -1.167,1.83 -2.333,3.67 -3.5,5.5 -1.152,4.63 -1.985,9.29 -2.5,14 -0.985,-4.13 -1.318,-8.47 -1,-13 2.121,-21.06 4.788,-42.06 8,-63 -1.555,-9.44 -5.055,-18.11 -10.5,-26 -26.11,-38.55 -53.443,-76.22 -82,-113 -33.955,-42.29 -68.288,-84.29 -103,-126 -18.295,-21.3 -36.962,-42.3 -56,-63 -30.622,14.54 -62.788,24.04 -96.5,28.5 -38.218,4.83 -76.551,6.17 -115,4 -41.417,-2.99 -82.75,-6.82 -124,-11.5 0.194,14.94 1.194,29.77 3,44.5 -0.228,0.4 -0.562,0.57 -1,0.5 -8.9,2.28 -17.9,2.62 -27,1 -0.453,3.15 0.547,5.65 3,7.5 7.468,2.21 14.801,1.88 22,-1 1.655,-1.44 2.322,-3.28 2,-5.5 2.195,8.73 3.195,17.73 3,27 0.284,1.91 -0.049,3.58 -1,5 -0.017,-3.02 -1.017,-5.69 -3,-8 -1.003,4.98 -1.003,9.98 0,15 0.164,2.69 -0.003,5.35 -0.5,8 -0.278,-0.92 -0.778,-1.58 -1.5,-2 -0.847,-5.39 -2.013,-10.72 -3.5,-16 -0.893,-1.21 -1.726,-1.21 -2.5,0 1.923,9.95 3.59,19.95 5,30 -0.827,0.94 -1.494,0.61 -2,-1 -0.432,-1.21 -1.099,-2.21 -2,-3 -0.926,-8.38 -3.093,-16.38 -6.5,-24 -0.421,8.41 1.079,16.41 4.5,24 0,0.67 -0.333,1 -1,1 -6.026,-7.38 -10.526,-15.71 -13.5,-25 -10.367,-32.27 -12.034,-64.93 -5,-98 1.439,-3.1 3.273,-5.94 5.5,-8.5 1.699,-0.96 3.533,-1.46 5.5,-1.5 26.627,7.48 53.794,11.98 81.5,13.5 49.352,4.95 98.019,1.28 146,-11 17.176,-5.09 33.509,-12.09 49,-21 0.881,-0.71 1.547,-1.54 2,-2.5 5.676,0.17 11.343,0 17,-0.5 2.015,-0.42 3.849,-1.26 5.5,-2.5 3.73,5.74 8.23,10.9 13.5,15.5 8.739,5.37 17.739,5.87 27,1.5 2.551,2.96 5.551,5.46 9,7.5 14.934,5.54 28.434,3.04 40.5,-7.5 11.489,7.67 23.656,9 36.5,4 z"
           id="path13673" />
      </g>
      <g
         id="g13679">
        <path
           style="opacity:1"
           fill="#070302"
           d="m 1431.5,1475.5 c 12.11,32.71 33.78,56.88 65,72.5 41.51,18.69 84.85,24.69 130,18 33.24,-4.39 65.57,-12.39 97,-24 3.68,-1.84 7.02,-4.17 10,-7 9,0.16 17,3.16 24,9 7.17,6 13.84,12.5 20,19.5 -2.02,5.18 -4.19,10.52 -6.5,16 -0.92,14.21 4.24,25.54 15.5,34 -0.67,0 -1.33,0 -2,0 -3.92,-2.42 -7.42,-5.42 -10.5,-9 -10.18,-16.19 -21.68,-31.36 -34.5,-45.5 -0.83,-0.17 -1.67,-0.33 -2.5,-0.5 -32.14,10.71 -64.64,20.21 -97.5,28.5 -47.69,12.22 -96.02,16.22 -145,12 -65.55,-8.42 -111.88,-42.59 -139,-102.5 24.8,-8.91 50.14,-15.91 76,-21 z"
           id="path13677" />
      </g>
      <g
         id="g13683">
        <path
           style="opacity:1"
           fill="#080302"
           d="m 1134.5,1485.5 c 19.93,6.73 40.26,12.4 61,17 -1.64,3.94 -3.81,7.61 -6.5,11 -34.43,43.1 -68.1,86.76 -101,131 -26.24,35.47 -50.24,72.47 -72,111 -4.42,7.94 -7.26,16.44 -8.5,25.5 1.05,9.82 1.21,19.65 0.5,29.5 -1.52,6.85 -5.35,12.02 -11.5,15.5 -15.368,7.91 -31.701,11.41 -49,10.5 -0.149,-1.05 0.017,-2.05 0.5,-3 2.124,-1.12 3.957,-2.62 5.5,-4.5 -5.969,-0.11 -11.802,0.72 -17.5,2.5 0.928,-2.74 2.095,-5.4 3.5,-8 -3.197,0.86 -6.197,2.19 -9,4 -0.838,-0.34 -1.172,-1.01 -1,-2 7.35,-10.34 16.684,-18.34 28,-24 -3.373,9.38 -2.373,18.21 3,26.5 1.172,0.42 2.172,1.09 3,2 5,0.67 10,0.67 15,0 3.827,-2 7.827,-3.5 12,-4.5 3.447,-1.9 6.78,-4.06 10,-6.5 1.21,-0.89 1.21,-1.73 0,-2.5 -4.925,2.96 -9.925,5.63 -15,8 -4.87,1.79 -9.87,2.63 -15,2.5 -7.57,-6.88 -10.903,-15.38 -10,-25.5 6.289,-4.26 12.456,-8.92 18.5,-14 41.65,-106.3 93.48,-206.97 155.5,-302 z"
           id="path13681" />
      </g>
      <g
         id="g13687">
        <path
           style="opacity:1"
           fill="#e9dece"
           d="m 261.5,1546.5 c 0,0.67 0,1.33 0,2 0.322,2.22 -0.345,4.06 -2,5.5 -7.199,2.88 -14.532,3.21 -22,1 -2.453,-1.85 -3.453,-4.35 -3,-7.5 9.1,1.62 18.1,1.28 27,-1 z"
           id="path13685" />
      </g>
      <g
         id="g13691">
        <path
           style="opacity:1"
           fill="#e8daca"
           d="m 1777.5,1563.5 c 0.67,0 1,0.33 1,1 0.25,2.17 1.25,3.84 3,5 0.16,2.03 0,4.03 -0.5,6 -7.51,10.65 -6.34,20.32 3.5,29 2.78,2.2 5.12,4.87 7,8 1.52,2.22 2.52,4.72 3,7.5 -0.35,1.26 -1.02,1.59 -2,1 -0.81,-1.11 -1.47,-2.28 -2,-3.5 -0.39,-2.21 -1.73,-3.54 -4,-4 -11.26,-8.46 -16.42,-19.79 -15.5,-34 2.31,-5.48 4.48,-10.82 6.5,-16 z"
           id="path13689" />
      </g>
      <g
         id="g13695">
        <path
           style="opacity:1"
           fill="#683a32"
           d="m 1778.5,1564.5 c 1.67,1 3,2.33 4,4 -0.67,0 -1,0.33 -1,1 -1.75,-1.16 -2.75,-2.83 -3,-5 z"
           id="path13693" />
      </g>
      <g
         id="g13699">
        <path
           style="opacity:1"
           fill="#0f0705"
           d="m 1782.5,1568.5 c 9.16,10.31 15.16,22.31 18,36 0.16,2.03 0,4.03 -0.5,6 -2.25,-4.03 -5.41,-7.03 -9.5,-9 -1.7,-1.63 -2.7,-1.3 -3,1 -0.72,1.05 -1.72,1.72 -3,2 -9.84,-8.68 -11.01,-18.35 -3.5,-29 0.5,-1.97 0.66,-3.97 0.5,-6 0,-0.67 0.33,-1 1,-1 z"
           id="path13697" />
      </g>
      <g
         id="g13703">
        <path
           style="opacity:1"
           fill="#e5cfbd"
           d="m 263.5,1580.5 c 0.65,1.94 0.983,3.94 1,6 0.291,5.16 0.624,10.33 1,15.5 -0.333,2.5 -0.667,5 -1,7.5 -0.886,-0.82 -1.219,-1.82 -1,-3 -0.643,-6.52 -1.643,-12.85 -3,-19 -1.003,-5.02 -1.003,-10.02 0,-15 1.983,2.31 2.983,4.98 3,8 z"
           id="path13701" />
      </g>
      <g
         id="g13707">
        <path
           style="opacity:1"
           fill="#5e2a1e"
           d="m 264.5,1575.5 c 1.333,3.67 1.333,7.33 0,11 -0.017,-2.06 -0.35,-4.06 -1,-6 0.951,-1.42 1.284,-3.09 1,-5 z"
           id="path13705" />
      </g>
      <g
         id="g13711">
        <path
           style="opacity:1"
           fill="#d6c2b3"
           d="m 258.5,1593.5 c 0.456,4.16 1.122,8.16 2,12 0.563,6.64 -0.437,7.31 -3,2 -1.41,-10.05 -3.077,-20.05 -5,-30 0.774,-1.21 1.607,-1.21 2.5,0 1.487,5.28 2.653,10.61 3.5,16 z"
           id="path13709" />
      </g>
      <g
         id="g13715">
        <path
           style="opacity:1"
           fill="#d1bcaf"
           d="m 253.5,1603.5 c -0.438,1.01 -1.104,1.01 -2,0 -3.421,-7.59 -4.921,-15.59 -4.5,-24 3.407,7.62 5.574,15.62 6.5,24 z"
           id="path13713" />
      </g>
      <g
         id="g13719">
        <path
           style="opacity:1"
           fill="#854537"
           d="m 260.5,1587.5 c 1.357,6.15 2.357,12.48 3,19 -0.891,-0.61 -1.891,-0.94 -3,-1 -0.878,-3.84 -1.544,-7.84 -2,-12 0.722,0.42 1.222,1.08 1.5,2 0.497,-2.65 0.664,-5.31 0.5,-8 z"
           id="path13717" />
      </g>
      <g
         id="g13723">
        <path
           style="opacity:1"
           fill="#6c362b"
           d="m 1787.5,1602.5 c 2.39,1.39 4.06,3.39 5,6 0.27,1.6 -0.07,2.93 -1,4 -1.88,-3.13 -4.22,-5.8 -7,-8 1.28,-0.28 2.28,-0.95 3,-2 z"
           id="path13721" />
      </g>
      <g
         id="g13727">
        <path
           style="opacity:1"
           fill="#5e2a1e"
           d="m 251.5,1603.5 c 0.896,1.01 1.562,1.01 2,0 0.901,0.79 1.568,1.79 2,3 -2.053,0.1 -3.72,-0.57 -5,-2 0.667,0 1,-0.33 1,-1 z"
           id="path13725" />
      </g>
      <g
         id="g13731">
        <path
           style="opacity:1"
           fill="#713629"
           d="m 1790.5,1601.5 c 4.09,1.97 7.25,4.97 9.5,9 0.5,-1.97 0.66,-3.97 0.5,-6 1.13,2.47 1.3,5.13 0.5,8 -0.67,0.75 -1.5,1.09 -2.5,1 -2.13,-4.23 -4.8,-8.23 -8,-12 z"
           id="path13729" />
      </g>
      <g
         id="g13735">
        <path
           style="opacity:1"
           fill="#e8d4bf"
           d="m 1790.5,1601.5 c 3.2,3.77 5.87,7.77 8,12 0.93,1.74 0.93,3.41 0,5 -1.01,-4.02 -3.01,-7.36 -6,-10 -0.94,-2.61 -2.61,-4.61 -5,-6 0.3,-2.3 1.3,-2.63 3,-1 z"
           id="path13733" />
      </g>
      <g
         id="g13739">
        <path
           style="opacity:1"
           fill="#67392e"
           d="m 1784.5,1613.5 c 0.67,0 1.33,0 2,0 2.27,0.46 3.61,1.79 4,4 -2.3,-0.97 -4.3,-2.31 -6,-4 z"
           id="path13737" />
      </g>
      <g
         id="g13743">
        <path
           style="opacity:1"
           fill="#e6d9c9"
           d="m 957.5,1801.5 c 1,0 2,0 3,0 -0.903,10.12 2.43,18.62 10,25.5 5.13,0.13 10.13,-0.71 15,-2.5 1.762,0.14 3.429,-0.19 5,-1 0.963,0.47 0.963,1.14 0,2 -4.173,1 -8.173,2.5 -12,4.5 -5,0.67 -10,0.67 -15,0 -0.828,-0.91 -1.828,-1.58 -3,-2 -5.373,-8.29 -6.373,-17.12 -3,-26.5 z"
           id="path13741" />
      </g>
      <g
         id="g13747">
        <path
           style="opacity:1"
           fill="#bb9c8e"
           d="m 990.5,1825.5 c 0.963,-0.86 0.963,-1.53 0,-2 -1.571,0.81 -3.238,1.14 -5,1 5.075,-2.37 10.075,-5.04 15,-8 1.21,0.77 1.21,1.61 0,2.5 -3.22,2.44 -6.553,4.6 -10,6.5 z"
           id="path13745" />
      </g>
      <g
         id="g13751">
        <path
           style="opacity:1"
           fill="#5e2a1e"
           d="m 929.5,1825.5 c -0.172,0.99 0.162,1.66 1,2 -1.1,1.06 -2.434,1.89 -4,2.5 -0.752,0.67 -1.086,1.5 -1,2.5 -0.739,0.13 -1.406,-0.04 -2,-0.5 1.498,-2.66 3.498,-4.83 6,-6.5 z"
           id="path13749" />
      </g>
      <g
         id="g13755">
        <path
           style="opacity:1"
           fill="#ddcab9"
           d="m 947.5,1836.5 c -1.21,0.43 -2.21,1.1 -3,2 -4.285,0.79 -8.619,1.13 -13,1 0,-0.67 -0.333,-1 -1,-1 -3.263,-0.17 -4.93,-1.84 -5,-5 0,-0.33 0,-0.67 0,-1 -0.086,-1 0.248,-1.83 1,-2.5 1.566,-0.61 2.9,-1.44 4,-2.5 2.803,-1.81 5.803,-3.14 9,-4 -1.405,2.6 -2.572,5.26 -3.5,8 5.698,-1.78 11.531,-2.61 17.5,-2.5 -1.543,1.88 -3.376,3.38 -5.5,4.5 -0.483,0.95 -0.649,1.95 -0.5,3 z"
           id="path13753" />
      </g>
      <g
         id="g13759">
        <path
           style="opacity:1"
           fill="#33201c"
           d="m 940.5,1832.5 c 1.175,-0.22 2.175,0.11 3,1 -4.341,2.63 -9.008,3.46 -14,2.5 -0.457,-0.41 -0.791,-0.91 -1,-1.5 4.077,0.25 8.077,-0.41 12,-2 z"
           id="path13757" />
      </g>
      <g
         id="g13763">
        <path
           style="opacity:1"
           fill="#a03e2c"
           d="m 925.5,1833.5 c 0.07,3.16 1.737,4.83 5,5 -2.956,1.5 -5.289,0.67 -7,-2.5 0.566,-0.99 1.233,-1.83 2,-2.5 z"
           id="path13761" />
      </g>
      <g
         id="g13767">
        <path
           style="opacity:1"
           fill="#b23f2a"
           d="m 944.5,1838.5 c -0.111,0.62 -0.444,1.12 -1,1.5 -4.189,0.81 -8.189,0.65 -12,-0.5 4.381,0.13 8.715,-0.21 13,-1 z"
           id="path13765" />
      </g>
      <g
         id="g13771">
        <path
           style="opacity:1"
           fill="#e9dccc"
           d="m 870.5,1841.5 c 1.756,1.05 2.423,2.72 2,5 -0.754,2.59 -2.421,4.42 -5,5.5 -8.277,3.12 -16.611,3.28 -25,0.5 -0.746,-1.24 -1.079,-2.57 -1,-4 10.785,1.74 20.452,-0.59 29,-7 z"
           id="path13769" />
      </g>
      <g
         id="g13775">
        <path
           style="opacity:1"
           fill="#714138"
           d="m 870.5,1841.5 c 0.235,-0.6 0.735,-0.93 1.5,-1 1.011,0.56 1.844,1.22 2.5,2 0.295,2.24 -0.039,4.24 -1,6 0.172,-0.99 -0.162,-1.66 -1,-2 0.423,-2.28 -0.244,-3.95 -2,-5 z"
           id="path13773" />
      </g>
      <g
         id="g13779">
        <path
           style="opacity:1"
           fill="#e8d8c7"
           d="m 853.5,1875.5 c 0,0.67 0,1.33 0,2 -0.718,5.51 -2.384,10.84 -5,16 -0.994,-4.96 -1.327,-9.96 -1,-15 0.16,-1.7 -0.006,-3.37 -0.5,-5 -1.454,2.57 -2.62,5.24 -3.5,8 -0.847,3.32 -2.014,6.65 -3.5,10 -0.383,-0.56 -0.883,-0.89 -1.5,-1 0.841,-1.88 1.175,-3.88 1,-6 0.515,-4.71 1.348,-9.37 2.5,-14 1.167,-1.83 2.333,-3.67 3.5,-5.5 0.949,-0.62 1.782,-0.45 2.5,0.5 2.114,3.23 3.947,6.57 5.5,10 z"
           id="path13777" />
      </g>
      <g
         id="g13783">
        <path
           style="opacity:1"
           fill="#e5d1bf"
           d="m 855.5,1869.5 c 1.25,0.08 2.083,0.74 2.5,2 1.255,5.01 1.422,10.01 0.5,15 -0.798,-0.46 -1.131,-1.12 -1,-2 -1.274,-2.49 -1.94,-5.16 -2,-8 0,-2.33 0,-4.67 0,-7 z"
           id="path13781" />
      </g>
      <g
         id="g13787">
        <path
           style="opacity:1"
           fill="#89615e"
           d="m 855.5,1869.5 c 0,2.33 0,4.67 0,7 -0.722,0.42 -1.222,1.08 -1.5,2 -0.399,-0.23 -0.565,-0.56 -0.5,-1 0,-0.67 0,-1.33 0,-2 0.667,-2 1.333,-4 2,-6 z"
           id="path13785" />
      </g>
      <g
         id="g13791">
        <path
           style="opacity:1"
           fill="#6d3124"
           d="m 838.5,1871.5 c -0.318,4.53 0.015,8.87 1,13 0.175,2.12 -0.159,4.12 -1,6 -1.333,-6.33 -1.333,-12.67 0,-19 z"
           id="path13789" />
      </g>
      <g
         id="g13795">
        <path
           style="opacity:1"
           fill="#784035"
           d="m 847.5,1878.5 c -1.333,1 -2.667,2 -4,3 0.88,-2.76 2.046,-5.43 3.5,-8 0.494,1.63 0.66,3.3 0.5,5 z"
           id="path13793" />
      </g>
    </g>
  </g>
</svg>
