<?xml version="1.0" encoding="UTF-8" standalone="no"?>
<!-- Created with Inkscape (http://www.inkscape.org/) -->

<svg
   version="1.1"
   id="svg2"
   width="1456"
   height="816"
   viewBox="0 0 1456 816"
   sodipodi:docname="sheep2.svg"
   inkscape:version="1.1.2 (b8e25be833, 2022-02-05)"
   xmlns:inkscape="http://www.inkscape.org/namespaces/inkscape"
   xmlns:sodipodi="http://sodipodi.sourceforge.net/DTD/sodipodi-0.dtd"
   xmlns="http://www.w3.org/2000/svg"
   xmlns:svg="http://www.w3.org/2000/svg">
  <defs
     id="defs6" />
  <sodipodi:namedview
     id="namedview4"
     pagecolor="#ffffff"
     bordercolor="#666666"
     borderopacity="1.0"
     inkscape:pageshadow="2"
     inkscape:pageopacity="0.0"
     inkscape:pagecheckerboard="0"
     showgrid="false"
     inkscape:zoom="0.32684263"
     inkscape:cx="1349.2732"
     inkscape:cy="570.61101"
     inkscape:window-width="1920"
     inkscape:window-height="991"
     inkscape:window-x="-9"
     inkscape:window-y="-9"
     inkscape:window-maximized="1"
     inkscape:current-layer="g8" />
  <g
     inkscape:groupmode="layer"
     inkscape:label="Image"
     id="g8">
    <g
       id="g27432"
       transform="translate(73.429835,0.76489409)">
      <path
         style="fill:#ede2cf"
         d="m 609.88263,780.23094 -1.5567,-2.2225 v -1.85068 -1.85069 l -3.92022,-20.17681 -3.92021,-20.17681 -3.55204,-18.5 -3.55203,-18.5 -4.0325,-23.5551 -4.03251,-23.5551 -3.37398,-24.42912 -3.37398,-24.42913 0.41625,-1.08473 0.41626,-1.08474 4.25545,-2.06746 4.25545,-2.06746 2.71009,1.41996 2.7101,1.41997 2.17716,-1.16518 2.17715,-1.16518 -1.87135,-1.36837 -1.87135,-1.36836 -2.55887,-0.15753 -2.55887,-0.15754 -1.5,0.23289 -1.5,0.23289 -6.88878,0.87856 -6.88879,0.87855 -3.11121,-1.67272 -3.11122,-1.67273 -4.25153,0.30902 -4.25154,0.30901 -4.34981,-4.47563 -4.34982,-4.47563 -2.08985,-0.6633 -2.08985,-0.66329 -3.55714,-4.95128 -3.55713,-4.95127 h -3.96648 -3.96648 l -1.00091,-1.87022 -1.00091,-1.87022 -3.8447,1.02621 -3.84469,1.02621 -2.43958,-0.61256 -2.43958,-0.61256 -1.78644,-1.30666 -1.78644,-1.30666 -1.36377,-3.98677 -1.36377,-3.98677 -3.01534,-0.30706 -3.01533,-0.30706 -2.67176,-2.4761 -2.67175,-2.4761 -3.37646,1.22094 -3.37646,1.22095 -1.98592,-1.79723 -1.98592,-1.79723 -0.30032,-4.64056 -0.30032,-4.64055 -5.15683,0.33505 -5.15684,0.33504 -2.34316,-1.20208 -2.34317,-1.20209 -1.72776,-2.13296 -1.72777,-2.13296 -0.0412,-3 -0.0412,-3 -2.89592,-4.61036 -2.89592,-4.61036 -4.79562,-0.54053 -4.79562,-0.54054 -1.5586,-1.92478 -1.55859,-1.92479 -2.67699,-1.75403 -2.67698,-1.75402 -1.23028,-5.6703 -1.23028,-5.67029 -3.42087,-3.86055 -3.42088,-3.86055 0.48054,-3.13945 0.48054,-3.13945 -3.35055,-4.12838 -3.35056,-4.12838 0.58635,-5.37162 0.58634,-5.37162 1.41351,-2.26451 1.4135,-2.26452 -3.58645,-2.11606 -3.58646,-2.11606 -3.52151,-4.61199 -3.52152,-4.61198 0.24319,-9.00744 0.24319,-9.00744 0.84625,-2.352 0.84625,-2.35201 -2.81164,-3.20229 -2.81165,-3.20228 -1.36569,-3.29708 -1.3657,-3.29708 1.28243,-6.64863 1.28242,-6.64863 3.07705,-3.25 3.07705,-3.25 h 1.25678 1.25678 l 2.54706,-1.16052 2.54705,-1.16051 v -1.03573 -1.03574 l -2.39743,-3.55375 -2.39744,-3.55375 0.52913,-5.84478 0.52912,-5.84479 2.94212,-1.78921 2.94212,-1.78921 3.92619,-0.62782 3.92619,-0.62783 v -2.29705 -2.29705 l -1.48378,-1.94113 -1.48377,-1.94113 -1.03235,-3.66675 -1.03236,-3.66676 2.5258,-4.75037 2.5258,-4.75037 4.02375,-4.06397 4.02375,-4.06398 4.21658,-1.6438 4.21658,-1.64381 0.56841,-4.8751 0.56841,-4.87509 1.90026,-3.16356 1.90025,-3.16356 2.53133,-1.46551 2.53134,-1.4655 6.63933,-0.68868 6.63932,-0.68867 2.24977,-2.39478 2.24977,-2.39477 1.12548,-2.25747 1.12547,-2.25747 3.48543,-2.35244 3.48543,-2.35243 2.93314,0.58405 2.93315,0.58405 2.77728,-2.66081 2.77728,-2.6608 -0.57622,-4.20399 -0.57623,-4.20399 2.25094,-2.09706 2.25093,-2.09706 3.11486,-0.64794 3.11487,-0.64793 2.5,-1.65184 2.5,-1.65184 1.96661,-0.5372 1.96662,-0.53721 0.65196,-3.18775 0.65197,-3.18774 1.76376,-2.77505 1.76377,-2.77505 2.04197,-2.25 2.04197,-2.25 h 5.11424 5.11425 l 3.92288,2 3.92288,2 h 1.28856 1.28856 v -3.4433 -3.44329 l 2.22251,-1.55671 2.2225,-1.5567 h 1.81268 1.81268 l 2.21481,-1.38776 2.21482,-1.38776 3.61271,-0.6318 3.61271,-0.6318 1.88729,-2.09523 1.88729,-2.09524 -3.49254,-2.63521 -3.49255,-2.6352 -4.68007,-4.31446 -4.68008,-4.31446 -3.53794,-5.18554 -3.53794,-5.18554 -2.95891,-9 -2.95891,-9 -0.65721,-7.5 -0.65722,-7.5 1.09701,-8.68726 1.09702,-8.68725 3.41768,-11.1317 3.41768,-11.1317 3.12592,-6.68104 3.12591,-6.68105 6.33259,-9.5 6.33259,-9.5 11.0032,-12 11.00321,-12 -0.26971,-0.28665 -0.2697,-0.28666 -5.38002,2.15317 -5.38001,2.15316 -8.44843,2.88716 -8.44843,2.88715 -9.05157,1.58585 -9.05157,1.58584 -6.75405,-0.65046 -6.75405,-0.65046 -7.10954,-2.41811 -7.10954,-2.41811 -4.95291,-3.77094 -4.9529,-3.77094 -3.79547,-5 -3.79547,-5 -1.12041,-3.34867 -1.12041,-3.34867 1.092,-2.04043 1.09201,-2.04043 8.64037,0.68402 8.64037,0.68402 19.5,1.46406 19.5,1.46405 22.25,0.65024 22.25,0.65023 v -1.72131 -1.72132 l 1.53898,-4.70517 1.53899,-4.70517 5.04949,-5.98273 5.04949,-5.98272 3.16152,-1.14918 3.16153,-1.14917 1.57874,1.39917 1.57874,1.39918 h 1.68483 1.68483 l 2.23643,-1.15613 2.23643,-1.15613 1.73643,-0.84387 1.73643,-0.84387 2.76357,0.006 2.76357,0.006 2.99151,1.55984 2.99151,1.55983 2.00849,-2.4703 2.00849,-2.4703 3.9916,-1.64561 3.9916,-1.64562 5.5084,0.26496 5.5084,0.26496 4.15685,-2.34683 4.15685,-2.34682 2.56547,0.64389 2.56548,0.64389 2.04981,2.20021 2.04981,2.20022 0.60567,3.78768 0.60568,3.78768 1.62219,0.1508 1.62219,0.1508 2.57743,-0.19166 2.57743,-0.19166 2.48557,0.94501 2.48556,0.94501 1.38669,4.34585 1.38669,4.34585 0.16336,2.5 0.16337,2.5 0.13695,1.25 0.13688,1.25032 h 3.46104 3.46105 l 1.78895,1.79554 1.78896,1.79554 2.76473,1.18973 2.76473,1.18973 1.19347,2.6194 1.19348,2.61939 -1.70821,2.97638 -1.7082,2.97637 v 2.26397 2.26397 l 2.10238,1.90263 2.10238,1.90263 1.479,2.86006 1.47899,2.86007 -0.59466,2.36931 -0.59466,2.36932 3.87793,2.56629 3.87793,2.56629 2.50813,4.70669 2.50813,4.70669 0.61601,2.6294 0.61601,2.6294 -1.94115,2.46776 -1.94114,2.46777 2.82967,2.09206 2.82967,2.09206 0.63815,3.40165 0.63815,3.40165 -1.51546,3.627 -1.51546,3.62701 v 1.4083 1.4083 l 5.75,6.32721 5.75,6.32721 8.18248,8.16109 8.18248,8.16109 5.85268,4.38552 5.85269,4.38552 2.46484,1.65685 2.46483,1.65685 -1.06211,1.76883 -1.06211,1.76884 -5.43789,1.89185 -5.43789,1.89185 -8,0.0287 -8,0.0287 -6.84646,-2.1662 -6.84646,-2.1662 -1.40354,0.53859 -1.40354,0.53859 v 2.08095 2.08095 l 3.52623,3.63084 3.52622,3.63084 0.60156,2.3968 0.60156,2.39681 -0.87778,5.17279 -0.87779,5.17277 -2.37745,0.33625 -2.37745,0.33626 4.83004,4.90378 4.83005,4.90379 0.0949,4.25996 0.0949,4.25996 0.80645,2.73235 0.80646,2.73235 -1.03601,2.97189 -1.03601,2.97189 1.02788,3.79576 1.02788,3.79576 1.99854,2.16492 1.99854,2.16493 -0.64245,2.02417 -0.64245,2.02417 2.08497,1.11584 2.08496,1.11584 2.3014,5.19506 2.30141,5.19507 1.66169,1.37244 1.66169,1.37245 v 3.68643 3.68642 l -1.25,1.53607 -1.25,1.53607 -3.25,2.22315 -3.25,2.22316 v 1.08551 1.08552 l 3.75,3.59639 3.75,3.59639 2,3.41782 2,3.41783 2.23355,3.58217 2.23355,3.58218 0.0165,3.62427 0.0164,3.62428 -1.51794,4.30228 -1.51793,4.30229 2.50902,2.61886 2.50903,2.61886 0.62173,4.53606 0.62174,4.53606 -1.65291,3.19638 -1.65291,3.19638 0.65954,3.51565 0.65954,3.51566 1.0984,-0.36613 1.09841,-0.36614 5.78479,-11.02778 5.78479,-11.02779 2.02596,-7.89959 2.02596,-7.8996 0.56172,-7.5 0.56172,-7.5 1.00769,-3.31202 1.00769,-3.31202 2.28276,-0.8679 2.28276,-0.8679 5.77578,0.78379 5.77578,0.78379 1.41113,1.89613 1.41112,1.89613 -0.65087,5.5 -0.65087,5.5 -1.91268,7.21618 -1.91268,7.21619 -2.37015,6.29691 -2.37015,6.29691 -3.04336,5.9869 -3.04335,5.98691 -4.96484,7 -4.96483,7 -5.96854,6.5 -5.96854,6.5 -1.19069,2.24673 -1.19069,2.24674 -3.95057,2.01543 -3.95056,2.01542 -0.60077,2.39365 -0.60077,2.39365 1.63251,2.49152 1.63251,2.49152 -2.044,3.35267 -2.044,3.35267 -0.004,2.62942 -0.004,2.62942 -4.15718,4.28368 -4.15717,4.28369 3.65717,2.93389 3.65718,2.93389 v 1.78056 1.78056 l 1.5,1.24489 1.5,1.24489 v 2.51974 2.51974 l -4.55108,5.32709 -4.55107,5.3271 0.66987,3.57071 0.66987,3.57072 -1.79358,1.98188 -1.79357,1.98188 1.67478,3.51205 1.67478,3.51205 v 3.43003 3.43002 l -3.73213,2.53605 -3.73214,2.53605 h -1.79925 -1.79925 l -0.51819,1.75 -0.51819,1.75 -1.95042,3.69812 -1.95043,3.69812 v 2.11762 2.11762 l -1.08408,2.02563 -1.08409,2.02563 -0.38,5.94602 -0.38001,5.94601 -0.54145,0.87609 -0.54146,0.87609 -4.48819,2.1727 -4.4882,2.1727 -0.86537,3.16383 -0.86537,3.16382 1.85911,2.06445 1.85911,2.06445 v 1.11297 1.11297 l -2.63486,2.07258 -2.63486,2.07258 h -1.86462 -1.86462 l -4.96215,2.75 -4.96216,2.75 -2.18844,5.82528 -2.18845,5.82529 -2.34992,1.53972 -2.34992,1.53973 v 1.86194 1.86193 l -2.50177,1.63923 -2.50177,1.63922 -2.03092,-0.5311 -2.03092,-0.5311 -1.58232,2.41493 -1.58232,2.41493 h -2.18499 -2.18499 l -1.0821,-1.0821 -1.0821,-1.0821 -2.3679,1.23752 -2.3679,1.23753 -1.49657,0.7014 -1.49656,0.70139 -2.55935,4.39318 -2.55934,4.39318 -4.23345,1.48273 -4.23345,1.48272 -0.59495,2.51728 -0.59495,2.51727 -1.55496,1.78788 -1.55496,1.78789 -2.60576,-0.57232 -2.60576,-0.57232 -4.83183,2.13734 -4.83183,2.13735 -6.27165,-0.67163 -6.27165,-0.67164 -0.66051,1.06872 -0.6605,1.06873 h -2.47617 -2.47617 l -2.46982,-1.61829 -2.46982,-1.61829 -1.495,1.24073 -1.49499,1.24074 v 0.87755 0.87756 h 1.57946 1.57945 l -0.62618,2.85099 -0.62618,2.85099 12.79672,8.48165 12.79673,8.48164 4.63284,2.64086 4.63284,2.64086 0.60752,1.58318 0.60753,1.58319 -2.49037,2.30799 -2.49036,2.30799 v 1.63533 1.63533 l -2.02292,2.02292 -2.02292,2.02292 -2.22708,-1.16669 -2.22708,-1.16668 -8,-6.23132 -8,-6.23132 -10.43202,-9.12492 -10.43143,-9.12491 h -3.92994 -3.92993 l 0.49847,31.75 0.49846,31.75 1.64067,13 1.64067,13 1.55264,8.5 1.55264,8.5 3.96553,16 3.96553,16 2.55559,8.5 2.55559,8.5 3.8624,9.76374 3.8624,9.76373 -0.59973,1.56287 -0.59973,1.56287 -2.42871,0.92339 -2.42872,0.9234 h -5.3782 -5.37819 z"
         id="path27446" />
      <path
         style="fill:#e1d3bb"
         d="m 611.1222,780.67464 -1.46157,-1.72119 -4.72859,-25 -4.72858,-25 -2.92339,-15 -2.9234,-15 -4.00999,-23.5 -4.00999,-23.5 -3.50538,-25.31457 -3.50538,-25.31458 v -0.9151 -0.9151 l 4.10926,-2.09639 4.10926,-2.09639 2.9358,1.21605 2.9358,1.21605 2.62233,-1.19482 2.62233,-1.19481 -1.91739,-1.90756 -1.91739,-1.90756 -4,0.017 -4,0.017 -8.41947,0.38336 -8.41948,0.38337 -1.90325,-1.33309 -1.90325,-1.33309 -3.90617,0.52393 -3.90617,0.52393 -2.44526,-1.6022 -2.44526,-1.6022 -0.61671,-1.94306 -0.6167,-1.94306 -2.78573,-0.97111 -2.78573,-0.97111 -4.79488,-5.61247 -4.79489,-5.61247 h -3.77153 -3.77154 l -0.58708,-1.52989 -0.58707,-1.52989 -6.3311,0.64864 -6.3311,0.64864 -2.68881,-3.19548 -2.68882,-3.19547 v -1.72328 -1.72327 l -1.2,-1.2 -1.2,-1.2 h -2.62569 -2.62568 l -2.34863,-2.5 -2.34863,-2.5 h -1.33925 -1.33926 l -1.98988,1.24271 -1.98989,1.2427 -1.74655,-1.09455 -1.74654,-1.09455 -0.31875,-4.37854 -0.31876,-4.37853 -0.91557,-1.10319 -0.91556,-1.1032 -5.31188,0.44051 -5.31187,0.4405 -3.20381,-2.69582 -3.2038,-2.69583 v -2.98303 -2.98304 l -2.67797,-4.67807 -2.67796,-4.67807 -0.30146,-0.39609 -0.30146,-0.39609 -4.77058,-0.76218 -4.77057,-0.76217 -4.28502,-3.97046 -4.28503,-3.97046 -0.96497,-3.36467 -0.96498,-3.36463 v -2.72141 -2.72142 l -1.98965,-1.06483 -1.98965,-1.06483 -1.4568,-2.81714 -1.4568,-2.81713 0.55499,-2.12228 0.55499,-2.12227 -3.10854,-3.92485 -3.10854,-3.92485 v -4.23806 -4.23806 l 2.1683,-3.50839 2.1683,-3.50838 -1.85943,-1.35965 -1.85943,-1.35965 h -1.10592 -1.10592 l -3.58472,-3.75 -3.58471,-3.75 -0.99968,-2 -0.99967,-2 1.0687,-9.71251 1.06869,-9.71251 3.15563,0.11863 3.15562,0.11864 1.15712,-0.71514 1.15712,-0.71514 v -4.40494 -4.40493 l 3.75,-2.56731 3.75,-2.56731 1,1.78126 1,1.78126 3.78641,3.63 3.78641,3.63001 -2.56344,3.04648 -2.56344,3.04647 -2.90387,0.6378 -2.90387,0.6378 -1.22672,1.4781 -1.22672,1.4781 1.15762,1.15762 1.15762,1.15762 v 0.77432 0.77432 l -2.8729,1.48563 -2.87289,1.48563 -0.52387,2.00328 -0.52387,2.00328 1.1965,0.99301 1.1965,0.99301 1.29271,5.0439 1.29271,5.0439 2.54242,1.99986 2.54241,1.99986 h 3.71015 3.71015 l 1.80998,-2 1.80998,-2 h 1.15792 1.15792 l 2.80592,2.92875 2.80592,2.92875 -2.0109,2.82125 -2.01091,2.82125 -2.10792,1.90499 -2.10793,1.90499 v 1.31933 1.31933 l 3.13228,1.61976 3.13228,1.61977 3.11772,-0.65009 3.11772,-0.65009 4.06972,0.084 4.06971,0.084 1.77042,-1.95629 1.77042,-1.95629 -0.65496,-2.06357 -0.65495,-2.06357 2.56482,-1.16861 2.56482,-1.16861 v -1.30094 -1.30094 l -4,-1.07709 -4,-1.07709 v -2.30094 -2.30094 l -2.55639,-1.16477 -2.55639,-1.16477 0.64899,-1.05008 0.64899,-1.05008 2.37222,1.55433 2.37221,1.55434 h 2.03519 2.03518 v -1.41111 -1.4111 l 3.12571,-2.63012 3.12571,-2.63011 1.70303,1.54122 1.70303,1.54122 h 2.67126 2.67126 l 1.95173,-1.95173 1.95172,-1.95172 2.67244,3.20172 2.67243,3.20173 1.36306,0.79254 1.36305,0.79253 4.76279,-1.40402 4.76278,-1.40402 2,0.7912 2,0.7912 2.42126,0.0703 2.42126,0.0703 1.67197,-1.51312 1.67198,-1.51311 4.56212,2.01805 4.56213,2.01804 1.55657,-0.59731 1.55658,-0.59731 0.60893,-1.91859 0.60894,-1.91858 3.17913,-1.60601 3.17913,-1.60601 2.08755,-1.90473 2.08755,-1.90472 2.49137,1.95971 2.49137,1.95971 2.68122,0.67294 2.68122,0.67295 3.50513,-2.6735 3.50514,-2.67349 1.84354,0.58512 1.84354,0.58512 1.0033,-1.27258 1.0033,-1.27258 0.65693,-2.75 0.65694,-2.75 h 1.35851 1.3585 l 1.24489,-1.5 1.24489,-1.5 h 0.87755 0.87756 v 2.29705 2.29705 l 3.92945,3.83701 3.92946,3.83701 1.57054,-0.60267 1.57055,-0.60279 v -2.06277 -2.06277 l 1.51273,-0.58049 1.51274,-0.58049 1.47428,1.22354 1.47428,1.22354 2.4948,-0.62615 2.49479,-0.62615 1.45225,-2.80835 1.45226,-2.80835 1.43859,-1.19392 1.43858,-1.19392 5.16525,1.10775 5.16525,1.10774 1.48287,-1.23067 1.48288,-1.23068 1.10083,-4.37179 1.10083,-4.37178 2.38134,-0.59768 2.38135,-0.59768 2.49346,-2.9633 2.49345,-2.96331 -0.97688,-1.82533 -0.97689,-1.82532 2.48048,-1.62527 2.48048,-1.62528 v -1.32413 -1.32413 l -2.25,-1.00411 -2.25,-1.0041 -0.0693,-5.89871 -0.0693,-5.89871 -0.77894,-2.17957 -0.77895,-2.17957 3.86838,-1.9735 3.86837,-1.9735 4.71209,0.53112 4.71208,0.53112 0.68024,-1.77266 0.68023,-1.77266 -1.66248,-1.21563 -1.66248,-1.21564 v -1.03134 -1.03135 l 2.52052,-0.63261 2.52052,-0.63261 1.74067,0.93157 1.74067,0.93158 1.8938,2.09263 1.8938,2.09262 2.09501,0.009 2.09501,0.009 2.70854,-3.25902 2.70854,-3.25901 3.1225,1.75 3.1225,1.75 h 0.87092 0.87092 l 3.04643,-4.42784 3.04644,-4.42785 5.63328,-0.70383 5.63328,-0.70383 1.74333,-1.74333 1.74332,-1.74332 0.46136,-1.375 0.46137,-1.375 2.59617,1.38288 2.59618,1.38287 1.56746,-0.60149 1.56746,-0.60149 v -2.04756 -2.04757 l 3.40621,-1.6243 3.4062,-1.62431 1.19588,-2.23452 1.19588,-2.23452 -2.10208,-4.75211 -2.10209,-4.75212 v -1.87288 -1.87288 h 2.37756 2.37755 l 1.31271,-1.58172 1.31271,-1.58172 3.5369,-1.66828 3.5369,-1.66828 0.99446,-2.83128 0.99446,-2.83128 -1.72162,-2.99976 -1.72163,-2.99976 v -0.95945 -0.95946 l 2.19313,-2.96637 2.19314,-2.96637 -1.01676,-1.01676 -1.01677,-1.01677 -1.83136,2.02363 -1.83136,2.02363 h -2.34501 -2.34501 v -2.37788 -2.37787 l -1.44017,-3.37213 -1.44017,-3.37212 -3.11677,-2.88851 -3.11677,-2.8885 -2.39286,1.28062 -2.39286,1.28062 -3.3002,-1.33534 -3.3002,-1.33534 -0.73469,-1.05678 -0.73468,-1.05677 -0.0153,-2.75 -0.0153,-2.74997 h -1.97006 -1.97007 l -2.21055,2.98994 -2.21056,2.98994 -1.6785,0.53273 -1.67851,0.53274 -1.64087,-0.62966 -1.64088,-0.62967 v -1.06427 -1.06427 l 1.63612,-1.80789 1.63612,-1.80789 -1.62361,-0.62304 -1.6236,-0.62303 -3.16174,1.10218 -3.16174,1.10219 h -2.37552 -2.37553 l -0.9712,-2.55444 -0.97119,-2.55443 -4.6236,-2.04524 -4.6236,-2.04524 -2.83996,2.09968 -2.83996,2.09967 h -1.0405 -1.04049 v -7 -7 h -1.37427 -1.37428 l -4.28171,1.51068 -4.28172,1.51067 -0.46919,-0.46919 -0.46919,-0.46919 1.67655,-4.19011 1.67655,-4.19012 -0.80137,-0.71489 -0.80137,-0.71489 -3.12675,-1.04149 -3.12675,-1.0415 -7.37325,2.0044 -7.37325,2.0044 -8.91201,-0.64754 -8.91201,-0.64755 -5.58799,-1.96133 -5.58799,-1.96134 -5.34626,-3.67857 -5.34625,-3.67858 -0.97335,-2.5601 -0.97335,-2.5601 -1.60676,-1.77546 -1.60677,-1.77546 1.17637,-1.17637 1.17637,-1.17637 v -1.17713 -1.17713 l -6.87152,-5.01363 -6.87152,-5.01363 -4.77691,-6.69423 -4.7769,-6.69423 -2.8051,-8.16501 -2.80509,-8.16501 -0.66096,-9 -0.66095,-9 1.12355,-9.15648 1.12354,-9.15649 3.02229,-9.84351 3.02228,-9.84352 3.02887,-6.5 3.02887,-6.5 7.33682,-11 7.33682,-11 10.5153,-11.5 10.51529,-11.5 -0.2708,-0.27513 -0.27081,-0.27513 -4.73781,2.03086 -4.7378,2.03086 -8.38902,2.96095 -8.38902,2.96096 -9.26471,1.63674 -9.26471,1.63674 -8.51282,-0.57569 -8.51282,-0.57568 -5.72026,-1.96806 -5.72026,-1.96805 -4.40865,-3.03324 -4.40865,-3.03323 -4.00601,-4.55107 -4.00601,-4.55106 -1.60226,-3.37652 -1.60226,-3.37651 v -1.97642 -1.97643 l 1.27011,-1.0541 1.27011,-1.0541 7.47989,0.90857 7.47989,0.90856 21,1.52829 21,1.52828 21.75,0.65411 21.75,0.65411 v -2.22505 -2.22504 l 1.03518,-1.93426 1.03519,-1.93426 h 0.8043 0.8043 l 1.16275,2.55196 1.16275,2.55196 3.42939,1.43289 3.42938,1.43289 0.6274,1.01515 0.62739,1.01515 h 3.50673 3.50672 l 1.6949,0.90708 1.69491,0.90709 2.73935,-0.52366 2.73936,-0.52366 v -2.88343 -2.88342 h 2 2 v 3.55202 3.55202 l 3.03038,1.0564 3.03039,1.05639 1.53503,2.96843 1.53504,2.96843 3.94176,-0.66596 3.94176,-0.66595 0.61782,3.08911 0.61782,3.08911 h 0.875 0.875 l 2.0186,2.0186 2.0186,2.0186 5.75912,-2.8574 5.75911,-2.85739 2.22229,0.99161 2.22228,0.99161 v 0.78817 0.78817 l -1,0.61803 -1,0.61803 v 0.76779 0.76779 l 3.01038,-0.44183 3.01038,-0.44183 3.94016,4.31048 3.94016,4.31047 2.48375,-1.32927 2.48376,-1.32926 2.22738,0.58247 2.22738,0.58248 1.88619,-1.00946 1.8862,-1.00946 0.92738,-2.4392 0.92738,-2.4392 h 2.05613 2.05614 l 0.6014,-1.56722 0.6014,-1.56721 -1.13279,-1.13279 -1.13278,-1.13278 v -1.63948 -1.63949 l 2.5,-1.13908 2.5,-1.13907 v -2.54288 -2.54288 l 2.5,-1.13907 2.5,-1.13908 v -1.83949 -1.83948 h 1.3 1.3 l 1.2,1.2 1.2,1.2 -0.0318,2.55 -0.0318,2.55 -1.46819,1.94113 -1.4682,1.94113 v 1.77407 1.77408 l 2.85335,3.28479 2.85335,3.2848 1.05373,2.01064 1.05374,2.01065 -0.47739,2.4973 -0.47739,2.4973 4.3203,3.057 4.32031,3.05701 2.25,4.54458 2.25,4.54458 v 2.632 2.63199 l -2,1.24902 -2,1.24902 v 1.13814 1.13813 l 2.95655,1.22464 2.95654,1.22464 1.09271,3.31093 1.0927,3.31092 -1.59783,3.82414 -1.59782,3.82414 0.52778,2.10287 0.52779,2.10286 14.77079,14.96773 14.77079,14.96773 6.5,4.80447 6.5,4.80446 v 1.62308 1.62308 l -2.83038,1.35656 -2.83037,1.35657 -7.0048,0.97071 -7.0048,0.97072 -6.73629,-1.04517 -6.73629,-1.04517 -4.30426,-1.51864 -4.30426,-1.51863 h -0.35122 -0.35122 l -1.64706,2.51373 -1.64706,2.51372 4.75079,5.07898 4.75079,5.07898 -0.65143,5.54266 -0.65143,5.54267 -0.53437,0.86463 -0.53437,0.86463 h -3.02432 -3.02432 l 0.33334,0.93992 0.33333,0.93992 3.4762,2.33388 3.47621,2.33387 2.12897,3.15919 2.12898,3.15919 -0.193,10.31701 -0.19299,10.31702 0.73994,2.65212 0.73994,2.65213 2.02366,2.02366 2.02366,2.02366 -0.52021,1.9893 -0.52021,1.98929 2.47181,1.61959 2.4718,1.61958 1.65856,4.34287 1.65856,4.34287 1.96406,1.77745 1.96406,1.77746 v 3.75189 3.75189 l -4.98988,4.17777 -4.98988,4.17776 0.91245,1.70494 0.91245,1.70493 2.51149,1.34411 2.51148,1.3441 1.15732,2.79402 1.15732,2.79402 2.01503,1.8223 2.01504,1.82229 1.89359,3.71016 1.89359,3.71016 v 3.15563 3.15562 l -1.75,4.95895 -1.75,4.95895 2.69525,1.96879 2.69526,1.96879 0.64184,4.28014 0.64185,4.28013 -1.58152,3.78512 -1.58153,3.78511 0.62223,3.89123 0.62224,3.89122 h 0.8213 0.8213 l 2.47565,-3.25 2.47565,-3.25 4.56987,-9.5 4.56988,-9.5 2.04256,-8 2.04257,-8 0.58126,-8 0.58127,-8 1.4744,-2.35655 1.47441,-2.35655 6.65713,0.70493 6.65713,0.70492 1.37275,1.12595 1.37275,1.12594 -0.63605,6.84371 -0.63606,6.84371 -1.97109,7.35537 -1.9711,7.35537 -2.0089,5.09662 -2.0089,5.09662 -2.63767,5.22998 -2.63768,5.22998 -5.84171,8.5 -5.84172,8.5 -7.58646,8.45061 -7.58646,8.45061 -2.80298,1.35752 -2.80298,1.35752 -1.32901,2.48329 -1.32902,2.48328 1.71258,2.89916 1.71258,2.89917 -2.0177,3.30942 -2.01769,3.30942 -0.004,2.66567 -0.004,2.66567 -4,3.79038 -4,3.79039 0.0124,1.04395 0.0124,1.04394 3.48762,2.25919 3.48762,2.2592 v 1.86836 1.86836 l 1.5,1.24489 1.5,1.24489 v 2.51974 2.51974 l -4.55108,5.32709 -4.55107,5.3271 0.66987,3.57071 0.66987,3.57072 -1.79358,1.98188 -1.79357,1.98188 1.67478,3.51205 1.67478,3.51205 -0.0314,3.21608 -0.0314,3.21607 -2.61339,1.90592 -2.61338,1.90591 -3.07116,0.62812 -3.07115,0.62812 -0.63428,3.10128 -0.63428,3.10129 -2.15321,3.0239 -2.1532,3.0239 0.62473,1.62802 0.62473,1.62803 -1.71924,1.89974 -1.71924,1.89974 0.66774,1.08043 0.66774,1.08043 -0.68555,5.487 -0.68556,5.48701 -4.25518,1.88226 -4.25517,1.88227 -0.7082,1.14589 -0.70819,1.14588 -0.86707,3.02327 -0.86706,3.02328 1.94621,1.66639 1.94621,1.6664 v 1.12277 1.12277 l -1.82874,1.65499 -1.82874,1.65499 h -2.29953 -2.29954 l -5.25153,3.00462 -5.25153,3.00462 -2.22472,5.94886 -2.22473,5.94886 -2.39547,1.56957 -2.39547,1.56958 v 1.94176 1.94176 l -2.10223,1.12508 -2.10224,1.12508 -1.89864,-0.4965 -1.89865,-0.49651 -1.89304,2.40661 -1.89304,2.40661 h -1.90608 -1.90608 l -1.02295,-1.02295 -1.02295,-1.02295 -3.58466,1.49777 -3.58466,1.49777 -2.09239,2.66004 -2.09239,2.66004 v 1.24269 1.2427 l -1.64124,1.37245 -1.64125,1.37244 -3.60875,1.02877 -3.60876,1.02878 -1,2.97122 -1,2.97123 -0.8452,1.30855 -0.8452,1.30854 -2.69983,-0.59298 -2.69983,-0.59298 -4.83183,2.13734 -4.83183,2.13735 -6.27165,-0.67163 -6.27165,-0.67164 -0.66051,1.06872 -0.6605,1.06873 h -2.47617 -2.47617 l -2.34273,-1.53502 -2.34274,-1.53502 -3.57975,2.28502 -3.57976,2.28502 -0.0423,0.75 -0.0419,0.75 h 2.5 2.5 l 0.0187,2.25 0.0187,2.25 8.73128,6.08556 8.73129,6.08556 8.83395,5.30142 8.83395,5.30143 0.5844,1.52291 0.5844,1.52292 -2.66835,2.12766 -2.66835,2.12767 v 2.01243 2.01244 l -1.2,1.2 -1.2,1.2 h -1.25718 -1.25718 l -9.79282,-7.40748 -9.79282,-7.40747 -9.92012,-8.75791 -9.92012,-8.75791 -3.84389,-0.7029 -3.84388,-0.7029 -0.60347,2.40442 -0.60348,2.40443 0.51282,29.21386 0.51282,29.21386 1.63184,13 1.63185,13 1.53867,8.5 1.53867,8.5 5.33353,21 5.33353,21 4.68136,12.5 4.68136,12.5 0.50441,2.55688 0.50441,2.55688 -1.33515,1.05582 -1.33516,1.05582 -6.12108,0.60849 -6.12108,0.6085 -1.46157,-1.7212 z m 96.78453,-680.97372 -0.5808,-0.5808 -0.46034,0.46033 -0.46033,0.46034 0.68983,2.45633 0.68983,2.45633 0.35131,-2.33586 0.35131,-2.33587 z m -270.69595,306.00253 -0.11516,-0.75 0.15257,-1.59983 0.15258,-1.59984 -3.95123,-3.56969 -3.95122,-3.56969 0.57179,-0.5718 0.5718,-0.5718 1.38324,1.14799 1.38324,1.14799 4.54537,-2.27007 4.54537,-2.27006 1.0402,1.0402 1.0402,1.0402 -2.05661,3.32767 -2.05661,3.32766 0.0873,1.49554 0.0874,1.49553 -0.15754,1.75 -0.15754,1.75 h -1.5 -1.5 z m 77.67185,-25.47251 -1.5567,-2.2225 v -1.17051 -1.1705 l -1.5,-0.57561 -1.5,-0.5756 -0.0664,-1.78139 -0.0665,-1.78138 -2.92776,-5 -2.92776,-5 -2.14095,-4.5 -2.14096,-4.5 -1.75257,-4 -1.75258,-4 -1.59095,-5 -1.59094,-5 -1.52131,-7.31538 -1.52131,-7.31537 v -3.8632 -3.86319 l 1.46973,-1.46973 1.46973,-1.46973 6.0859,-0.70634 6.0859,-0.70635 1.82,1.64709 1.82001,1.64708 0.68505,6.20756 0.68505,6.20756 2.00431,8 2.00431,8 2.33067,6.5 2.33067,6.5 3.35433,6.36878 3.35434,6.36879 1.17268,0.45853 1.17268,0.45854 2.07732,-2.07732 2.07731,-2.07732 h 1.5 1.5 v 3.5 3.5 h -1.89301 -1.89301 l -0.59078,1.53953 -0.59077,1.53954 1.14161,1.828 1.1416,1.828 -0.63219,1.64747 -0.6322,1.64748 -2.42849,0.9233 -2.42848,0.92331 -0.65616,1.06169 -0.65615,1.06168 h -4.38428 -4.38428 z"
         id="path27444" />
      <path
         style="fill:#d4c6aa"
         d="m 611.56836,780.9107 -2.24243,-1.57066 v -2.01648 -2.01649 l -3.92022,-20.17681 -3.92021,-20.17681 -3.55204,-18.5 -3.55203,-18.5 -4.02253,-23.5 -4.02253,-23.5 -3.43898,-24.84083 -3.43898,-24.84084 0.4718,-1.15916 0.4718,-1.15917 4.04157,-1.87039 4.04157,-1.87039 1.12039,1.12039 1.12039,1.12039 2.55,-0.0153 2.55,-0.0153 1.5,-0.95622 1.5,-0.95622 -1.10257,-1.7683 -1.10258,-1.7683 -4.39742,-0.76343 -4.39743,-0.76344 -2.71804,1.11135 -2.71804,1.11136 -4.28196,-0.60715 -4.28196,-0.60715 -2.3502,-0.004 -2.3502,-0.004 -1.1498,-0.74709 -1.1498,-0.74681 -4.76041,-0.0118 -4.76042,-0.0118 -3.74007,-4.09159 -3.74008,-4.09158 -2.20296,-0.6992 -2.20297,-0.69919 -3.63171,-4.94738 -3.63172,-4.94739 h -3.79286 -3.79286 l -1.39896,-2.10696 -1.39897,-2.10695 -4.25768,1.27563 -4.25768,1.27563 -3.30579,-1.57642 -3.30579,-1.57642 -1.0658,-2.84226 -1.0658,-2.84225 -0.56235,-1.75 -0.56235,-1.75 h -2.09713 -2.09712 l -2.18426,-1.12496 -2.18426,-1.12497 -2.15515,-1.96024 -2.15514,-1.96024 -2.65483,1.73951 -2.65483,1.73952 -1.64278,-1.64278 -1.64278,-1.64277 -0.55187,-4.76154 -0.55187,-4.76153 -4.99537,0.26765 -4.99538,0.26765 -2.70125,-1.11878 -2.70125,-1.11878 -1.54875,-2.36368 -1.54875,-2.36369 v -2.64986 -2.64985 l -2.58884,-4.75656 -2.58885,-4.75656 -5.09114,-0.60297 -5.09115,-0.60297 -2.76364,-3.0258 -2.76364,-3.0258 h -1.00937 -1.00936 l -1.04143,-3.75 -1.04143,-3.75 -0.006,-2.81739 -0.006,-2.81739 1.90324,0.60407 1.90325,0.60407 5.34675,0.84846 5.34676,0.84846 3.02251,-0.46525 3.02252,-0.46525 1.88247,2.08011 1.88248,2.08011 h 1.45065 1.45066 l 2.8494,-2.39762 2.84941,-2.39761 3.79495,1.30252 3.79495,1.30251 1.60238,2.8451 1.60239,2.8451 1.89761,-0.0636 1.89762,-0.0636 3.25,-0.66138 3.25,-0.66139 0.0153,2.225 0.0153,2.225 0.73468,1.11522 0.73469,1.11522 2.5,0.77234 2.5,0.77234 2.38486,1.86244 2.38486,1.86244 h 2.80612 2.80613 l 0.65901,-1.06631 0.65902,-1.06631 -0.11214,-3.18369 -0.11215,-3.18369 -0.25287,-2 -0.25288,-2 -7.80009,-10.49346 -7.80009,-10.49346 -3.10156,-6.49873 -3.10155,-6.49872 v -2.80543 -2.80544 l 1.52381,-1.52381 1.52381,-1.52381 h 5.39752 5.39752 l 4.99533,1.6799 4.99534,1.6799 11.87303,5.82317 11.87303,5.82317 1.78796,-1.1166 1.78795,-1.11659 3.98435,1.19373 3.98434,1.19374 1.61277,-0.61888 1.61277,-0.61887 3.50298,1.66227 3.50297,1.66227 0.9908,-0.61235 0.9908,-0.61235 0.98019,2.57811 0.98019,2.57811 2.51794,0.95731 2.51793,0.95732 v 1.55613 1.55614 l 1.75,0.62845 1.75,0.62845 3.13487,3.34017 3.13487,3.34016 h 2.14652 2.14651 l 0.38509,1.25 0.38509,1.25 0.58667,2.68662 0.58667,2.68662 3.24685,-0.52244 3.24686,-0.52244 6.35022,6.58582 6.35021,6.58582 h 2.46553 2.46552 l 2.18426,-1.12219 2.18426,-1.12218 2.7312,-2.5469 2.7312,-2.54689 2.56585,1.16908 2.56586,1.16908 h 1.79796 1.79795 l 1.80684,-1.99653 1.80683,-1.99652 0.59815,-6.25348 0.59904,-6.25357 3.5,-1.12795 3.5,-1.12794 4.35647,-3.78444 4.35647,-3.78445 3.3877,1.22501 3.3877,1.22501 1.25583,-0.71139 1.25583,-0.71138 2,-1.7363 2,-1.7363 2.5,-0.75394 2.5,-0.75395 3,-3.40929 3,-3.40928 5,1.53747 5,1.53747 1.29545,0.0108 1.29546,0.0108 2.47889,-2.47889 2.4789,-2.4789 -0.61702,-2.45841 -0.61702,-2.4584 3.66872,-0.68826 3.66873,-0.68826 1.59873,-3.35257 1.59872,-3.35256 -1.67478,-1.85062 -1.67478,-1.85061 v -2.63608 -2.63607 l -1.93426,-1.03519 -1.93426,-1.03518 h -2.09049 -2.09049 l -0.97525,-2.5651 -0.97525,-2.5651 v -2.81245 -2.81246 l -1.55975,-1.29448 -1.55974,-1.29447 -2.69026,0.94338 -2.69025,0.94337 -0.5,3.47866 -0.5,3.47865 h -2.43293 -2.43294 l -2.06706,-3.91213 -2.06707,-3.91213 -1.70852,-1.05659 -1.70853,-1.0566 -3.00098,2.21873 -3.00098,2.21872 h -0.5405 -0.54049 v -4.38485 -4.38484 l 6.39726,0.51351 6.39727,0.51351 2.32524,-1.62867 2.32524,-1.62866 h 2.59991 2.59992 l 5.82692,3.156 5.82693,3.156 1.10066,-1.49266 1.10065,-1.49265 2.35045,-1.25229 2.35044,-1.25228 -0.6479,-3.16106 -0.6479,-3.16106 -0.5665,-3.289 -0.56651,-3.289 3.36396,0.2157 3.36396,0.21569 2.89998,-1.53322 2.89997,-1.53322 2.76986,1.0455 2.76986,1.04551 1.68434,-1.39788 1.68434,-1.39789 0.86046,-2.26316 0.86045,-2.26317 2.57567,-0.64645 2.57566,-0.64645 1.78845,1.61852 1.78844,1.61852 h 3.27013 3.27013 l 3.37763,-1.60279 3.37764,-1.60279 3.5839,-3.96696 3.58391,-3.96696 -0.31041,-2.17571 -0.31041,-2.17571 -3.75,-2.42208 -3.75,-2.42208 v -2.14133 -2.14133 l 1.4391,-1.94113 1.43909,-1.94113 2.0836,1.27265 2.0836,1.27264 0.60585,-1.57882 0.60586,-1.57883 -0.91309,-3.19382 -0.91309,-3.19382 -3.42333,-0.5 -3.42333,-0.5 -0.60701,-2.5 -0.60702,-2.5 2.36853,-4.5 2.36854,-4.5 2.41149,-1.26367 2.41148,-1.26367 1.07229,-3.98215 1.07228,-3.98216 -0.98986,-1.84957 -0.98986,-1.84957 1.68421,-2.40454 1.6842,-2.40455 0.51824,-4.45388 0.51823,-4.45388 4.31307,-2.04618 4.31308,-2.04618 -0.58459,-2.98256 -0.58459,-2.98257 -3.56129,-7.01743 -3.56129,-7.01744 -3.41719,-2.8228 -3.4172,-2.82281 v -1.03284 -1.03284 l 2.5,-2.97108 2.5,-2.97108 v -6.76829 -6.76828 l -1.96617,-1.77937 -1.96618,-1.77936 0.21618,-2.06782 0.21617,-2.06783 -4.5,-1.75342 -4.5,-1.75341 -4.75,-0.0544 -4.75,-0.0543 v -2.09023 -2.09023 l -3,-2.63245 -3,-2.63246 v -0.73893 -0.73893 l 4.64161,-4.77587 4.64162,-4.77587 2.35838,0.30905 2.35839,0.30905 v -3.91105 -3.91105 l 2.5,-1.13908 2.5,-1.13907 v -1.52144 -1.52144 l -2,-2 -2,-2 h -3.37756 -3.37755 l -1.18198,-1.4242 -1.18198,-1.42419 0.64934,-3.46129 0.64934,-3.46128 -1.0898,-0.67354 -1.08981,-0.67353 v -3.31901 -3.31902 l -2.25,-1.56003 -2.25,-1.56003 2.64507,-2.31194 2.64507,-2.31194 0.62431,-2.75132 0.62431,-2.75131 -3.8743,-4.24869 -3.8743,-4.24868 -4.10622,-6.06438 -4.10622,-6.06438 -3.52639,-7.43562 -3.52639,-7.43562 -0.89965,-4.83718 -0.89965,-4.83718 -1.11282,-1.11282 -1.11282,-1.11282 -0.90432,0.95 -0.90432,0.95 -3.09308,12.81595 -3.09309,12.81595 -2.49967,7.44639 -2.49967,7.44639 -5.1269,10.21655 -5.12691,10.21655 -5.06323,7.52111 -5.06323,7.52111 -10.06279,10.13731 -10.06279,10.13731 -9.5,4.46484 -9.5,4.46484 -7.8247,1.7823 -7.8247,1.78229 -8.6753,-0.51748 -8.6753,-0.51748 -5.44983,-2.09682 -5.44982,-2.09682 -4.80175,-3.27014 -4.80175,-3.27015 -1.07598,-3.25 -1.07597,-3.25 h -1.03086 -1.03086 l 0.62612,-2.49463 0.62611,-2.49463 -1.76771,-1.44397 -1.7677,-1.44397 -5.25956,-4.09221 -5.25956,-4.09221 -4.50362,-5.71919 -4.50363,-5.71919 -3.03476,-7.84207 -3.03476,-7.84207 -1.1029,-8.54381 -1.10289,-8.54381 1.1079,-10.11412 1.10791,-10.11412 3.06722,-10 3.06722,-10 3.54233,-7.5 3.54234,-7.5 6.32482,-9.5 6.32483,-9.5 11.4938,-12.5 11.4938,-12.5 -0.87489,-0.32988 -0.87488,-0.32988 -10.26036,3.99494 -10.26036,3.99494 -5.5,1.51609 -5.5,1.51608 -7.45354,1.19354 -7.45354,1.19354 -7.04646,-0.64132 -7.04646,-0.64131 -6.26453,-2.06973 -6.26454,-2.06974 -5.21345,-3.91732 -5.21346,-3.91731 -3.7816,-4.74632 -3.78161,-4.74632 -1.18498,-3.87114 -1.18499,-3.87113 1.64878,-1.20562 1.64878,-1.20561 6.2958,0.7553 6.2958,0.7553 22,1.60504 22,1.60505 21.72106,0.62362 21.72105,0.62362 0.52895,-1.65721 0.52894,-1.65722 0.50652,-1.59878 0.50652,-1.59877 2.84801,2.84877 2.84802,2.84878 3.7148,2.25 3.71481,2.25 h 2.43066 2.43066 v 1.61658 1.61657 l 2.75,-0.67717 2.75,-0.67718 2.5998,-0.53085 2.59979,-0.53086 2.55086,2.36405 2.55085,2.36405 0.34935,2.47741 0.34935,2.4774 2,-0.0756 2,-0.0756 4.54166,-0.7044 4.54165,-0.7044 1.78022,4.95062 1.78022,4.95063 1.41697,0.54374 1.41697,0.54374 4.90638,-2.46434 4.90638,-2.46433 h 1.17216 1.17217 l -0.63194,1.99105 -0.63194,1.99105 0.5905,0.95544 0.59049,0.95543 4.22405,-1.50809 4.22406,-1.5081 4.68586,5.06161 4.68587,5.06161 h 0.73539 0.7354 l 1.57874,-1.41376 1.57874,-1.41376 4.43456,-0.31191 4.43456,-0.3119 0.75445,2.82098 0.75445,2.82099 -0.93283,2.45353 -0.93283,2.45353 2.18188,2.95115 2.18188,2.95115 h 0.77856 0.77856 l 5.15501,4.57837 5.155,4.57838 1.07838,-1.07838 1.07837,-1.07843 h 1.72742 1.72742 l 2.11154,-2.68439 2.11153,-2.68438 -0.61841,-2.81562 -0.61841,-2.81561 h 1.01207 1.01206 l 0.62031,-1.95442 0.62031,-1.95441 -1.80099,-2.74866 -1.80099,-2.74866 3.38641,1.95308 3.38641,1.95307 1.8701,3 1.87009,3 0.93156,3.3246 0.93155,3.32459 -0.51235,1.33516 -0.51235,1.33516 -2.42764,0.60929 -2.42764,0.6093 v 0.96841 0.9684 l 3.91095,2.46888 3.91096,2.46887 0.62354,2.83898 0.62355,2.83898 -1.58748,3.79936 -1.58747,3.79937 1.72011,2.65532 1.72012,2.65533 9.08286,9.87608 9.08286,9.87607 8.63714,7.25072 8.63713,7.25072 3.14142,1.85568 3.14142,1.85568 -0.28681,1.48928 -0.28681,1.48929 -4.99175,1.87734 -4.99174,1.87735 -8.5,0.0857 -8.5,0.0857 -7.72939,-2.32435 -7.72938,-2.32436 -1.52062,1.262 -1.52061,1.262 v 2.17461 2.1746 l 4,3.9059 4,3.9059 v 3.17205 3.17205 l -0.61403,3.07015 -0.61403,3.07014 -3.13597,0.30486 -3.13597,0.30484 v 1.48653 1.48652 l 2.50072,1.19856 2.50072,1.19857 2.96967,3.09966 2.96966,3.09966 0.12603,11.71525 0.12602,11.71525 0.76862,2.77638 0.76862,2.77638 1.88497,1.0088 1.88497,1.00881 v 2.8498 2.84981 l 2.37718,1.55759 2.37718,1.55759 0.69096,2.75301 0.69097,2.75302 2.93185,3.3392 2.93186,3.3392 v 2.96521 2.9652 l -1.75,1.53652 -1.75,1.53651 -3.25,2.55238 -3.25,2.55238 v 1.82954 1.82955 l 3.44837,2.13121 3.44837,2.13121 0.66194,2.20035 0.66195,2.20035 2.76969,3 2.76969,3 1.12,2.18426 1.11999,2.18426 v 4.28231 4.2823 l -1.62794,4.26271 -1.62795,4.26271 3.12795,2.92193 3.12794,2.92194 v 4.64845 4.64845 l -1.41711,2.74039 -1.41711,2.74038 1.1237,4.20996 1.1237,4.20995 h 0.72083 0.72083 l 2.14735,-2.72991 2.14734,-2.72991 4.93843,-10.02009 4.93843,-10.02009 1.99919,-7.95839 1.99919,-7.95839 0.55099,-7.04161 0.55099,-7.04161 0.43813,-2.18007 0.43812,-2.18008 1.60728,-1.60727 1.60728,-1.60728 6.14122,0.66765 6.14122,0.66766 1.36571,1.08817 1.36571,1.08817 -0.66384,6.47954 -0.66385,6.47953 -1.93627,7.22539 -1.93626,7.22539 -1.99373,5.05814 -1.99373,5.05814 -3.4304,6.76846 -3.4304,6.76846 -4.97203,7 -4.97202,7 -7.11945,7.76963 -7.11944,7.76963 v 0.85905 0.85905 l -2.90122,1.20173 -2.90123,1.20172 -2.30683,2.45552 -2.30684,2.45551 1.89326,3.51556 1.89325,3.51557 -1.5467,2.69851 -1.5467,2.69852 -0.63652,3.3651 -0.63651,3.3651 -4.00198,3.88379 -4.00198,3.88379 v 0.7855 0.7855 l 3.01355,1.78015 3.01354,1.78015 1.38442,3.31338 1.38442,3.31339 1.10204,0.68109 1.10203,0.68109 v 1.46966 1.46965 l -4.99472,6.43586 -4.99472,6.43586 1.15974,2.54536 1.15974,2.54536 -2.34548,2.49666 -2.34549,2.49665 2.18047,3.87961 2.18046,3.87961 v 2.16159 2.1616 l -2.62178,2.42978 -2.62178,2.42979 -3.37822,0.63375 -3.37822,0.63376 -0.0121,1.63871 -0.012,1.63871 -2.48796,4.35207 -2.48795,4.35208 v 2.06918 2.06919 l -1.63801,1.80998 -1.63801,1.80998 1.28737,1.55119 1.28736,1.55119 -1.26726,4.21757 -1.26727,4.21757 -0.35071,1.25 -0.3507,1.25 h -1.84429 -1.8443 l -2.66932,2.78618 -2.66933,2.78617 -0.6512,3.25601 -0.6512,3.25601 1.88343,1.39925 1.88344,1.39924 -1.10358,1.80857 -1.10359,1.80857 -2.89641,0.85451 -2.89642,0.85451 -5.47793,2.82929 -5.47794,2.82929 -1.86885,5.60657 -1.86886,5.60656 -2.40321,1.57465 -2.40321,1.57464 v 1.68499 1.68499 l -1.2,1.2 -1.2,1.2 h -3.27695 -3.27694 l -1.63807,2.5 -1.63806,2.5 h -1.05625 -1.05625 l -1.62838,-1.47367 -1.62839,-1.47367 -4.16948,2.0629 -4.16949,2.0629 -2.99136,4.86159 -2.99137,4.86159 -4.07408,1.09703 -4.07407,1.09704 -0.58595,2.92972 -0.58594,2.92972 -1.37374,1.1401 -1.37374,1.1401 -2.69682,-0.51553 -2.69682,-0.51553 -2.34971,1.53959 -2.34971,1.53958 -4.11398,0.7523 -4.11399,0.75229 -2.97062,-1.03556 -2.97062,-1.03556 -2.96614,1.75213 -2.96613,1.75214 -3.99446,-1.80125 -3.99446,-1.80125 -1.66401,1.19304 -1.66402,1.19304 -2.25,0.97286 -2.25,0.97286 v 0.91634 0.91634 l 2.38051,0.59747 2.38051,0.59747 0.48114,1.8399 0.48114,1.83989 9.38835,6.52239 9.38835,6.52239 8.23523,4.89866 8.23522,4.89865 0.55317,1.43183 0.55316,1.43182 -2.48075,2.06818 -2.48075,2.06817 -0.30764,2.39787 -0.30764,2.39787 -1.66057,1.04061 -1.66057,1.0406 -7.65911,-5.76471 -7.6591,-5.76471 -10.54991,-9.17376 -10.5499,-9.17377 -3.12267,-2.26403 -3.12268,-2.26403 -1.38449,0.53129 -1.3845,0.53128 -1.36142,-1.12988 -1.36141,-1.12988 -0.62477,1.6281 -0.62476,1.62811 0.50112,31.23452 0.50112,31.23452 1.63899,13 1.639,13 1.53867,8.5 1.53867,8.5 5.33353,21 5.33353,21 4.65214,12.5 4.65214,12.5 0.52612,1.60092 0.52612,1.60093 -1.64907,1.64907 -1.64908,1.64908 h -3.84678 -3.84679 l -1.33935,0.51396 -1.33935,0.51396 -2.24244,-1.57067 z M 760.32593,276.95345 v -0.5 h -0.5 -0.5 v 0.5 0.5 h 0.5 0.5 z m -152.25,-27.18933 -1.75,-0.45732 -1.75,0.45732 -1.75,0.45733 h 3.5 3.5 z m -169.75,237.18933 v -0.5 h 0.5 0.5 v 0.5 0.5 h -0.5 -0.5 z m -13.65904,-32.2282 -4.34096,-4.72821 v -1.77179 -1.7718 h 0.94098 0.94099 l 0.54797,0.88664 0.54797,0.88663 3.47467,0.65186 3.47467,0.65185 1.0308,3.71151 1.0308,3.71151 0.006,1.25 0.006,1.25 h -1.65904 -1.65904 l -4.34096,-4.7282 z m 8.18515,-28.94629 -0.69063,-4.60543 1.97115,-1.97115 1.97115,-1.97115 4.20099,4.20099 4.20099,4.20099 -2.11279,2.24895 -2.11278,2.24895 -3.36873,0.12665 -3.36873,0.12664 z m 84.88942,-45.07551 -1.58446,-1.75 -4.11574,-6.5 -4.11574,-6.5 -4.71674,-9.24719 -4.71674,-9.24719 -2.56248,-7.75281 -2.56249,-7.75281 -1.52057,-7.31538 -1.52057,-7.31537 v -2.2435 -2.24349 l 1.25,-1.68018 1.25,-1.68018 5.41676,-1.01669 5.41677,-1.01669 2.21087,1.44862 2.21088,1.44862 0.68887,5.80712 0.68887,5.80712 0.90263,3 0.90263,3 2.57107,9.5 2.57106,9.5 4.49191,9.15533 4.4919,9.15534 1.46789,0.56328 1.46789,0.56328 v 2.20264 2.20265 l 1.62128,1.79149 1.62128,1.7915 -0.58989,1.53724 -0.5899,1.53725 h -2.03139 -2.03138 v 1.46482 1.46481 l -1.93426,1.03519 -1.93426,1.03518 h -1.56574 -1.56574 z m 221.08447,-81.25 -0.61803,-1 h 1 1 l 0.61803,1 0.61803,1 h -1 -1 z m -15.11884,-200.75 -0.65693,-2.75 -0.98456,-1.25 -0.98456,-1.25 h -3.30431 -3.30432 l -1.58364,-3.17448 -1.58364,-3.17448 2.0104,-2.13997 2.0104,-2.13997 V 81.56208 80.2996 l 3.00135,-3.00135 3.00135,-3.00134 0.62664,1.633 0.62665,1.63301 -1.77423,3.29455 -1.77423,3.29454 0.62598,2.4941 0.62598,2.4941 2.37294,2.40662 2.37294,2.40662 1.14373,2.17756 1.14373,2.17756 -0.6034,1.57244 -0.60341,1.57244 h -0.87396 -0.87396 z"
         id="path27442" />
      <path
         style="fill:#cabb9b"
         d="m 610.40244,779.20345 -0.88061,-2.25 -4.65919,-25 -4.65918,-25 -2.92339,-15 -2.9234,-15 -4.02012,-23.5551 -4.02013,-23.5551 -3.42489,-24.4449 -3.42488,-24.4449 2.05609,-1.76268 2.05609,-1.76269 2.44729,-0.61423 2.44729,-0.61423 2.38824,1.08815 2.38823,1.08815 3.03803,-1.05906 3.03802,-1.05906 v -0.72786 -0.72786 l -2.40679,-2.26107 -2.4068,-2.26106 -9.96039,0.70615 -9.96039,0.70616 -0.72184,-1.16796 -0.72185,-1.16797 -1.45335,1.20618 -1.45335,1.20618 -1.15762,-1.15762 -1.15762,-1.15762 h -5.3 -5.3 l -2,-2 -2,-2 v -1.05103 -1.05102 l -3.38032,-1.41239 -3.38033,-1.41239 -2.36967,-2.82791 -2.36968,-2.8279 -1.5,-2.27142 -1.5,-2.27141 -4.33636,-0.58052 -4.33635,-0.58051 -0.54575,-1.4222 -0.54575,-1.42219 -6.40592,0.68601 -6.40593,0.68602 -1.92433,-1.74149 -1.92432,-1.74149 -1.18256,-3.62908 -1.18255,-3.62908 -1.10509,-0.73469 -1.10509,-0.73468 -2.17327,-0.0153 -2.17328,-0.0153 -2.97108,-2.5 -2.97108,-2.5 h -1.54663 -1.54663 l -0.61803,1 -0.61803,1 h -1.834 -1.83399 l -0.60699,-1.58179 -0.60699,-1.58178 -0.0153,-3.16822 -0.0153,-3.16821 -0.94057,-1.48765 -0.94058,-1.48765 -5.84322,0.28959 -5.84322,0.28959 -2.70089,-2.12452 -2.70089,-2.12452 v -3.49935 -3.49935 l -2.67797,-4.67807 -2.67796,-4.67807 -0.30146,-0.39609 -0.30146,-0.39609 -5.1137,-0.80837 -5.1137,-0.80837 -2.22132,-2.29554 -2.22132,-2.29554 -1.69118,-1 -1.69118,-1 -0.60772,-4.58526 -0.60772,-4.58526 5.12291,0.65721 5.1229,0.6572 1.24044,1.49803 1.24044,1.49802 2.59659,1.60257 2.5966,1.60256 1.2911,3.117 1.2911,3.11699 1.6123,-0.15468 1.61231,-0.15469 1.59093,0.11516 1.59092,0.11515 4.62747,4.37106 4.62748,4.37107 3.57668,1.69724 3.57667,1.69725 5.65898,-1.88633 5.65899,-1.88633 0.82453,-3.18198 0.82453,-3.18198 h 1.0119 1.01191 l 2.7095,1.9381 2.70951,1.93811 2,0.17705 2,0.17705 1.80103,-0.11516 1.80102,-0.11515 1.40578,-3.3645 1.40578,-3.3645 -1.04997,-3.8855 -1.04998,-3.8855 -2.27713,-2.5 -2.27713,-2.5 -5.84916,-7.99353 -5.84917,-7.99354 -3.27745,-6.50646 -3.27746,-6.50647 -0.003,-2.62756 -0.003,-2.62755 1.47515,-1.22426 1.47514,-1.22427 5.13237,-0.34912 5.13237,-0.34912 6.2711,2.36044 6.2711,2.36043 12.37138,6.27599 12.37139,6.27598 11.59243,6.73526 11.59242,6.73526 3.85471,1.6106 3.85471,1.6106 1.35839,-0.52126 1.3584,-0.52127 2.51422,2.73993 2.51422,2.73992 1.37109,1.52772 1.37108,1.52772 3.80917,1.34526 3.80916,1.34526 1.65862,1.44931 1.65863,1.44932 1.24065,2.99519 1.24065,2.99519 0.80908,-1.30912 0.80909,-1.30913 1.23649,1.23649 1.23649,1.23649 -0.99587,2.75515 -0.99587,2.75515 -3.26225,-0.26239 -3.26225,-0.26238 -2.15924,1.51238 -2.15923,1.51239 h -1.62251 -1.6225 l -1.90499,-2.10812 -1.90499,-2.10812 -3.5,-1.8452 -3.5,-1.8452 -4.4652,-2.10339 -4.4652,-2.10339 -4.5348,-0.87721 -4.5348,-0.87722 -8.86981,-0.62796 -8.86981,-0.62796 2.25408,3.64717 2.25408,3.64718 2.86573,3.13757 2.86573,3.13757 v 0.63112 0.63111 l 2.25,2.54934 2.25,2.54934 2,2.56943 2,2.56942 4.59601,4.77726 4.59602,4.77726 0.49136,1.5 0.49137,1.5 1.66262,-1.37244 1.66262,-1.37245 v -1.37755 -1.37756 h 1.86514 1.86514 l 2.6746,2.10384 2.67459,2.10383 3.40189,-0.6382 3.40189,-0.63819 1.98434,-2.71564 1.98434,-2.71564 2.87875,2.75 2.87876,2.75 h 1.18469 1.1847 l 5.4568,-4.94171 5.45681,-4.94171 2.59474,-1.70014 2.59475,-1.70014 2.70903,1.21273 2.70904,1.21274 6.2069,4.01849 6.20689,4.01849 3.79311,0.50584 3.7931,0.50584 2.67322,-2.1074 2.67322,-2.1074 0.65624,-2.98782 0.65623,-2.98781 h 0.98629 0.98628 l 2.01745,1.0797 2.01744,1.07971 1.74556,-1.57971 1.74555,-1.5797 h 3.0385 3.03849 l 4.63277,-5.16923 4.63276,-5.16923 v -0.83077 -0.83077 h 1.8 1.8 l 1.2,1.2 1.2,1.2 v -1.64098 -1.64099 l -1,-0.61803 -1,-0.61803 v -4.24099 -4.24098 l 1.2,-1.2 1.2,-1.2 h 1.34775 1.34775 l 2.40229,2.59211 2.40229,2.59212 6.29996,-3.76595 6.29996,-3.76594 1.75,-1.93695 1.75,-1.93696 v -5.81663 -5.81664 l 2.58246,-2.03136 2.58246,-2.03137 1.92851,-0.61208 1.9285,-0.61209 1.48904,-2.87947 1.48903,-2.87947 v -3.49064 -3.49065 l 0.82929,-0.51252 0.82928,-0.51253 4.82965,1.45351 4.82964,1.45351 h 2.71863 2.71862 l 1.37245,-1.64912 1.37244,-1.64913 0.5,-7.10087 0.5,-7.10088 4,-0.0638 4,-0.0638 1.15956,-2.32132 1.15957,-2.32132 0.94684,-0.61491 0.94684,-0.61491 0.5239,-6.69341 0.5239,-6.69341 -3.89027,-3.49236 -3.89027,-3.49237 -1.98771,-0.63087 -1.98771,-0.63088 -0.62092,-2.47394 -0.62092,-2.47394 1.24052,-4.43072 1.24053,-4.43072 1.78861,-0.56769 1.78861,-0.56768 1.73947,-2.711 1.73947,-2.71101 3.09999,-2.6407 3.09999,-2.6407 0.23085,-9.3593 0.23086,-9.3593 0.43582,-5 0.43582,-5 -1.48358,-2.31692 -1.48358,-2.31693 1.14002,-1.37363 1.14002,-1.37364 1.42688,0.54755 1.42689,0.54755 v -2.08131 -2.08131 l 2.99019,-1.54629 2.99019,-1.54628 2.00981,-3.93956 2.00981,-3.93955 v -2.61177 -2.61177 l 2.59502,-4.42807 2.59502,-4.42807 h 0.97072 0.97072 l 1.80064,0.96367 1.80065,0.96368 0.62791,3.92676 0.62792,3.92676 -1.52407,4.31966 -1.52406,4.31966 0.64331,4.28991 0.64331,4.2899 h 1.33556 1.33557 l 2.47374,-3.25 2.47373,-3.25 5.10614,-10.51054 5.10614,-10.51053 1.95788,-9.48947 1.95788,-9.48946 0.0131,-4.6849 0.0131,-4.6849 0.95213,-2.5043 0.95213,-2.5043 1.86686,-0.99911 1.86685,-0.99911 5.77657,0.7839 5.77656,0.7839 0.93741,1.40441 0.93741,1.40441 -0.61614,5.5 -0.61615,5.5 -1.91268,7.21618 -1.91268,7.21619 -2.39041,6.35073 -2.39041,6.35073 -2.24701,4.43309 -2.24701,4.43308 -5.83941,8.5 -5.8394,8.5 -7.62089,8.5 -7.62089,8.5 -1.65642,0.88385 -1.65642,0.88384 -2.75,2.55325 -2.75,2.55324 v 1.34809 1.3481 l 1.4897,2.27357 1.4897,2.27357 -1.9897,3.90269 -1.9897,3.90268 -0.002,2.03856 -0.002,2.03856 -3.99835,3.76212 -3.99836,3.76213 v 1.5216 1.5216 l 3.5,2.06505 3.5,2.06505 v 2.43261 2.43261 l 1.5,0.5756 1.5,0.57561 v 2.84332 2.84332 l -1.25,0.79969 -1.25,0.79969 -3.29566,4.24817 -3.29565,4.24818 0.66844,3.5631 0.66844,3.56311 -2.15926,2.01166 -2.15927,2.01166 2.03648,3.29509 2.03648,3.2951 v 2.97698 2.97697 l -1.75,1.57708 -1.75,1.57708 -3,0.7158 -3,0.71579 -1.25,0.98456 -1.25,0.98456 v 1.64542 1.64542 l -2.59424,3.81777 -2.59424,3.81776 0.50258,1.92187 0.50258,1.92186 -2.1434,1.5013 -2.14339,1.50129 1.2861,2.05939 1.28611,2.05938 -0.6754,4.50385 -0.67539,4.50385 -2.62565,0.99459 -2.62566,0.99458 -2.25152,2.10914 -2.25152,2.10913 -0.97578,3.53397 -0.97578,3.53397 2.12408,2.26097 2.12407,2.26097 -1.26922,1.52931 -1.26922,1.52932 h -2.39596 -2.39596 l -4.86743,2.54511 -4.86743,2.54511 -1.47602,1.70489 -1.47602,1.70489 -1.6046,4.82969 -1.6046,4.8297 -2.53355,1.99288 -2.53354,1.99289 v 1.39224 1.39223 l -1.92756,1.0316 -1.92756,1.0316 -1.53452,-0.58885 -1.53452,-0.58886 -2.55214,2.75381 -2.55214,2.75381 -2.43127,-1.30118 -2.43127,-1.30118 -3.7619,1.78514 -3.7619,1.78514 -1.74559,2.10467 -1.7456,2.10467 -1.16559,2.74339 -1.1656,2.74338 -3.72262,1.0024 -3.72261,1.0024 -1.56763,1.75421 -1.56763,1.75422 -0.34117,2.5 -0.34118,2.5 -3.72406,-0.29005 -3.72407,-0.29004 -2.73601,1.79004 -2.73601,1.79005 -7.77103,-0.18508 -7.77103,-0.18508 -0.57791,0.93508 -0.57791,0.93508 h -2.24986 -2.24985 l -1.94113,-1.4682 -1.94113,-1.46819 -1.62756,-0.0318 -1.62755,-0.0318 -1.33135,1.60418 -1.33135,1.60417 -2.39978,0.9124 -2.39979,0.9124 1.23113,1.48342 1.23114,1.48343 h 1.26254 1.26255 l 1.55679,2.37596 1.55679,2.37596 7.80822,5.45724 7.80822,5.45723 8.83395,5.30379 8.83395,5.30379 0.58281,1.51877 0.58281,1.51878 -2.16676,1.75453 -2.16676,1.75454 v 2.01827 2.01828 l -1.61264,1.61264 -1.61263,1.61264 -2.63737,-1.69296 -2.63736,-1.69296 -8,-6.22334 -8,-6.22333 -10.43202,-9.12492 -10.43142,-9.12489 h -2.45774 -2.45774 l -1.39441,-1.75 -1.39441,-1.75 0.41291,34.5 0.41291,34.5 1.64844,13 1.64844,13 1.55264,8.5 1.55264,8.5 3.96553,16 3.96553,16 2.55559,8.5 2.55559,8.5 3.95444,9.99594 3.95445,9.99594 -2.16618,1.75406 -2.16617,1.75406 h -5.91065 -5.91066 z M 542.32593,538.07589 v -0.37755 l -1.75,-1.37245 -1.75,-1.37244 1.37244,1.75 1.37245,1.75 h 0.37755 0.37756 z m -9,-10.62244 -1.44208,-0.89125 -0.5,0.5 -0.5,0.5 1.44208,0.89125 1.44208,0.89125 0.5,-0.5 0.5,-0.5 z m -7,-7.5 v -0.5 h -0.5 -0.5 v 0.5 0.5 h 0.5 0.5 z m -5,-5.94098 v -0.44099 l -1.15451,-0.71352 -1.15451,-0.71353 0.71353,1.15451 0.71352,1.15451 h 0.44099 0.44098 z m 250,-143.05902 v -0.5 h -0.5 -0.5 v 0.5 0.5 h 0.5 0.5 z m -257.3591,3.71585 -4.42857,-6.78415 -2.64701,-4.46585 -2.64701,-4.46585 -2.04112,-4.5 -2.04112,-4.5 -1.52451,-3.37551 -1.52451,-3.37551 -1.91475,-6.62449 -1.91474,-6.62449 -1.417,-8 -1.41699,-8 1.3811,-2.12764 1.38109,-2.12764 5.63774,-0.70439 5.63774,-0.70439 1.8113,1.63921 1.8113,1.6392 0.69126,5.69283 0.69127,5.69282 1.94974,7.5 1.94975,7.5 2.61453,7.48384 2.61452,7.48385 3.39692,6.01615 3.39692,6.01616 0.80918,1.5 0.80919,1.5 1.89409,3.91745 1.89409,3.91745 -1.4285,0.47617 -1.4285,0.47616 -2.18382,2.35639 -2.18382,2.35638 h -2.60059 -2.60059 z m 256.41168,-48.96585 -1.04143,-3.75 -0.006,-2.71482 -0.006,-2.71481 -2.10736,-1.12783 -2.10736,-1.12782 1,-1 1,-1 1.97701,1.05806 1.97701,1.05807 1.63035,3.4357 1.63035,3.43571 v 2.51708 2.51709 l -0.60699,1.58178 -0.60699,1.58179 h -0.846 -0.84601 l -1.04143,-3.75 z m -11.05258,-22.75 v -0.5 h 0.5 0.5 v 0.5 0.5 h -0.5 -0.5 z m -4,-11.51357 v -7.01357 l 1.17594,-1.88298 1.17594,-1.88298 -2.67594,-3.18018 -2.67594,-3.18017 v -0.81487 -0.81486 l -2.25,-0.56498 -2.25,-0.56498 -1.80572,-1.32076 -1.80572,-1.32075 1.26267,-4.72097 1.26267,-4.72097 1.77373,-0.56296 1.77373,-0.56296 2.4879,1.81125 2.48789,1.81126 0.0314,2.71482 0.0314,2.71481 2.25,1.18489 2.25,1.18489 0.73469,1.10029 0.73468,1.1003 0.0153,1.13337 0.0153,1.13337 -2,0.52301 -2,0.52301 v 1.71862 1.71862 l 2.87303,-0.57461 2.87303,-0.5746 2.12697,2.26406 2.12697,2.26405 v 3.70025 3.70025 l -3.25,1.96141 -3.25,1.9614 -1.75,1.24466 -1.75,1.24465 v 1.27924 1.27924 h -1 -1 v -7.01357 z m -160,-42.72345 -2.5,-0.3785 -5.75398,-1.94224 -5.75398,-1.94224 h -1.10878 -1.10877 l -3.13724,-2.55035 -3.13725,-2.55036 -5.72296,-4.48256 -5.72297,-4.48257 -4.48528,-6.28556 -4.48528,-6.28556 -2.96123,-8.93152 -2.96122,-8.93152 -0.65721,-7.5 -0.65722,-7.5 1.09701,-8.68726 1.09702,-8.68725 3.4371,-11.31275 3.4371,-11.31274 4.36378,-8.5 4.36379,-8.5 6.18014,-8.68299 6.18014,-8.68299 10.89356,-11.81701 10.89356,-11.81701 -0.35184,-0.37359 -0.35183,-0.37358 -6.79308,2.746 -6.79308,2.74601 -8.44843,2.88124 -8.44843,2.88125 -9.05157,1.58983 -9.05157,1.58983 -6.5,-0.62228 -6.5,-0.62228 -6.5,-2.11842 -6.5,-2.11842 -4.04687,-2.76108 -4.04687,-2.76108 -3.74393,-3.84171 -3.74394,-3.84172 -2.49319,-5.07963 -2.49319,-5.07962 0.69291,-1.80569 0.69291,-1.80568 8.59108,0.68023 8.59109,0.68023 19.46095,1.43633 19.46095,1.43632 19.03905,0.55148 19.03905,0.55147 4.23622,0.44626 4.23623,0.44626 0.6347,-2.52884 0.6347,-2.52885 1.47999,2.11298 1.47999,2.11299 2.64908,1.09659 2.64909,1.0966 -3,0.65842 -3,0.65843 6,1.27344 6,1.27343 2.21482,1.40843 2.21481,1.40842 h 1.60662 1.60661 l 1.5,-1.5 1.5,-1.5 0.67857,0.0316 0.67857,0.0316 2.66453,2.34692 2.66453,2.34691 0.33547,2.37149 0.33547,2.37148 h 7.5 7.5 l 0.0307,2.17892 0.0307,2.17893 1.85119,2.04554 1.8512,2.04555 1.73603,0.551 1.73604,0.55099 2.78292,-1.05806 2.78293,-1.05807 2.28977,2.15113 2.28977,2.15112 3.05939,-1.0665 3.05938,-1.06651 v 0.86465 0.86464 l -2.75,0.96691 -2.75,0.96691 2,0.71186 2,0.71186 4.84688,1.97404 4.84688,1.97404 3.71599,-0.26831 3.716,-0.2683 3.25461,1.3481 3.25461,1.34811 -1.31748,0.83541 -1.31749,0.83541 1.85353,0.0153 1.85353,0.0153 8.14647,7.37693 8.14647,7.37693 3.03628,1.87307 3.03628,1.87307 2.27749,2 2.27749,2 6.8529,7 6.8529,7 10.5177,11.58609 10.51771,11.58609 8.31562,6.98413 8.31563,6.98412 3.299,2.28277 3.29901,2.28278 -0.35711,1.07133 -0.35712,1.07134 -5.44189,1.89321 -5.44189,1.89321 -8,0.0313 -8,0.0313 -6.5,-2.08594 -6.5,-2.08593 -2.58948,-0.0129 -2.58949,-0.0129 -1.17322,2.57494 -1.17322,2.57493 0.68303,1.10516 0.68303,1.10516 3.36789,2.95705 3.36789,2.95705 0.98283,1.83644 0.98284,1.83645 -1.13977,4.52641 -1.13976,4.52641 h -2.88128 -2.88129 v -0.68555 -0.68555 l 2.13938,-2.27726 2.13937,-2.27726 -1.69167,-2.58183 -1.69168,-2.58182 -2.41977,-0.92 -2.41977,-0.91999 -0.6396,-2.54836 -0.63959,-2.54835 1.24113,-1.49548 1.24114,-1.49548 -0.57472,-3.54154 -0.57471,-3.54155 1.94525,0.6174 1.94524,0.6174 v -0.55397 -0.55397 l -3.25,-1.40838 -3.25,-1.40837 -3.43214,-2.85505 -3.43213,-2.85504 -3.56787,-3.56786 -3.56786,-3.56787 -2.8257,-3.43213 -2.82571,-3.43214 -5.38969,-11 -5.38969,-11 -1.23064,-5 -1.23063,-5 -0.55397,-0.68792 -0.55397,-0.68791 -0.099,4.68791 -0.099,4.68792 -1.71622,8.5 -1.71623,8.5 -3.82201,11 -3.82201,11 -1.34175,3.5 -1.34174,3.5 -6.21075,10.5 -6.21075,10.5 -2.81031,3.37208 -2.8103,3.37207 -7.71315,7.62793 -7.71315,7.62792 -1.31647,1.08356 -1.31647,1.08356 -6.97038,4.5515 -6.97038,4.5515 -8,2.73608 -8,2.73607 -10.5,0.19961 -10.5,0.1996 -2.5,-0.3785 z m 74,-145.26298 v -1 h -1 -1 v 1 1 h 1 1 z m 74.50902,129.92975 -4.99099,-3.84277 -0.92639,-2.07612 -0.92639,-2.07611 1.06671,-1.06671 1.06671,-1.06671 1.91421,0.60754 1.91421,0.60755 3.68646,3.37666 3.68645,3.37666 v 2.55611 2.55612 l -0.75,0.44527 -0.75,0.44528 z m -15.47722,-107.67975 0.0318,-0.75 1.46819,-1.94113 1.4682,-1.94113 v -2.10951 -2.1095 l 1.25,-2.69156 1.25,-2.69157 0.79889,-0.008 0.79889,-0.008 1.92915,4.25 1.92915,4.25 0.022,1.75 0.022,1.75 -2.25,0.006 -2.25,0.006 -2.86431,1.49384 -2.8643,1.49384 h -0.3857 -0.38569 l 0.0318,-0.75 z"
         id="path27440" />
      <path
         style="fill:#b4a88d"
         d="m 611.57746,780.63006 -1.24847,-0.79275 -1.06615,-5.94193 -1.06615,-5.94193 -2.90292,-14.5 -2.90293,-14.5 -4.4929,-24 -4.4929,-24 -3.01643,-17.5 -3.01642,-17.5 -3.52313,-24.9368 -3.52313,-24.93679 v -3.23996 -3.23997 l 3.15364,-1.57324 3.15364,-1.57324 h 1.78734 1.78735 l 0.61937,1.00217 0.61937,1.00216 3.83317,-0.61295 3.83318,-0.61295 0.48377,34.86079 0.48378,34.86078 1.63539,13 1.63539,13 1.57038,8 1.57038,8 4.44492,18 4.44491,18 5.05139,14.5 5.05139,14.5 0.56708,2.40632 0.56708,2.40632 -1.83759,1.34368 -1.83759,1.34368 -5.05887,-0.0153 -5.05887,-0.0153 -1.24847,-0.79276 z m 27.24847,-153.32748 -8,-6.14004 -9.85254,-8.60454 -9.85255,-8.60455 -3.01026,-2.17533 -3.01026,-2.17533 -1.30159,0.49947 -1.30159,0.49947 -2.54407,-4.32414 -2.54407,-4.32414 -1.87363,-1.15362 -1.87364,-1.15362 -3.9179,0.29728 -3.9179,0.29728 -4.20234,0.73162 -4.20234,0.73161 -1.79766,-0.82227 -1.79766,-0.82228 -2.5,-0.34482 -2.5,-0.34482 -5,-0.25861 -5,-0.2586 -2.18228,-1.19852 -2.18227,-1.19851 -0.64051,-2.01805 -0.6405,-2.01805 -3.21829,-1.34469 -3.21829,-1.34468 -4.30205,-5.13833 -4.30205,-5.13832 h -3.09243 -3.09243 l -2.27808,-2.14014 -2.27808,-2.14015 -4.59997,1.28791 -4.59997,1.28792 -2.62335,-1.95862 -2.62335,-1.95861 -0.94732,-2.93916 -0.94733,-2.93915 -0.98817,-1.25 -0.98817,-1.25 h -2.34276 -2.34276 l -3.64822,-3.20318 -3.64821,-3.20318 -2.87075,1.64758 -2.87075,1.64759 -1.60566,-1.60567 -1.60566,-1.60566 0.4701,-3.08874 0.4701,-3.08874 -0.97863,-1.86804 -0.97862,-1.86804 -5.92614,0.67047 -5.92614,0.67047 -2.97551,-2.97551 -2.9755,-2.9755 v -1.51791 -1.51791 l 0.91048,-0.56271 0.91049,-0.56271 5.25403,2.63895 5.25403,2.63895 1.19573,-1.63525 1.19573,-1.63526 h 1.58074 1.58074 l 0.61047,0.98778 0.61048,0.98777 4.69854,0.0266 4.69854,0.0266 4.75,0.20914 4.75,0.20914 v 2.37534 2.37535 l 1.66996,3.51919 1.66997,3.51919 3.08003,1.90378 3.08004,1.90378 2.35032,-0.56607 2.35031,-0.56607 2.84028,-2.09991 2.84028,-2.09991 6.09708,2.28015 6.09708,2.28016 5.5676,-0.57463 5.56761,-0.57463 0.50597,-0.50596 0.50596,-0.50597 -11.4898,-12.80913 -11.48979,-12.80913 -9.19604,-10.99629 -9.19604,-10.99629 -6.80101,-10.11742 -6.80101,-10.11742 -1.7248,-5.1929 -1.7248,-5.1929 1.66024,-1.83454 1.66024,-1.83454 2.69016,-0.52306 2.69016,-0.52305 4.63951,0.87108 4.63951,0.87107 10.36049,4.65074 10.36049,4.65074 19.5,11.04373 19.5,11.04372 7,4.22859 7,4.22858 4.66566,2.03025 4.66566,2.03025 1.657,2.52891 1.657,2.5289 -0.32266,2.80608 -0.32266,2.80609 -1.7571,0.33324 -1.7571,0.33324 -7.53106,-3.57469 -7.53105,-3.57469 h -0.55785 -0.55784 l -7.654,-3.65115 -7.654,-3.65115 -2.75,-0.0155 -2.75,-0.0155 v -0.76065 -0.76065 l -8.25,-3.09701 -8.25,-3.09701 -3.25,-1.45949 -3.25,-1.4595 v 2.05575 2.05575 l 2.68083,4.67807 2.68084,4.67807 6.00367,8 6.00368,8 5.17997,6.5 5.17997,6.5 6.74309,6.88497 6.74309,6.88497 0.9131,-1.38497 0.91311,-1.38497 3.02663,3.68806 3.02663,3.68806 3.51471,1.15996 3.51472,1.15996 0.8751,2.3017 0.87511,2.30171 6.31287,3.42635 6.31288,3.42636 3.23085,1.92392 3.23084,1.92392 1.76916,-1.10086 1.76915,-1.10086 0.32212,-2.7082 0.32212,-2.7082 1.33762,-0.51329 1.33763,-0.5133 3.04059,1.57236 3.0406,1.57235 h 2.01471 2.01472 l 4.64857,-1.57823 4.64857,-1.57823 2.63638,2.45604 2.63637,2.45605 2.18426,1.12218 2.18426,1.12219 h 4.56574 4.56574 l 2,-2 2,-2 v -6 -6 h 3.3 3.3 l 1.2,-1.2 1.2,-1.2 0.0153,-3.05 0.0153,-3.05 0.80311,-1.26523 0.80312,-1.26523 3.89301,-1.98477 3.89301,-1.98477 h 0.82905 0.82906 l 2.7095,-1.97217 2.70951,-1.97218 3.60605,0.8344 3.60605,0.8344 2.39395,-1.3131 2.39395,-1.31309 4.26172,-0.66443 4.26173,-0.66443 2.48803,-1.95709 2.48804,-1.95709 0.61392,-3.83927 0.61392,-3.83926 6.38632,-5.11768 6.38632,-5.11767 v -0.97067 -0.97067 h 2.34501 2.34501 l 1.74312,-1.92612 1.74312,-1.92612 0.55076,-6.07388 0.55076,-6.07388 h 1.24242 1.24242 l 2.77386,3.63671 2.77386,3.63672 -1.15517,1.84971 -1.15517,1.84972 v 2.00015 2.00015 l -3.25,1.3754 -3.25,1.37541 -1.83475,2.0604 -1.83474,2.0604 -0.56734,4.22982 -0.56734,4.22983 1.90209,1.40962 1.90208,1.40962 -1.94113,1.43817 -1.94113,1.43817 -2.55887,0.009 -2.55887,0.009 -5.03506,2.88808 -5.03506,2.88809 -1.77018,5.61567 -1.77019,5.61568 -2.36993,1.55284 -2.36993,1.55284 -1.02281,2.93401 -1.0228,2.93402 h -3.43701 -3.43701 l -1.69323,2.5842 -1.69323,2.5842 -1.75052,-1.5842 -1.75052,-1.5842 h -0.95982 -0.95982 l -3.74697,1.91032 -3.74698,1.91032 -1.94447,2.47199 -1.94447,2.47199 -0.90466,2.37944 -0.90466,2.37944 -4.57045,1.2224 -4.57044,1.22241 -1.21574,4.05778 -1.21574,4.05777 -2.84301,-0.62443 -2.843,-0.62443 -4.55306,2.2041 -4.55305,2.20409 -5.89847,-0.66733 -5.89846,-0.66734 -2.29965,1.50679 -2.29965,1.50679 -4.22436,-2.14534 -4.22436,-2.14534 -2.26061,2.03528 -2.26062,2.03528 -1.75,0.61762 -1.75,0.61763 v 1.53139 1.53138 h 1.02234 1.02235 l 4.22765,3.88748 4.22766,3.88748 12.64398,8.36252 12.64398,8.36252 3.10602,1.70349 3.10602,1.70349 v 1.51133 1.51132 l -2,1.07037 -2,1.07037 v 1.88303 1.88303 l -0.60699,1.58178 -0.60699,1.58179 -2.14301,-0.005 -2.14301,-0.005 -8,-6.14004 z m -47.5,-58.34913 v -0.5 h -0.5 -0.5 v 0.5 0.5 h 0.5 0.5 z m 152.51607,-92.46893 -1.61912,-3.13103 0.69541,-2.20002 0.69541,-2.20002 2.35612,-3.09439 2.35611,-3.09439 v -5.09659 -5.0966 l 1,-0.61803 1,-0.61803 0.0121,-5.19099 0.012,-5.19098 2.43838,-4.26479 2.43838,-4.26479 -1.46381,-4.14888 -1.46381,-4.14887 -1.05887,-1.27586 -1.05888,-1.27587 0.32226,-2.81047 0.32225,-2.81047 2.8435,-0.0414 2.84349,-0.0414 0.76898,-1.45862 0.76897,-1.45863 0.61786,-3.27663 0.61785,-3.27663 -1.98032,-1.69561 -1.98033,-1.69561 v -1.08993 -1.08993 l -1.95183,-4.03982 -1.95182,-4.03981 1.15515,-3.76382 1.15515,-3.76383 3.54667,-2.3343 3.54668,-2.3343 2.5,-2.06305 2.5,-2.06305 -2,0.60104 -2,0.60104 2.76333,-2.55138 2.76333,-2.55138 1.32646,0.50901 1.32645,0.50901 1.29762,-1.56353 1.29761,-1.56353 0.23498,-2.23198 0.23497,-2.23198 0.12763,-0.87244 0.12762,-0.87245 1.53616,1.2749 1.53615,1.27489 2.9379,-2.81468 2.93789,-2.81468 5.04823,-10.08777 5.04822,-10.08777 2.01429,-8 2.01429,-8 0.90245,-9.40331 0.90246,-9.4033 1.31098,-1.26805 1.31098,-1.26804 1.5,-0.19713 1.5,-0.19714 4.67857,0.11849 4.67857,0.11848 1.64529,1.64528 1.64528,1.64529 -0.64653,5.10471 -0.64653,5.10472 -2.46476,9.5 -2.46476,9.5 -5.34174,11 -5.34173,11 -4.48519,6.34359 -4.48518,6.34358 -7.38564,8.23987 -7.38565,8.23987 -3.7444,2.19318 -3.7444,2.19318 -1.62061,2.47337 -1.62061,2.47336 1.71437,2.61646 1.71437,2.61646 -1.52684,3.63354 -1.52684,3.63354 -0.58448,2.72175 -0.58448,2.72174 -1.53499,1.27826 -1.53499,1.27825 -2.45305,2.48978 -2.45305,2.48978 v 1.53282 1.53281 l 3.5,1.88488 3.5,1.88487 v 2.37392 2.37391 l 1.46193,0.561 1.46194,0.56099 0.62591,1.9721 0.62592,1.97209 -2.11874,2.18553 -2.11875,2.18552 -2.99506,3.66158 -2.99506,3.66158 0.65376,4.08842 0.65377,4.08842 h -1.09263 -1.09262 l -1.08551,2.02829 -1.08551,2.02829 2.05032,2.60657 2.05033,2.60657 v 3.24269 3.2427 l -1.47165,1.22136 -1.47165,1.22136 -3.27835,0.78584 -3.27835,0.78583 -1.68241,0.6963 -1.6824,0.6963 -1.61912,-3.13103 z m -226.89834,-97.78107 -1.43362,-2.75 -4.62297,-6.87436 -4.62296,-6.87436 -3.87613,-8.12564 -3.87613,-8.12564 -2.11191,-6.2747 -2.11191,-6.27471 -1.48105,-7.04067 -1.48105,-7.04067 v -3.81218 -3.81218 l 1.25,-0.99905 1.25,-0.99906 5.55225,-0.67064 5.55225,-0.67064 1.56831,1.79725 1.5683,1.79725 0.68646,5.5 0.68646,5.5 2.4197,9.5 2.41971,9.5 2.05062,5.33267 2.05061,5.33267 2.89106,5.72716 2.89107,5.72716 1.5816,1.31262 1.5816,1.31261 v 2.25511 2.25511 l 1.5,1.24489 1.5,1.24489 v 1.37755 1.37756 h -2.02475 -2.02475 l -0.9505,2.5 -0.9505,2.5 h -2.99907 -2.99907 z m 256.38227,-37.30902 v -1.05901 l 1,0.61803 1,0.61803 v 0.44099 0.44098 h -1 -1 z m -0.80505,-18.44098 0.0371,-3 0.46099,1.76903 0.46099,1.76903 -0.49804,1.23097 -0.49805,1.23097 0.0371,-3 z m -8.74188,-35.17514 0.69743,-4.17513 -1.11043,-2.07487 -1.11044,-2.07486 h 0.91274 0.91274 l 1.11651,1.34531 1.1165,1.34531 0.58554,2.92767 0.58553,2.92767 -2.20177,1.97702 -2.20177,1.97702 z m -5.94752,-16.31873 -1.81553,-2.00613 h 1.03255 1.03254 l 1.26495,1.52417 1.26494,1.52416 -0.48196,0.48197 -0.48197,0.48196 z m -162.5616,-23.34136 -3.44395,-0.87794 -7.17724,-2.30024 -7.17723,-2.30024 -7.58886,-5.61222 -7.58885,-5.61223 -4.42035,-6.00462 -4.42036,-6.00463 -2.98278,-7.73462 -2.98279,-7.73462 -1.15578,-8.44137 -1.15579,-8.44136 0.63017,-6.05034 0.63017,-6.05034 1.01367,-5.5 1.01368,-5.5 3.00446,-9.41797 3.00446,-9.41796 3.83897,-7.63532 3.83896,-7.63533 6.01089,-8.98637 6.01089,-8.98638 12.17431,-13.23843 12.17431,-13.23842 -6.84745,2.6428 -6.84746,2.64281 -9.31538,3.39407 -9.31537,3.39408 -9.68463,1.5594 -9.68462,1.5594 -6,-0.68701 -6,-0.687 -6,-1.84531 -6,-1.84531 -4.5,-2.87175 -4.5,-2.87175 -3.7908,-3.91412 -3.79081,-3.91413 -2.49319,-5.07963 -2.49319,-5.07962 0.69216,-1.80374 0.69216,-1.80374 7.59184,0.65214 7.59183,0.65214 20.5,1.49053 20.5,1.49053 22.74038,0.78641 22.74038,0.78641 1.25962,1.63221 1.25962,1.63221 4.25,1.11062 4.25,1.11062 v 1.02047 1.02047 l 1.07685,-0.66552 1.07684,-0.66553 4.27069,1.63099 4.2707,1.63099 3.40246,-0.27448 3.40246,-0.27448 0.0103,4.5 0.0103,4.5 0.79875,1.25 0.79874,1.25 4.69099,-0.0239 4.69098,-0.0238 3.6878,-0.85681 3.6878,-0.8568 2.3122,2.50118 2.3122,2.50119 4.48735,1.94568 4.48735,1.94567 1.92736,2.06879 1.92737,2.06878 1.08528,-1.46435 1.08529,-1.46435 2.85745,0.77162 2.85745,0.77162 1.85197,1.67601 1.85197,1.67601 4.79058,0.49391 4.79058,0.49392 1,1.22451 1,1.22452 4.36999,0.69431 4.37,0.69431 6.63,5.81747 6.63001,5.81748 6,4.30725 6,4.30726 12.98965,13.59427 12.98965,13.59426 10.09939,10 10.09939,10 6.16096,4.4758 6.16096,4.47581 v 1.32522 1.32522 l -3.75,1.57791 -3.75,1.57791 -5.86702,0.70133 -5.86702,0.70132 -5.63298,-0.85866 -5.63298,-0.85867 -6.4479,-2.11899 -6.44791,-2.11898 -5.70673,-3.34462 -5.70673,-3.34462 -6.11764,-6.0234 -6.11765,-6.02341 -3.34095,-5.23458 -3.34095,-5.23459 -2.65161,-5.24604 -2.65161,-5.24603 -2.87747,-8.56295 -2.87748,-8.56294 -0.62126,-0.62126 -0.62126,-0.62126 0.17216,3.43024 0.17215,3.43024 -1.20463,7 -1.20462,7 -2.98818,10.38928 -2.98818,10.38928 -3.5402,8.55223 -3.54021,8.55224 -5.04755,8.55848 -5.04755,8.55849 -4.83679,6.08998 -4.83679,6.08997 -6.87453,6.48509 -6.87453,6.48508 -7.72279,4.8134 -7.72278,4.81341 -8.38695,2.89085 -8.38695,2.89086 -9.36301,0.24203 -9.36302,0.24203 -3.44395,-0.87793 z m -9.94395,-52.10575 v -0.44099 l -1,-0.61803 -1,-0.61803 v 1.05901 1.05902 h 1 1 z m 18,-81.55902 v -1 h -1.05902 -1.05901 l 0.61803,1 0.61803,1 h 0.44099 0.44098 z"
         id="path27438" />
      <path
         style="fill:#a7997a"
         d="m 611.65002,780.24161 -0.98414,-1.28816 -4.73121,-25 -4.73121,-25 -2.92339,-15 -2.9234,-15 -4.00999,-23.5 -4.00999,-23.5 -3.50538,-25.31457 -3.50538,-25.31458 v -0.78355 -0.78355 l 3.88167,-1.75039 3.88166,-1.75039 2.17699,1.16509 2.17698,1.16509 2.94135,-0.64603 2.94135,-0.64603 -0.0227,2.32945 -0.0227,2.32946 0.3957,31 0.3957,31 1.65417,13 1.65417,13 1.53867,8.5 1.53867,8.5 5.33353,21 5.33353,21 4.68136,12.5 4.68136,12.5 0.52603,2.70415 0.52602,2.70415 -2.35677,0.49125 -2.35677,0.49126 -4.59588,0.59276 -4.59589,0.59275 -0.98414,-1.28816 z m 27.08047,-153.60957 -8.90456,-6.90853 -11,-9.67903 -11,-9.67902 -2.58924,-0.54885 -2.58924,-0.54886 -1.66876,-2.82499 -1.66877,-2.82499 -3.17143,-2.66858 -3.17143,-2.66859 -4.57056,0.62394 -4.57057,0.62393 -3.46029,0.0189 -3.46029,0.0189 -2.25562,-1.20717 -2.25562,-1.20717 -1.44506,1.19929 -1.44506,1.1993 -0.71868,-1.16284 -0.71867,-1.16284 -3.83124,0.51388 -3.83124,0.51387 -1.16156,-1.39959 -1.16156,-1.3996 h -1.40231 -1.4023 l -0.89703,-2.35936 -0.89702,-2.35935 -3.01954,-0.60391 -3.01954,-0.60391 -4.09023,-5.53673 -4.09023,-5.53674 h -3.55816 -3.55816 l -1.79626,-2.21828 -1.79625,-2.21827 -5.13883,1.31704 -5.13883,1.31704 -2.38831,-1.56488 -2.38831,-1.56488 -0.70238,-3.28389 -0.70237,-3.28388 -1.00697,-1.25 -1.00697,-1.25 h -2.36178 -2.36178 l -3.26577,-2.93314 -3.26578,-2.93313 1.30399,-1.31687 1.30399,-1.31686 1.69601,2.15551 1.69601,2.15551 3.98519,2.09449 3.98519,2.09449 h 2.14269 2.14268 l 3.73405,1.56018 3.73404,1.56019 4.76626,-1.71392 4.76625,-1.71392 1.65837,0.63637 1.65837,0.63638 1.71346,3.14338 1.71345,3.14339 2.22975,2.74427 2.22975,2.74427 3.27025,1.21848 3.27025,1.21848 2.77707,1.48375 2.77707,1.48375 3.19181,-0.32252 3.1918,-0.32253 1.07017,2.14335 1.07016,2.14335 1.33341,1.60665 1.3334,1.60665 h 3.31854 3.31854 l 0.66016,-1.06817 0.66017,-1.06818 1.39885,0.53679 1.39885,0.53679 v -1.02324 -1.02325 l -12.03071,-12.69537 -12.03071,-12.69537 -5.71929,-6.35876 -5.71929,-6.35876 -3.66346,-4.14124 -3.66346,-4.14124 -3.33654,-3.69141 -3.33654,-3.69141 -3.23533,-3.80859 -3.23532,-3.80859 -5.32049,-6.5 -5.3205,-6.5 -6.23258,-8.24141 -6.23258,-8.2414 -2.96081,-6.2586 -2.96081,-6.25859 -7.9e-4,-2.71482 -7.9e-4,-2.71481 2.13993,-1.14526 2.13992,-1.14525 5.61008,0.44048 5.61007,0.44048 12.08337,5.52763 12.08337,5.52763 16.91663,9.76795 16.91663,9.76794 9,5.23434 9,5.23433 3.27025,1.26939 3.27025,1.26938 2.47975,2.94702 2.47975,2.94702 v 1.80083 1.80083 l -1.38446,1.149 -1.38445,1.149 -8.86555,-4.12263 -8.86554,-4.12263 -5,-2.31364 -5,-2.31364 -14,-5.11481 -14,-5.11481 -2.29705,-0.97547 -2.29706,-0.97548 h -0.95294 -0.95295 v 2.27887 2.27886 l 5.47698,8.22894 5.47699,8.22894 8.09171,10.2422 8.09171,10.24219 8.18131,8.89357 8.1813,8.89357 9,8.84556 9,8.84556 7.8208,7.26087 7.82079,7.26087 4.17921,3.8221 4.1792,3.82211 2.5,2.27944 2.5,2.27945 8,5.50324 8,5.50324 8.75,5.23167 8.75,5.23167 v 1.29853 1.29853 l -2.43147,1.59316 -2.43147,1.59316 -0.31853,2.7633 -0.31853,2.7633 -1.59544,0.30211 -1.59544,0.30211 -8.90456,-6.90853 z m -148.73789,-76.84526 -0.66667,-0.66666 v -1.83334 -1.83333 h 1.3 1.3 l 1.12186,1.12186 1.12185,1.12185 -0.52884,1.37815 -0.52885,1.37814 h -1.22634 -1.22635 z m -16.62423,-12.95108 -3.12691,-2.63111 0.3799,-0.37991 0.37991,-0.3799 3.14245,1.56766 3.14245,1.56766 0.53619,0.86758 0.53619,0.86757 -0.93164,0.57579 -0.93164,0.57578 z m 287.30285,-123.13225 0.48007,-1.75 0.61797,-3.67183 0.61797,-3.67183 -2.13906,-1.49825 -2.13906,-1.49826 0.6015,-0.97324 0.6015,-0.97324 -2.24309,-0.57828 -2.24309,-0.57828 -1.25,-2.72776 -1.25,-2.72776 v -1.25358 -1.25358 l 1.15971,-2.5453 1.15972,-2.5453 5.04748,-3.23896 5.04749,-3.23896 8.63719,-8.5228 8.63719,-8.5228 5.67154,-11.48999 5.67155,-11.49 2.02937,-8 2.02937,-8 0.60908,-8.33296 0.60908,-8.33296 1.49759,-1.49759 1.49759,-1.49759 6.09803,0.69434 6.09802,0.69433 0.88061,0.52596 0.88061,0.52595 -0.64391,6.92829 -0.64392,6.92829 -1.97109,7.35537 -1.9711,7.35537 -2.00031,5.07482 -2.0003,5.07482 -2.92467,5.75178 -2.92466,5.75178 -4.98481,7 -4.98481,7 -8.1466,8.98664 -8.14659,8.98664 -1.81287,1.01336 -1.81287,1.01336 -4.83275,4.29014 -4.83274,4.29014 1.61195,-0.61856 1.61195,-0.61857 1.66127,2.53542 1.66127,2.53541 -1.58683,2.26552 -1.58683,2.26551 v 2.34324 2.34323 l -1.03518,1.93426 -1.03519,1.93426 h -1.0322 -1.03221 z m -247.40708,-41.5 -6.13854,-9.25 -4.3085,-9 -4.3085,-9 -2.55818,-7.87073 -2.55817,-7.87073 -1.21271,-7.92194 -1.21271,-7.92194 1.92955,-1.8352 1.92955,-1.8352 4.61107,-0.58396 4.61108,-0.58396 1.74878,1.27874 1.74878,1.27874 0.36982,3.17629 0.36983,3.17628 2.03157,9.96911 2.03157,9.9691 3.01906,8.18811 3.01905,8.18812 3.0651,5.59958 3.06511,5.59959 1.12344,1.36617 1.12345,1.36617 1.26609,3.63383 1.26609,3.63383 0.015,0.75 0.0151,0.75 h -2 -2 v 1.46482 1.46481 l -1.93426,1.03519 -1.93426,1.03518 h -1.02737 -1.02737 l -6.13853,-9.25 z m 82.06179,-124.393 -2.5,-0.48946 -7.38123,-2.43963 -7.38122,-2.43964 -6.13272,-4.37622 -6.13272,-4.37621 -4.13333,-4.48414 -4.13334,-4.48413 -2.54519,-3.88379 -2.54519,-3.88378 -2.504,-7.51685 -2.504,-7.51685 -0.668,-8.98315 -0.66801,-8.98315 1.12355,-9.15648 1.12354,-9.15649 3.02229,-9.84351 3.02228,-9.84352 3.03257,-6.5 3.03257,-6.5 6.39821,-9.6118 6.39821,-9.61181 13.03787,-14.0842 13.03786,-14.0842 v -0.49728 -0.49728 l -7.25,2.9966 -7.25,2.9966 -8.23529,2.91337 -8.23529,2.91337 -9.26471,1.63674 -9.26471,1.63674 -8.51282,-0.57569 -8.51282,-0.57568 -5.89568,-2.02841 -5.89567,-2.02841 -5.09151,-3.93283 -5.0915,-3.93284 -3.80079,-4.99205 -3.80079,-4.99205 -0.55942,-3.44731 -0.55942,-3.44732 0.90015,-0.55632 0.90014,-0.55632 7.46007,0.90613 7.46006,0.90614 21.5,1.55091 21.5,1.55091 21,0.6109 21,0.61089 1.78896,1.86125 1.78895,1.86125 h 1.87926 1.87926 l 1.58178,0.60699 1.58179,0.60699 v 1.23802 1.23802 l 1.82874,1.65499 1.82874,1.65499 h 2.47126 2.47126 l 1.07284,-1.07284 1.07284,-1.07284 3.37716,0.32284 3.37716,0.32284 0.31875,4.48038 0.31876,4.48038 1.05369,1.26962 1.05369,1.26962 4.12755,-0.0436 4.12756,-0.0435 4.32185,-0.83532 4.32186,-0.83531 2.47403,2.62886 2.47404,2.62887 1.97435,3.15078 1.97434,3.15077 1.44657,0.5551 1.44657,0.5551 5.98956,-1.05504 5.98956,-1.05504 2.94801,2.09917 2.948,2.09916 h 4.06045 4.06044 l 1.07037,2 1.07037,2 h 4.31908 4.31908 l 9.04614,7.75 9.04615,7.75 4.84959,3.83923 4.84959,3.83924 6.5,6.32791 6.5,6.32791 5.6125,6.33286 5.6125,6.33285 4.37546,4.86999 4.37546,4.86998 8.64917,7.25681 8.64918,7.25681 3.14142,1.85568 3.14142,1.85568 -0.27856,1.41803 -0.27855,1.41803 -4,1.45269 -4,1.45269 -10,0.0279 -10,0.0279 -6.8007,-2.18695 -6.80069,-2.18695 -5.19931,-3.05276 -5.1993,-3.05277 -5.17555,-4.40511 -5.17554,-4.40511 -4.68754,-6.2358 -4.68754,-6.23581 -3.26568,-6.50048 -3.26569,-6.50048 -2.79962,-8.5 -2.79963,-8.5 -0.67227,-0.80066 -0.67227,-0.80067 -0.58867,6.30067 -0.58867,6.30066 -1.63395,8 -1.63394,8 -3.52244,10.5 -3.52244,10.5 -4.31075,8.72483 -4.31075,8.72483 -4.80617,7.27517 -4.80616,7.27517 -10.03737,10.08592 -10.03736,10.08591 -7.73803,4.76013 -7.73804,4.76013 -7.26196,2.55928 -7.26197,2.55927 -10.5,0.26791 -10.5,0.26791 z m -13.33333,-42.02367 -0.66667,-0.66666 v 1.33333 1.33333 l 0.66667,-0.66666 0.66666,-0.66667 z m 1,-4 -0.66667,-0.66666 v 1.33333 1.33333 l 0.66667,-0.66666 0.66666,-0.66667 z m 2.48333,-5.83333 v -0.95 l -1.075,-0.35833 -1.075,-0.35834 v 1.66667 1.66667 l 1.075,-0.35834 1.075,-0.35833 z m 3.51667,-1.16667 -0.66667,-0.66666 -0.66667,0.66666 -0.66666,0.66667 h 1.33333 1.33333 z m 8,-2 -0.66667,-0.66666 -0.66667,0.66666 -0.66666,0.66667 h 1.33333 1.33333 z m -15.66667,-2.83333 v -0.5 h -0.5 -0.5 v 0.5 0.5 h 0.5 0.5 z m -1,-2 v -0.5 h -0.5 -0.5 v 0.5 0.5 h 0.5 0.5 z m 72.91667,-50.87282 -0.41667,-0.37283 -3.36103,-1.71027 -3.36103,-1.71027 0.43517,1.30551 0.43517,1.30551 2.42586,0.67791 2.42586,0.6779 0.91667,0.0997 0.91666,0.0997 -0.41666,-0.37282 z m -8.73334,-5.84385 -1.18333,-1.18333 v 1.03333 1.03334 l 0.66667,0.66666 0.66666,0.66667 0.51667,-0.51667 0.51667,-0.51666 z m -34.51666,-13.45 -0.66667,-0.66666 -0.66667,0.66666 -0.66666,0.66667 h 1.33333 1.33333 z m 10,0 -0.66667,-0.66666 -0.66667,0.66666 -0.66666,0.66667 h 1.33333 1.33333 z m -14.66667,-1.65902 v -0.32568 l -2.63572,-2.42432 -2.63571,-2.42431 1.12425,2.16285 1.12426,2.16284 1.26146,0.50821 1.26146,0.50821 0.25,0.0789 0.25,0.0789 v -0.32569 z"
         id="path27436" />
      <path
         style="fill:#0b0a09"
         d="m 611.866,779.21534 -0.40628,-1.26189 -4.63129,-24.5 -4.63129,-24.5 -2.92023,-15 -2.92024,-15 -4.00999,-23.5 -4.00999,-23.5 -3.50538,-25.31457 -3.50538,-25.31458 v -0.40974 -0.40975 l 3.10269,-1.60446 3.10269,-1.60447 2.87935,1.19267 2.87935,1.19266 1.55581,-0.59702 1.55582,-0.59702 0.45455,1.23314 0.45456,1.23314 0.37494,31.5 0.37493,31.5 1.65984,13 1.65984,13 1.54475,8.5 1.54475,8.5 5.03876,20 5.03876,20 4.30346,12 4.30345,12 1.29982,3.23603 1.29981,3.23604 -0.96396,0.88628 -0.96397,0.88628 -5.77682,0.63957 -5.77683,0.63958 z m 26.80813,-153.61127 -8.8482,-6.84938 -9.09355,-8.03781 -9.09355,-8.0378 -4.40645,-3.39866 -4.40645,-3.39865 -5.38829,-4.96416 -5.38829,-4.96416 -16.61171,-16.55803 -16.61171,-16.55803 -7,-7.79236 -7,-7.79236 -3.5,-3.79868 -3.5,-3.79868 -4.5,-5.1661 -4.5,-5.16611 -2,-2.31605 -2,-2.31605 -3,-3.81694 -3,-3.81694 -3.59771,-4.05183 -3.5977,-4.05184 -5.20268,-7.20896 -5.20267,-7.20895 -2.93695,-5.79105 -2.93696,-5.79104 -0.0127,-2.21482 -0.0127,-2.21481 1.93426,-1.03519 1.93426,-1.03518 h 3.54291 3.54291 l 6.27283,2.3613 6.27283,2.3613 7.37599,3.71472 7.37599,3.71472 22.62401,13.11658 22.62401,13.11658 7.61656,3.73848 7.61656,3.73847 0.63344,1.65071 0.63344,1.65071 v 2.03485 2.03484 l -1.75,-0.52971 -1.75,-0.5297 -13,-6.00421 -13,-6.00421 -14,-5.18049 -14,-5.18049 -3.25,-0.53307 -3.25,-0.53306 v 3.38994 3.38994 l 6.25,9.14862 6.25,9.14862 5.67773,7.34228 5.67774,7.34228 3.32226,3.58439 3.32227,3.58439 6.5,7.35167 6.5,7.35167 8.51171,8.56394 8.51171,8.56394 8.98829,8.22378 8.98829,8.22378 2.62058,2.27622 2.62057,2.27622 2.25196,1.84513 2.25196,1.84513 8.29778,5.89722 8.29777,5.89721 8.1793,4.96788 8.1793,4.96787 1.45724,1.20941 1.45724,1.2094 -2.55685,2.37084 -2.55685,2.37085 v 2.45953 2.45953 h -1.4018 -1.4018 l -8.8482,-6.84938 z m 116.27401,-230.60445 -1.60781,-2.45383 0.9417,-2.47688 0.94171,-2.47688 5.8011,-4.25617 5.80109,-4.25618 7.77396,-8.06311 7.77396,-8.06312 6.00349,-12 6.00349,-12 2.01785,-8 2.01786,-8 0.60329,-8.25088 0.60329,-8.25087 1.27422,-1.05752 1.27422,-1.05751 6.20741,0.70229 6.20741,0.70229 -0.64353,6.92413 -0.64353,6.92413 -1.97109,7.35537 -1.9711,7.35537 -2.00031,5.07482 -2.0003,5.07482 -2.92467,5.75178 -2.92466,5.75178 -4.95482,7 -4.95482,7 -6.72844,7.24892 -6.72844,7.24891 -5.65737,4.2825 -5.65737,4.2825 -3.61803,2.21858 -3.61804,2.21859 h -0.51695 -0.51696 z m -241.59707,-24.67006 -6.0516,-9.12388 -3.55155,-7.48418 -3.55155,-7.48418 -2.83216,-8.66673 -2.83216,-8.66674 -1.29878,-7.72948 -1.29878,-7.72948 1.10854,-1.10854 1.10854,-1.10854 4.79318,-0.89546 4.79319,-0.89546 1.36315,1.36315 1.36316,1.36315 0.48955,4.39513 0.48955,4.39513 1.98556,8 1.98555,8 2.09688,6.5 2.09687,6.5 3.832,7.67438 3.832,7.67439 0.99969,0.61784 0.99968,0.61783 1.04629,3.88563 1.04629,3.88563 -2.38378,2.57215 -2.38379,2.57215 h -1.59696 -1.59696 z m 83.47486,-123.57723 -2,-0.41317 -8.05201,-2.44145 -8.05201,-2.44146 -4.69302,-2.97622 -4.69302,-2.97623 -4.41169,-4.06655 -4.41169,-4.06656 -3.54692,-5.20862 -3.54691,-5.20862 -2.49283,-7.51685 -2.49284,-7.51685 -0.668,-8.98315 -0.66801,-8.98315 1.12355,-9.15648 1.12354,-9.15649 3.02229,-9.84351 3.02228,-9.84352 3.03257,-6.5 3.03257,-6.5 6.36235,-9.55793 6.36235,-9.55794 12.63348,-13.69206 12.63348,-13.69207 h 0.94024 0.94025 v -1.5 -1.5 h -0.86246 -0.86246 l -7.38754,3.05332 -7.38754,3.05331 -8.23529,2.91337 -8.23529,2.91337 -9.26471,1.63674 -9.26471,1.63674 -8.51282,-0.57569 -8.51282,-0.57568 -5.86548,-2.01802 -5.86548,-2.01802 -4.75512,-3.6263 -4.75512,-3.6263 -3.66737,-4.80897 -3.66737,-4.80898 -0.59826,-3.68664 -0.59826,-3.68663 2.89905,0.54988 2.89905,0.54988 5.5,0.57809 5.5,0.57808 20.5,1.48293 20.5,1.48292 21,0.63123 21,0.63122 2,1.79594 2,1.79595 2.78491,0.6913 2.78491,0.6913 1.44771,2.79956 1.44771,2.79955 3.06706,0.67364 3.06706,0.67364 3.50822,-1.66476 3.50822,-1.66475 1.30221,1.08074 1.30222,1.08074 -0.47634,2.4918 -0.47634,2.4918 1.72606,2.63429 1.72606,2.6343 8.92672,-0.50898 8.92672,-0.50898 4.52189,5.87653 4.52189,5.87654 3.19156,-0.006 3.19155,-0.006 3.73319,-1.03679 3.7332,-1.03679 2.8633,2.11693 2.8633,2.11693 4.4035,0.58686 4.40351,0.58685 1.06233,1.44217 1.06233,1.44217 4.6735,0.31508 4.67349,0.31508 7.34688,6.33133 7.34688,6.33133 6.79191,5.5 6.79191,5.5 6.6608,6.5 6.6608,6.5 9.46458,10.37608 9.46459,10.37607 8.57452,7.12393 8.57451,7.12392 2.92549,2.15846 2.92548,2.15845 -4,1.72478 -4,1.72479 -9.5,0.0627 -9.5,0.0627 -6,-1.78258 -6,-1.78258 -5.36607,-3.05312 -5.36607,-3.05311 -5.73073,-4.76916 -5.73074,-4.76917 -4.76164,-6.33439 -4.76165,-6.33439 -3.05606,-6.00664 -3.05607,-6.00665 -3.24159,-9.5 -3.24158,-9.5 -1.5939,-0.32332 -1.5939,-0.32333 v 3.66624 3.66624 l -2.04535,10.03669 -2.04535,10.0367 -3.065,9.62039 -3.065,9.62039 -2.49398,6 -2.49398,6 -5.31795,9.06237 -5.31796,9.06237 -3.59402,4.43763 -3.59402,4.43763 -5.87497,6 -5.87497,6 -3.85872,3.05774 -3.85873,3.05774 -6.20201,3.73551 -6.20201,3.73551 -7.29799,2.52203 -7.29799,2.52202 -9.5,0.29076 -9.5,0.29075 -2,-0.41318 z m -12.96621,-41.80618 1.66152,-7.4682 4.15235,-1.0337 4.15234,-1.0337 8.21654,-2.58576 8.21653,-2.58577 1.08202,-1.30376 1.08203,-1.30375 -0.85933,-0.5311 -0.85933,-0.53109 -10.8463,3.44206 -10.84631,3.44207 h -2.39915 -2.39916 l -2.01152,-4.54738 -2.01152,-4.54737 -0.78616,-4.9732 -0.78616,-4.9732 -0.70046,-0.70046 -0.70047,-0.70047 -0.7878,1.27469 -0.7878,1.27469 0.81976,5.19635 0.81977,5.19635 2.5497,5.68585 2.5497,5.68585 -1.6431,6.54118 -1.64309,6.54118 0.60874,1.58635 0.60874,1.58635 0.94321,-0.58293 0.9432,-0.58293 z m 83.37886,-67.97678 1.4683,-1.4683 -0.54076,-0.54076 -0.54075,-0.54076 -4.9874,1.15123 -4.9874,1.15123 -5.14809,-1.70992 -5.14808,-1.70992 -1.94775,-2.73535 -1.94774,-2.73536 -0.6749,-2.689 -0.6749,-2.68901 h -0.83257 -0.83258 l -0.52152,0.84385 -0.52153,0.84384 1.00906,3.65451 1.00906,3.65451 2.20345,2.5426 2.20345,2.5426 4,1.47599 4,1.476 5.97218,-0.52484 5.97217,-0.52484 z m -47.06187,-17.61375 3.14922,-1.09782 v -1.25199 -1.25199 l -7.2835,0.46743 -7.2835,0.46743 -3.30259,-2.77895 -3.30259,-2.77895 -0.88916,-2.33866 -0.88916,-2.33867 h -1.02475 -1.02475 v 2.04966 2.04966 l 1.43107,2.76738 1.43107,2.76738 3.81893,1.6151 3.81893,1.61509 1.5,0.48892 1.5,0.48892 2.60078,0.0789 2.60077,0.0789 3.14923,-1.09783 z"
         id="path27434" />
    </g>
  </g>
</svg>
